<svg xmlns="http://www.w3.org/2000/svg" fill="none" viewBox="0 0 77 77">
  <g class="disconnect">
    <path fill="currentColor"
      d="M69.352 3.14a3.608 3.608 0 0 1 4.926.126 3.542 3.542 0 0 1 .128 4.916l-.128.133-7.574 7.477a16.475 16.475 0 0 1-2.001 20.435l-.28.281-5.414 5.345a3.607 3.607 0 0 1-4.926.126l-.133-.126-18.704-18.465v.001a3.543 3.543 0 0 1 0-5.05l5.413-5.345.285-.275c5.702-5.373 14.28-6.022 20.68-1.955l7.594-7.498.134-.125ZM30.223 30.86a3.607 3.607 0 0 1 5.06 0l.128.134a3.541 3.541 0 0 1 0 4.783l-.128.133-4.84 4.778 6.07 5.993 4.866-4.803.133-.125a3.607 3.607 0 0 1 4.927.125l.128.133a3.541 3.541 0 0 1 0 4.784l-.128.133-4.838 4.775 1.222 1.206.128.133a3.542 3.542 0 0 1 0 4.784l-.128.133-5.414 5.345c-5.698 5.625-14.459 6.365-20.965 2.23L8.85 73.031a3.607 3.607 0 0 1-4.926.126l-.133-.126a3.542 3.542 0 0 1-.001-5.05l7.572-7.477a16.477 16.477 0 0 1 2.282-20.716l5.415-5.345.134-.125a3.608 3.608 0 0 1 4.926.125l1.236 1.22 4.868-4.803Z"
      class="Vector" />
  </g>
</svg>