<svg xmlns="http://www.w3.org/2000/svg" viewBox="0 0 81 81">
  <path d="M39.867 71.466c-1.646 0-2.97-.532-3.97-1.594-1-1.042-1.5-2.427-1.5-4.156v-31.22l.595-13.03 3.03 2.343-7.937 9.5-6.968 7c-.5.5-1.073.917-1.72 1.25-.624.334-1.353.5-2.187.5-1.458 0-2.687-.479-3.687-1.437-.98-.98-1.469-2.24-1.469-3.781 0-1.48.563-2.782 1.688-3.907l20.125-20.156c.479-.5 1.083-.885 1.812-1.156a5.853 5.853 0 0 1 2.188-.438c.729 0 1.458.146 2.187.438.73.27 1.344.656 1.844 1.156l20.125 20.156c1.125 1.125 1.687 2.427 1.687 3.907 0 1.541-.5 2.802-1.5 3.78-.979.96-2.197 1.438-3.656 1.438-.833 0-1.573-.166-2.219-.5a7.095 7.095 0 0 1-1.687-1.25l-7-7-7.938-9.5 3.032-2.343.562 13.03v31.22c0 1.729-.5 3.114-1.5 4.156-1 1.062-2.312 1.594-3.937 1.594Z"/>
</svg>
