<svg xmlns="http://www.w3.org/2000/svg" viewBox="0 0 76 77">
  <path fill="#fff"
    d="M11.132 38.646c0 14.83 11.977 26.826 26.77 26.826 14.794 0 26.77-11.995 26.77-26.826 0-2.444-1.697-4.123-4.104-4.123-2.332 0-3.955 1.679-3.955 4.123 0 10.353-8.357 18.71-18.71 18.71-10.336 0-18.674-8.357-18.674-18.71 0-10.578 8.115-18.86 18.412-18.86 1.175 0 2.22.055 3.19.223l-6.007 5.914c-.69.69-1.119 1.511-1.119 2.593 0 2.201 1.735 3.936 3.918 3.936 1.1 0 2.014-.373 2.705-1.082l11.827-11.94c.82-.82 1.212-1.771 1.212-2.91a3.98 3.98 0 0 0-1.212-2.872L40.327 1.634C39.62.869 38.706.477 37.605.477c-2.164 0-3.899 1.791-3.899 4.011 0 1.1.43 1.922 1.1 2.612l5.224 5.111a14.388 14.388 0 0 0-2.388-.186c-14.756 0-26.509 11.79-26.509 26.62Z" />
</svg>