<svg xmlns="http://www.w3.org/2000/svg" width="81" height="80" fill="currentColor" viewBox="0 0 81 80">
  <path d="M70.914 48.703c0 4.563-.948 8.521-2.844 11.875-1.875 3.354-4.521 5.948-7.938 7.781-3.416 1.834-7.448 2.75-12.093 2.75h-8.157c-1.395 0-2.573-.479-3.53-1.437-.938-.938-1.407-2.084-1.407-3.438s.469-2.51 1.406-3.468c.958-.938 2.136-1.407 3.531-1.407h7.47c2.916 0 5.416-.541 7.5-1.625 2.082-1.104 3.687-2.614 4.812-4.53 1.125-1.938 1.687-4.157 1.687-6.657s-.562-4.719-1.687-6.656c-1.125-1.938-2.73-3.448-4.813-4.532-2.083-1.083-4.583-1.625-7.5-1.625H31.07l-12.406-.562 1.937-2.625 7.969 6.531 5.781 5.594c.458.437.833.937 1.125 1.5.292.562.438 1.219.438 1.969 0 1.333-.438 2.437-1.313 3.312-.854.875-1.99 1.313-3.406 1.313-1.334 0-2.5-.5-3.5-1.5l-17-16.844a5 5 0 0 1-1.063-1.625 5.334 5.334 0 0 1-.375-1.938c0-.666.125-1.323.375-1.968a5 5 0 0 1 1.063-1.625l17-16.875c1-1 2.166-1.5 3.5-1.5 1.416 0 2.552.437 3.406 1.312.875.875 1.313 1.99 1.313 3.344 0 .729-.146 1.375-.438 1.937a5.665 5.665 0 0 1-1.125 1.5L28.57 22.61l-7.97 6.562-1.937-2.625 12.406-.594h16.75c4.666 0 8.729.959 12.187 2.875 3.48 1.917 6.167 4.583 8.063 8 1.896 3.417 2.844 7.375 2.844 11.875Z"/>
</svg>
