<svg xmlns="http://www.w3.org/2000/svg" width="100" height="100" fill="currentColor" viewBox="0 0 100 100">
  <path d="M12.305 42.993C12.305 60.132 26.22 74 43.359 74a30.65 30.65 0 0 0 17.676-5.566L79.2 86.645c1.026.977 2.295 1.416 3.614 1.416 2.831 0 4.882-2.148 4.882-4.98 0-1.367-.537-2.588-1.367-3.516L68.262 61.45c3.857-5.176 6.103-11.523 6.103-18.457 0-17.139-13.867-31.055-31.006-31.055-17.138 0-31.054 13.917-31.054 31.055Zm7.52 0a23.485 23.485 0 0 1 23.534-23.535c12.989 0 23.535 10.498 23.535 23.535 0 12.988-10.546 23.535-23.535 23.535-13.037 0-23.535-10.547-23.535-23.535Z"/>
</svg>
