<svg xmlns="http://www.w3.org/2000/svg" viewBox="0 0 76 76">
  <path fill="#FF3B30"
    d="M10.434 72.552c-2.12 0-3.967-.477-5.539-1.43a9.68 9.68 0 0 1-3.609-3.787C.43 65.763 0 64.025 0 62.118c0-1.834.476-3.585 1.43-5.252L29.05 8.7c.976-1.738 2.262-3.049 3.858-3.93 1.62-.881 3.323-1.322 5.11-1.322 1.763 0 3.442.44 5.038 1.322 1.596.881 2.894 2.192 3.895 3.93l27.62 48.166a10.77 10.77 0 0 1 1.072 2.608c.238.882.357 1.763.357 2.644 0 1.906-.429 3.645-1.286 5.217a9.606 9.606 0 0 1-3.645 3.788c-1.548.953-3.382 1.429-5.502 1.429H10.434Zm1.036-7.575h53.025c1.024 0 1.834-.346 2.43-1.036.619-.691.928-1.49.928-2.394 0-.62-.154-1.227-.464-1.823L40.805 13.167c-.286-.548-.69-.941-1.215-1.18a3.613 3.613 0 0 0-1.572-.357c-.548 0-1.084.12-1.608.358s-.941.631-1.25 1.179L8.61 59.653c-.167.31-.286.631-.357.965a6.598 6.598 0 0 0-.072.929c0 .905.298 1.703.894 2.394.595.69 1.393 1.036 2.394 1.036Zm26.584-17.651c-2.24 0-3.407-1.12-3.502-3.359l-.5-16.293c-.048-1.12.297-2.037 1.036-2.752.738-.738 1.715-1.107 2.93-1.107 1.19 0 2.156.369 2.894 1.107.762.715 1.12 1.644 1.072 2.787l-.536 16.222c-.095 2.263-1.227 3.395-3.394 3.395Zm0 12.005c-1.24 0-2.3-.38-3.18-1.143-.858-.762-1.287-1.727-1.287-2.894 0-1.191.429-2.168 1.286-2.93.882-.786 1.942-1.18 3.18-1.18 1.24 0 2.276.382 3.11 1.144.857.762 1.286 1.75 1.286 2.966 0 1.19-.43 2.168-1.287 2.93-.857.738-1.893 1.107-3.108 1.107Z" />
</svg>