<svg xmlns="http://www.w3.org/2000/svg" viewBox="0 0 76 76">
  <path fill="#FF3B30"
    d="M9.208 72.547c-1.925 0-3.569-.402-4.933-1.206a8.419 8.419 0 0 1-3.179-3.288C.366 66.689 0 65.166 0 63.486c0-1.754.463-3.435 1.388-5.043l28.83-50.46c.852-1.534 1.972-2.667 3.36-3.397C34.993 3.83 36.466 3.453 38 3.453a9.04 9.04 0 0 1 4.385 1.133c1.412.73 2.545 1.863 3.398 3.398l28.829 50.46a9.789 9.789 0 0 1 1.023 2.52c.243.853.365 1.693.365 2.522 0 1.68-.365 3.203-1.096 4.567-.73 1.388-1.79 2.484-3.179 3.288-1.364.804-2.996 1.206-4.896 1.206H9.208Zm.036-4.421h57.512c1.486 0 2.63-.463 3.434-1.389.829-.925 1.243-2.021 1.243-3.288 0-.974-.256-1.949-.768-2.923L41.91 10.103c-.439-.78-1.011-1.328-1.718-1.644A4.987 4.987 0 0 0 38 7.947a5.21 5.21 0 0 0-2.229.512c-.706.316-1.279.864-1.717 1.644L5.298 60.526a5.97 5.97 0 0 0-.585 1.498 7.259 7.259 0 0 0-.146 1.425c0 1.267.402 2.363 1.206 3.288.828.926 1.985 1.389 3.471 1.389ZM38 48.249c-1.486 0-2.241-.792-2.265-2.375l-.402-19.548c-.025-.755.207-1.376.694-1.864.487-.487 1.133-.73 1.937-.73.779 0 1.425.256 1.936.767.511.487.755 1.096.73 1.827l-.438 19.548c-.024 1.583-.755 2.375-2.192 2.375Zm0 11.327c-.95 0-1.754-.329-2.411-.987-.658-.657-.987-1.425-.987-2.301 0-.926.329-1.706.987-2.339.657-.633 1.461-.95 2.411-.95.926 0 1.717.317 2.375.95.658.633.986 1.413.986 2.339 0 .9-.34 1.68-1.022 2.338-.658.633-1.438.95-2.339.95Z" />
</svg>