<svg xmlns="http://www.w3.org/2000/svg" viewBox="0 0 48 105">
  <rect width="24" height="1" x="12" y="52" rx=".5"/>
  <rect width="24" height="1" x="12" y="26.004" rx=".5"/>
  <rect width="48" height="1" y=".008" rx=".5"/>
  <rect width="48" height="1" y="103.992" rx=".5"/>
  <rect width="24" height="1" x="12" y="77.996" rx=".5"/>
  <rect width="12" height="1" x="18" y="90.994" rx=".5"/>
  <rect width="12" height="1" x="18" y="84.495" rx=".5"/>
  <rect width="12" height="1" x="18" y="97.493" rx=".5"/>
  <rect width="12" height="1" x="18" y="64.998" rx=".5"/>
  <rect width="12" height="1" x="18" y="58.499" rx=".5"/>
  <rect width="12" height="1" x="18" y="71.497" rx=".5"/>
  <rect width="12" height="1" x="18" y="13.006" rx=".5"/>
  <rect width="12" height="1" x="18" y="6.507" rx=".5"/>
  <rect width="12" height="1" x="18" y="19.505" rx=".5"/>
  <rect width="12" height="1" x="18" y="39.002" rx=".5"/>
  <rect width="12" height="1" x="18" y="32.503" rx=".5"/>
  <rect width="12" height="1" x="18" y="45.501" rx=".5"/>
</svg>
