<svg xmlns="http://www.w3.org/2000/svg" viewBox="0 0 512 256"><title>Ресурс 2</title><path d="M227.64506.3582C151.64784,2.91457,80.31311,13.68346,16.132,32.28757,9.46635,34.22011,3.11,36.05852,2.00627,36.37307L0,36.94467V71.11286L27.449,81.59573C42.54575,87.361,55.18527,92.07861,55.53677,92.07861c.46061,0,.63875-1.84649.63875-6.62843V78.8224l2.00632-.56451c9.14944-2.57313,47.042-10.13038,50.79474-10.13038a12.65254,12.65254,0,0,1,8.56549,3.39955c4.824,4.224,4.41371-3.02605,4.42749,78.36685l.01181,71.91959L149.93526,232.49l27.95389,10.6752.13981-78.60381c.09321-52.45177-.044-79.48932-.41222-81.26491a23.07515,23.07515,0,0,0-5.66154-10.90888c-3.36214-3.57547-4.694-4.32378-13.635-7.66241-8.93046-3.33449-9.59935-2.89811,6.99667-4.56612,27.6736-2.78259,46.24475-3.804,76.50527-4.20739l24.878-.33214.13849-27.80974L266.97714,0,249.451.107C239.8116.16605,229.99892.2789,227.64506.3582Zm72.49261,37.86227V75.37625l11.736.64918c10.06866.55664,17.77689,1.15332,40.01344,3.09564l3.86561.33739.14639-9.03352.147-9.03371,11.77009,1.48125c26.03192,3.27661,67.26367,10.91591,85.99369,15.93351l2.01452.53957v29.90408l-1.73883-.30719c-.95638-.16871-7.51658-1.50318-14.57888-2.96436A885.238,885.238,0,0,0,303.88316,88.899c-6.62122-.298-13.90342-.63934-16.18379-.76012l-4.14656-.21793v55.785h1.58458c4.87713,0,10.798,4.25354,13.33759,9.5803l1.39554,2.9276.1444,49.89767c.07943,27.44451.19957,49.89376.26718,49.8885.06761-.00461,12.52234-4.74649,27.67621-10.53736l27.55283-10.52749v-69.141l-1.67911-3.52492c-3.24266-6.80829-6.7643-9.54027-17.44476-13.53517-3.75-1.4021-6.759-2.60465-6.6875-2.6716.07222-.067,4.82592.32493,10.56363.87172a752.40083,752.40083,0,0,1,102.05075,16.32557l13.507,3.06675.002,15.00422c.00065,8.2524.18179,15.10269.40234,15.22216.2212.12013,10.8741-3.80324,23.67413-8.71844s25.25931-9.688,27.6867-10.60562L512,175.56021V36.93082l-12.43895-3.62988C448.94066,18.52849,393.54552,8.39614,336.51855,3.47768c-8.557-.73769-33.14806-2.41319-35.42382-2.41319C300.185,1.06449,300.13767,2.88583,300.13767,38.22047Z" fill="#ffffff" fill-rule="evenodd"/></svg>