<svg xmlns="http://www.w3.org/2000/svg" fill="none" viewBox="0 0 32 33">
  <path fill-rule="evenodd"
    d="m23.916 22.348-2.151-2.068a.375.375 0 0 0-.512.028l-.537.518a.339.339 0 0 0-.119.24.334.334 0 0 0 .1.25l2.152 2.074a.365.365 0 0 0 .5-.028l.543-.522a.343.343 0 0 0 .024-.492Zm-12.348-4.425 8.589-8.443h2.235v2.178l-8.69 8.345 1.37 1.335a.418.418 0 0 1-.032.6l-.648.632a.435.435 0 0 1-.608.033l-4.88-4.758a.42.42 0 0 1 .032-.6l.648-.631a.437.437 0 0 1 .607-.034l1.377 1.343Zm7.403-1.423 1.436 1.41 1.384-1.33a.458.458 0 0 1 .625.033l.655.63a.412.412 0 0 1 .032.6l-4.952 4.759a.456.456 0 0 1-.623-.033l-.648-.631a.412.412 0 0 1-.04-.6l1.413-1.358-1.448-1.39.896-.865 1.114 1.09a.111.111 0 0 0 .125.018.112.112 0 0 0 .035-.027l.176-.171a.116.116 0 0 0 .009-.162l.008-.004-1.111-1.086.914-.882V16.5Zm-3.716-3.646-.923.89-1.99-1.95a.113.113 0 0 0-.16.01l-.177.175a.116.116 0 0 0-.014.159l1.989 1.945-.931.898-3.457-3.32V9.48h2.228l3.435 3.374Zm-7.17 9.494 2.151-2.068a.375.375 0 0 1 .512.028l.537.518a.342.342 0 0 1 .031.49l-2.151 2.07a.375.375 0 0 1-.512-.028l-.544-.518a.341.341 0 0 1-.024-.492Zm4.754-3.878-.003.004a.11.11 0 0 0 .008.163l.168.17a.122.122 0 0 0 .168.009l6.76-6.654a.108.108 0 0 0 .021-.127.109.109 0 0 0-.028-.035l-.174-.172a.123.123 0 0 0-.168-.008l-6.752 6.65Z"
    clip-rule="evenodd" />
</svg>