<svg xmlns="http://www.w3.org/2000/svg" fill="none" viewBox="0 0 32 33">
  <path fill="#fff" fill-rule="evenodd"
    d="M21.49 17.477v.2l-2 .8v-4l2 .8v.2a1 1 0 0 1 0 2Zm-4 1h-6v-4h6v4Zm-5 6h-4l2-4h4l-2 4Zm-4-7v-2a1 1 0 0 1 1-1h1v4h-1a1 1 0 0 1-1-1Zm11 1h-1v-4h1v4Z"
    clip-rule="evenodd" />
  <path fill="#fff"
    d="M16.984 8.478h3.506l-1.102 2.205-2.404-2.205Zm-5.128 4.313c.04.038 2.286-1.119 3.577-1.787 1.25.645 3.584 1.844 3.643 1.844.11-.028.214-.072.31-.13a.265.265 0 0 0 0-.397l-3.651-3.363a.32.32 0 0 0-.234-.081.321.321 0 0 0-.255.08l-3.652 3.355a.264.264 0 0 0 0 .398l.262.081Z" />
</svg>