<svg xmlns="http://www.w3.org/2000/svg" fill="none" viewBox="0 0 32 33">
  <path fill="#fff" fill-rule="evenodd"
    d="m17.886 20.469 2.859-1.5h2l2 1v1L22.329 23.8l-4.443-3.332Zm-3.98-2.985.172-.515H4.745v-1h9.667l.333-1 2-1 4 1v2l-4 2.644-2.838-2.13Zm-.302 1.485 2 1.5-4.24 3.179-2.62-2.68v-1l1.088-1h3.772Zm3.083-7.84c-1.298.672-3.558 1.836-3.598 1.798l-.263-.082a.264.264 0 0 1-.067-.31.266.266 0 0 1 .067-.09l3.673-3.376a.323.323 0 0 1 .257-.08.322.322 0 0 1 .235.082l3.673 3.383a.266.266 0 0 1 0 .4 1.19 1.19 0 0 1-.312.13c-.06 0-2.408-1.207-3.665-1.856Zm3.585 12.84h-7.054l3.527-2.644 3.527 2.644Z"
    clip-rule="evenodd" />
</svg>