<svg xmlns="http://www.w3.org/2000/svg" viewBox="0 0 32 33">
  <path fill="#fff" fill-rule="evenodd"
    d="M19.563 22.691H24v-2.529a.4.4 0 0 0-.4-.4h-3.637a.4.4 0 0 0-.4.4v2.53Zm-7.524-1.382a.4.4 0 0 1 .4.4v.982H8v-.982c0-.22.18-.4.4-.4h3.64Z"
    clip-rule="evenodd" />
  <path fill="#fff"
    d="M13.247 22.691h5.506v-4.09a.4.4 0 0 0-.4-.4h-4.706a.4.4 0 0 0-.4.4v4.09Zm4.378-9.431h1.752l1.125.563v.563l-1.341 1.688H12.97l-1.472-1.688v-.563l.612-.563h2.577l-.284-.835.096-.29h-2.438v-.563h2.626l.188-.563L16 10.447l2.251.562v1.126l-.626 1.125ZM6 13.26l3.2 4.5h.8l-2.4-4.5 2.4-4.5h-.8L6 13.26Zm16 4.5h.8l3.2-4.5-3.2-4.5H22l2.4 4.5-2.4 4.5Z" />
</svg>