<svg xmlns="http://www.w3.org/2000/svg" viewBox="0 0 32 33">
  <path fill="#fff" fill-rule="evenodd"
    d="M19.563 24.599H24v-2.53a.4.4 0 0 0-.4-.4h-3.637a.4.4 0 0 0-.4.4v2.53Zm-7.524-1.383a.4.4 0 0 1 .4.4v.983H8v-.983c0-.22.18-.4.4-.4h3.64Z"
    clip-rule="evenodd" />
  <path fill="#fff"
    d="M13.247 24.599h5.506v-4.09a.4.4 0 0 0-.4-.4h-4.706a.4.4 0 0 0-.4.4v4.09Zm4.378-8.953h1.752l1.125.563v.562l-1.341 1.689H12.97l-1.472-1.689v-.562l.612-.563h2.577l-.284-.836.096-.29h-2.438v-.562h2.626l.188-.563L16 12.832l2.251.563v1.125l-.626 1.126Zm-5.281-3.349c.04.038 2.3-1.126 3.598-1.798v-.001c1.257.649 3.605 1.856 3.665 1.856.11-.028.215-.072.312-.13a.266.266 0 0 0 0-.4l-3.673-3.383a.322.322 0 0 0-.235-.082.323.323 0 0 0-.257.08l-3.673 3.376a.264.264 0 0 0-.067.31.266.266 0 0 0 .067.09l.263.082Z" />
</svg>