<svg xmlns="http://www.w3.org/2000/svg" viewBox="0 0 32 33">
  <path fill="#fff"
    d="M11.743 22.879a3.538 3.538 0 0 0 3.54-3.547 3.537 3.537 0 0 0-3.54-3.54 3.538 3.538 0 0 0-3.547 3.54 3.54 3.54 0 0 0 3.547 3.547Zm0-1.792a1.75 1.75 0 0 1-1.756-1.755c0-.967.783-1.75 1.756-1.75.967 0 1.75.783 1.75 1.75a1.75 1.75 0 0 1-1.75 1.755Zm8.514 1.792a3.54 3.54 0 0 0 3.547-3.547 3.538 3.538 0 0 0-3.547-3.54 3.537 3.537 0 0 0-3.54 3.54 3.538 3.538 0 0 0 3.54 3.547Zm0-1.792a1.75 1.75 0 0 1-1.75-1.755c0-.967.783-1.75 1.75-1.75a1.75 1.75 0 0 1 1.756 1.75 1.75 1.75 0 0 1-1.756 1.755ZM8.608 18.275h-1.17c-.28 0-.424.143-.424.424v.931c0 .287.155.442.424.442h1.17v-1.797Zm14.784 1.797h1.17c.269 0 .424-.155.424-.441v-.932c0-.28-.143-.424-.424-.424h-1.17v1.797Zm-8.509-.107c.305-.245.77-.323 1.117-.323.346 0 .812.078 1.116.323v-1.606c-.322-.191-.764-.275-1.116-.275-.352 0-.794.084-1.117.275v1.606Zm-2.549-5.315c.04.037 2.3-1.127 3.598-1.799 1.257.648 3.605 1.855 3.665 1.855.11-.028.215-.072.312-.13a.267.267 0 0 0 0-.4l-3.673-3.383a.322.322 0 0 0-.235-.082.324.324 0 0 0-.257.08l-3.673 3.377a.265.265 0 0 0 0 .4l.263.082Z" />
</svg>