<svg xmlns="http://www.w3.org/2000/svg" viewBox="0 0 32 33">
  <path fill="#fff"
    d="M11.889 24.702a3.417 3.417 0 0 0 3.419-3.425 3.416 3.416 0 0 0-3.42-3.42 3.417 3.417 0 0 0-3.424 3.42 3.418 3.418 0 0 0 3.425 3.425Zm0-1.73a1.69 1.69 0 0 1-1.696-1.695c0-.934.756-1.69 1.696-1.69.934 0 1.69.756 1.69 1.69a1.69 1.69 0 0 1-1.69 1.695Zm8.222 1.73a3.418 3.418 0 0 0 3.425-3.425 3.417 3.417 0 0 0-3.425-3.42 3.416 3.416 0 0 0-3.42 3.42 3.417 3.417 0 0 0 3.42 3.425Zm0-1.73a1.69 1.69 0 0 1-1.69-1.695c0-.934.756-1.69 1.69-1.69.94 0 1.695.756 1.695 1.69a1.69 1.69 0 0 1-1.695 1.695Zm-11.25-2.715h-1.13c-.27 0-.41.138-.41.41v.899c0 .276.15.426.41.426h1.13v-1.735Zm14.277 1.735h1.13c.26 0 .41-.15.41-.426v-.9c0-.271-.138-.41-.41-.41h-1.13v1.736Zm-8.216-.104c.294-.236.743-.31 1.078-.31.334 0 .784.074 1.078.31v-1.55c-.311-.185-.738-.266-1.078-.266-.34 0-.767.08-1.078.265v1.552Z" />
  <path fill="#fff" fill-rule="evenodd"
    d="M16 12.28c0 2.564 1.142 4.028 3.137 4.028s3.137-1.464 3.137-4.028c0-2.563-1.142-4.027-3.137-4.027S16 9.717 16 12.28Zm2.058 0c-.003-1.368.327-2.083 1.066-2.087.74-.004 1.07.71 1.07 2.087 0 1.378-.37 2.088-1.07 2.088-.7 0-1.062-.72-1.066-2.088Z"
    clip-rule="evenodd" />
  <path fill="#fff"
    d="M16 15.75a.4.4 0 0 1-.4.4h-4.879a.4.4 0 0 1-.4-.4v-.729a.4.4 0 0 1 .4-.4h1.53v-4.435h-.101l-1.829 1.26V9.752l1.93-1.34h1.515a.4.4 0 0 1 .4.4v5.81H15.6a.4.4 0 0 1 .4.4v.727Z" />
</svg>