<svg xmlns="http://www.w3.org/2000/svg" viewBox="0 0 32 33">
  <path fill="#fff"
    d="M11.085 20.57a4.085 4.085 0 0 0 4.088-4.096 4.084 4.084 0 0 0-4.088-4.088 4.085 4.085 0 0 0-4.096 4.088 4.087 4.087 0 0 0 4.096 4.095Zm0-2.07a2.021 2.021 0 0 1-2.027-2.026 2.02 2.02 0 0 1 2.027-2.02c1.116 0 2.02.903 2.02 2.02a2.02 2.02 0 0 1-2.02 2.027Zm9.83 2.07a4.087 4.087 0 0 0 4.096-4.096 4.085 4.085 0 0 0-4.095-4.088 4.084 4.084 0 0 0-4.089 4.088 4.085 4.085 0 0 0 4.088 4.095Zm0-2.07a2.02 2.02 0 0 1-2.02-2.026c0-1.117.904-2.02 2.02-2.02a2.02 2.02 0 0 1 2.027 2.02 2.021 2.021 0 0 1-2.026 2.027Zm-13.45-3.246H6.114c-.324 0-.49.165-.49.49v1.075c0 .33.18.51.49.51h1.351v-2.075Zm17.07 2.075h1.351c.31 0 .49-.18.49-.51v-1.076c0-.324-.166-.49-.49-.49h-1.351v2.076Zm-9.824-.124c.351-.283.89-.372 1.289-.372.4 0 .938.09 1.29.372V15.35c-.373-.22-.883-.317-1.29-.317-.407 0-.917.097-1.29.317v1.855Z" />
</svg>