<svg xmlns="http://www.w3.org/2000/svg" viewBox="0 0 32 33">
  <path fill="#fff"
    d="M11.889 25.897a3.417 3.417 0 0 0 3.419-3.425 3.416 3.416 0 0 0-3.42-3.42 3.417 3.417 0 0 0-3.424 3.42 3.418 3.418 0 0 0 3.425 3.425Zm0-1.73a1.69 1.69 0 0 1-1.696-1.695c0-.934.756-1.69 1.696-1.69.934 0 1.69.756 1.69 1.69a1.69 1.69 0 0 1-1.69 1.695Zm8.222 1.73a3.418 3.418 0 0 0 3.425-3.425 3.417 3.417 0 0 0-3.425-3.42 3.416 3.416 0 0 0-3.42 3.42 3.417 3.417 0 0 0 3.42 3.425Zm0-1.73a1.69 1.69 0 0 1-1.69-1.695c0-.934.756-1.69 1.69-1.69.94 0 1.695.756 1.695 1.69a1.69 1.69 0 0 1-1.695 1.695Zm-11.25-2.716h-1.13c-.27 0-.41.139-.41.41v.9c0 .276.15.426.41.426h1.13v-1.736Zm14.277 1.736h1.13c.26 0 .41-.15.41-.427v-.9c0-.27-.138-.409-.41-.409h-1.13v1.736Zm-8.216-.104c.294-.236.743-.311 1.078-.311.334 0 .784.075 1.078.311v-1.55c-.311-.185-.738-.266-1.078-.266-.34 0-.767.08-1.078.265v1.551Z" />
  <path fill="#fff" fill-rule="evenodd"
    d="M15.79 14.85c0 2.097.933 3.294 2.565 3.294s2.566-1.197 2.566-3.294c0-2.096-.934-3.294-2.566-3.294-1.632 0-2.566 1.198-2.566 3.294Zm1.683 0c-.003-1.119.267-1.704.872-1.707.605-.004.875.58.875 1.707 0 1.127-.303 1.708-.875 1.708-.572 0-.87-.589-.872-1.708Z"
    clip-rule="evenodd" />
  <path fill="#fff"
    d="M15.79 17.615a.4.4 0 0 1-.4.4h-3.846a.4.4 0 0 1-.4-.4v-.45a.4.4 0 0 1 .4-.4h1.179v-3.628h-.083l-1.496 1.031v-1.386l1.579-1.097h1.166c.22 0 .4.18.4.4v4.68h1.1a.4.4 0 0 1 .4.4v.45Zm-4.277-6.645c.049.046 2.823-1.383 4.416-2.208 1.543.796 4.424 2.277 4.498 2.277.135-.035.264-.088.383-.16a.327.327 0 0 0 0-.49l-4.508-4.152a.395.395 0 0 0-.288-.101.396.396 0 0 0-.316.098l-4.508 4.144a.327.327 0 0 0 0 .49l.323.101Z" />
</svg>