<svg xmlns="http://www.w3.org/2000/svg" viewBox="0 0 32 33">
  <path fill="#fff"
    d="M11.941 19.856a3.373 3.373 0 0 0 3.376-3.381 3.372 3.372 0 0 0-3.376-3.376 3.373 3.373 0 0 0-3.381 3.376 3.375 3.375 0 0 0 3.381 3.381Zm0-1.708a1.67 1.67 0 0 1-1.674-1.673c0-.923.746-1.668 1.674-1.668.922 0 1.668.745 1.668 1.668 0 .928-.746 1.673-1.668 1.673Zm8.118 1.708a3.375 3.375 0 0 0 3.381-3.381 3.374 3.374 0 0 0-3.381-3.376 3.372 3.372 0 0 0-3.376 3.376 3.373 3.373 0 0 0 3.376 3.381Zm0-1.708a1.668 1.668 0 0 1-1.668-1.673c0-.923.746-1.668 1.668-1.668.928 0 1.674.745 1.674 1.668a1.67 1.67 0 0 1-1.674 1.673Zm-11.107-2.68H7.837c-.268 0-.405.136-.405.403v.888c0 .274.148.422.405.422h1.115v-1.714Zm14.096 1.713h1.115c.257 0 .405-.148.405-.422v-.888c0-.267-.137-.404-.405-.404h-1.115v1.714Zm-8.113-.103c.29-.233.735-.307 1.065-.307.33 0 .774.074 1.064.307v-1.531c-.307-.182-.728-.262-1.064-.262-.336 0-.757.08-1.065.262v1.531Z" />
  <path fill="#fff"
    d="M23.663 20.977h.8l3.2-4.5-3.2-4.5h-.8l2.4 4.5-2.4 4.5Zm-19.444-4.5 3.2 4.5h.8l-2.4-4.5 2.4-4.5h-.8l-3.2 4.5Z" />
</svg>