<svg xmlns="http://www.w3.org/2000/svg" fill="none" viewBox="0 0 32 33">
  <path fill="#fff" fill-rule="evenodd"
    d="M19.563 23.095H24v-2.53a.4.4 0 0 0-.4-.4h-3.637a.4.4 0 0 0-.4.4v2.53Zm-7.524-1.383a.4.4 0 0 1 .4.4v.983H8v-.983c0-.22.18-.4.4-.4h3.64Z"
    clip-rule="evenodd" />
  <path fill="#fff"
    d="M13.247 23.095h5.506v-4.09a.4.4 0 0 0-.4-.4h-4.706a.4.4 0 0 0-.4.4v4.09Zm.092-6.618h5.322a.4.4 0 0 0 .4-.4v-.847a.4.4 0 0 0-.4-.4h-1.578V8.536a.4.4 0 0 0-.4-.4h-1.537a.4.4 0 0 0-.228.072l-1.98 1.373v1.828l1.972-1.359h.111v4.78h-1.682a.4.4 0 0 0-.4.4v.848c0 .22.179.4.4.4Z" />
</svg>