<svg xmlns="http://www.w3.org/2000/svg" width="59" height="72" fill="none" viewBox="0 0 59 72">
  <g clip-path="url(#a)">
    <path d="M43.104 35.547c-.024-2.05-.732-3.711-2.417-5.371L11.952 1.856C10.707.585 9.217 0 7.41 0 3.749 0 .77 2.93.77 6.543c0 1.782.757 3.467 2.124 4.834l24.731 24.145L2.894 59.718C1.551 61.084.77 62.744.77 64.575c0 3.614 2.979 6.543 6.64 6.543 1.783 0 3.296-.586 4.542-1.855l28.735-28.345c1.709-1.66 2.417-3.345 2.417-5.371Z"/>
  </g>
  <defs>
    <clipPath id="a">
      <path d="M.77 0h58v71.12h-58z"/>
    </clipPath>
  </defs>
</svg>
