<svg xmlns="http://www.w3.org/2000/svg" width="150" height="100" fill="none" viewBox="0 0 150 100">
  <g class="bongo-cat">
    <g class="background">
      <g class="tour-eiffel">
        <mask id="a" width="32" height="66" x="108.461" y=".822" fill="#000" class="a" maskUnits="userSpaceOnUse">
          <path fill="#fff" d="M108.461.822h32v66h-32z" />
          <path
            d="M138.904 64.89a160.77 160.77 0 0 0-3.032-5.51c-.962-1.674-1.91-3.392-3.018-4.977l.138-.006c.27-.017.424-.31.364-.513-.002-.984-.014-1.968-.025-2.951a.268.268 0 0 0-.274-.273c-.425.006-.882-.108-1.306-.142-.18-.014-.36-.025-.54-.036-.04-.62-.383-1.316-.565-1.871a56.892 56.892 0 0 0-1.862-4.906c-.261-.602-.507-1.255-.834-1.836h.002a.33.33 0 0 0 .158-.097.307.307 0 0 0 .11-.175c.083-.388.203-.773.313-1.154.086-.298.18-.594.268-.892.02-.069.098-.323.071-.24a.492.492 0 0 0-.377-.65c-.489-.09-.984-.157-1.484-.205-.192-2.142-.433-4.274-.55-6.423-.122-2.27-.184-4.541-.221-6.813-.072-4.378-.14-8.756-.211-13.134.219-.195.414-.434.585-.624a10.32 10.32 0 0 0 1.024-1.358c.162-.254.039-.716-.334-.65l-.035.005c-.119-.706-.684-1.523-1.093-2.062-.569-.75-1.191-1.461-1.789-2.19.02-1.04.01-2.26-.405-3.212-.09-.206-.485-.264-.491.028-.021 1.099.106 2.188.043 3.29a.582.582 0 0 0 .014.16 35.88 35.88 0 0 1-1.07 1.822c-.436.694-.986 1.374-1.381 2.1-.325 0-.508.377-.305.653.517.701 1.002 1.481 1.637 2.082a.234.234 0 0 0 .027.02c-.082 4.303-.158 8.606-.282 12.907-.13 4.485-.309 8.98-.91 13.43a.586.586 0 0 0 .004.183c-.515.079-1.024.17-1.526.272-.231.047-.379.36-.292.572.196.479.414.947.678 1.393.144.244.408.525.524.783-.417.578-.673 1.392-.952 2.026a49.848 49.848 0 0 0-.989 2.444 59.641 59.641 0 0 0-.811 2.286c-.2.605-.54 1.314-.61 1.979l-1.85.002c-.266 0-.512.203-.512.483.001 1.024.006 2.049.011 3.073.002.243.157.55.445.55h.008c-.496.72-.925 1.494-1.37 2.242a162.963 162.963 0 0 0-4.495 8.06c-.194.372.062.847.515.771a21.01 21.01 0 0 1 5.452-.19c.194.019.462-.093.513-.305.799-3.32 2.729-6.545 6.051-7.82.983-.376 2.075-.56 3.122-.374 1.715.305 3.282 1.258 4.474 2.508 1.46 1.531 2.365 3.513 2.864 5.55.057.233.23.425.491.4a21.043 21.043 0 0 1 5.444.17c.388.063.63-.315.451-.655Zm-12.665-27.152c-.472-.404-.966-.783-1.423-1.21.375-.333.863-.719 1.149-1.168.071.796.16 1.59.274 2.378Zm-1.785-14.674.482.562c.121.141.216.27.324.376-.119.138-.214.31-.318.448-.225.3-.455.597-.686.893a44.356 44.356 0 0 0-1.076-1.242 6.424 6.424 0 0 0 1.274-1.037Zm-1.237-2.447c.236-.274.458-.56.671-.853.376.456.758.926 1.202 1.3-.206.284-.415.563-.634.835-.39-.448-.785-.903-1.239-1.282Zm1.331 6.269c.212.254.402.551.667.746-.262.24-.472.58-.678.838-.145.183-.288.369-.431.554a50.88 50.88 0 0 1-.986-1.153c-.008-.01-.016-.016-.024-.023.379-.447.757-.896 1.131-1.348l.321.386Zm-.397 3.36c.442.516.971 1.006 1.386 1.555-.386.285-.741.639-1.082 1.007-.46-.453-.92-.935-1.41-1.357.334-.44.673-.878 1.016-1.312.031.035.059.072.09.108Zm.223 3.655c.325.32.636.646.904 1 .02.027.047.05.076.068-.348.355-.736.673-1.119.995-.356-.317-.731-.554-1.139-.791.331-.32.651-.652.973-.974.099-.1.202-.2.305-.298Zm.126 3.46c.337.341.711.72 1.123 1.012-.902-.023-1.81.013-2.712.096.217-.214.412-.456.623-.675.23-.24.463-.475.699-.708l.267.274Zm1.389-2.91c-.134-.412-.54-.81-.896-1.136.268-.258.53-.52.765-.8.04.645.082 1.291.131 1.937Zm-.232-3.725c-.263-.281-.538-.552-.787-.834l-.319-.362c.33-.385.705-.775 1.003-1.193.029.797.063 1.593.103 2.389Zm-.195-5.414.041 1.462c-.233-.312-.519-.602-.777-.885.247-.305.489-.612.728-.923l.008.346Zm-.056-2.377c-.14-.156-.288-.307-.429-.454.142-.171.277-.345.406-.52l.023.974Zm-.058-2.727c-.306-.384-.667-.738-.992-1.096.301-.42.61-.86.821-1.322a.788.788 0 0 0 .125-.008c.014.809.031 1.617.046 2.426Zm-.058-3.053c-.214-.252-.517-.443-.789-.644.266-.29.522-.59.761-.893l.028 1.537Zm-.056-3.083c-.15-.174-.304-.348-.463-.519.145-.168.293-.334.444-.497l.019 1.016Zm-.114-1.786a.504.504 0 0 0 .023.023c.006.007.013.012.02.018a.332.332 0 0 0-.201.096 20.8 20.8 0 0 0-.664.645 7.351 7.351 0 0 0-.935-.78l1.757-.002Zm-1.836.838c.151.18.309.358.469.533a9.017 9.017 0 0 0-.486.61l.017-1.143Zm-.034 2.232c.342-.382.667-.778.993-1.173.218.23.436.456.65.682-.336.38-.646.792-.972 1.179-.224-.185-.448-.37-.673-.553l.002-.134Zm-.015 1c.075.075.151.148.227.221a17.89 17.89 0 0 0-.234.275l.007-.495Zm-.021 1.4c.261-.221.519-.458.77-.707.181.163.368.355.572.503-.245.328-.448.705-.659 1.067a8.432 8.432 0 0 0-.686-.643l.003-.22Zm-.018 1.214c.093.106.188.208.277.307l-.286.405.009-.712Zm-.034 2.596c.254.313.526.614.79.915-.266.286-.544.561-.814.843l.024-1.758Zm-.051 3.794.003-.198c.219.267.441.532.662.797a61.02 61.02 0 0 0-.689.893c.01-.498.018-.995.024-1.492Zm-.073 3.48c.196.266.396.527.602.786-.221.29-.442.582-.661.875.023-.554.043-1.107.059-1.661Zm-.153 3.565c.309.359.656.694 1.005 1.028-.153.17-.305.336-.458.494-.235.243-.469.489-.7.736.06-.752.11-1.505.153-2.258Zm-.231 3.18a.307.307 0 0 0 .006-.006c.351.278.673.585.987.902-.329.302-.652.61-.967.928l-.237.236a83.9 83.9 0 0 0 .211-2.06Zm1.417 14.832c-.772 0-1.543.002-2.315.003.239-.546.24-1.234.338-1.815.123-.734.261-1.466.411-2.195.281-1.367.7-2.713.968-4.082.509.007 1.021 0 1.53-.026.285 1.365.689 2.707.975 4.073.14.673.266 1.35.383 2.026.112.656.139 1.384.357 2.016h-2.647Z" />
          <path
            d="M128.153 44.239a57.063 57.063 0 0 1 2.057 5.64c.057.187.102.378.163.563l-.237-.008c-.121-.564-.498-1.1-.746-1.616a46.13 46.13 0 0 0-1.005-1.992c-.115-.211-.546-.131-.457.139.254.761.55 1.493.895 2.217.177.371.338.874.598 1.242l-.808-.002c.28-.44-.434-1.737-.576-2.075-.162-.385-.751-.046-.602.322.227.561.442 1.127.653 1.694.008.02.019.04.032.058l-.754-.002a.28.28 0 0 0 .019-.068c.08-.622-.145-1.346-.253-1.959a67.885 67.885 0 0 0-.423-2.19c-.274-1.312-.54-2.674-.971-3.953l.021-.002c.148.583.474 1.137.716 1.687.214.486.395.998.755 1.396.112.123.391.085.373-.116-.057-.625-.361-1.204-.591-1.781-.166-.414-.303-.87-.508-1.274.227-.033.453-.07.676-.114.254.747.665 1.47.973 2.194Zm-5.135-36.365c.065-.098.128-.197.191-.296.005.01.008.02.014.028.177.279.373.542.566.808.204.28.361.556.694.676.228.082.452-.106.386-.339-.169-.594-.684-1.096-1.067-1.573a.279.279 0 0 0-.274-.103c.193-.312.382-.627.565-.946.421.524.845 1.047 1.253 1.58.292.38.548.775.765 1.204.112.223.203.452.315.67a16.862 16.862 0 0 1-4.563-.063c.443-.493.812-1.13 1.155-1.646Z" />
          <path
            d="M123.643 8.214a11.446 11.446 0 0 1-.42-.608c-.006-.009-.009-.019-.014-.028a18.61 18.61 0 0 1-.191.296c-.343.517-.712 1.153-1.155 1.646.506.076 1.014.127 1.523.157.115-.483.194-.972.257-1.463Zm.119-1.074.057-.543c-.096.16-.193.32-.291.478a.279.279 0 0 1 .234.065Zm1.142 1.697c.032.243.049.488.075.732l.012.124c.479-.017.957-.052 1.435-.11-.112-.218-.203-.447-.315-.67a7.616 7.616 0 0 0-.765-1.204 46.778 46.778 0 0 0-.657-.836c.024.655.126 1.299.215 1.964Zm-2.952 1.488c1.508.219 3.029.239 4.542.058a7.982 7.982 0 0 1-.339.401c-.174.19-.378.44-.6.628l-2.678-.003a.398.398 0 0 0-.161.033 12.756 12.756 0 0 0-.764-1.117Z" />
          <path
            d="m125.537 10.467-.097.32c-.063.206-.124.416-.19.624h.305c.222-.186.426-.437.6-.627.118-.13.23-.264.339-.4-.318.037-.638.063-.957.083Zm-1.984.861c-.067-.28-.139-.569-.203-.86a16.886 16.886 0 0 1-1.398-.143c.271.363.535.732.764 1.117a.398.398 0 0 1 .161-.033h.694a2.978 2.978 0 0 0-.018-.081Zm-3.031 28.409c1.225-.22 2.468-.35 3.712-.386 1.242-.035 2.457.082 3.687.194l-.017.135a.474.474 0 0 0-.26-.053c-.696.051-1.397.149-2.079.292-.643.134-1.285.341-1.949.313-.293-.012-.214.358.005.42.548.156 1.09.07 1.65.04.827-.044 1.655-.061 2.482-.092.009 0 .017-.003.026-.004-.036.233-.076.466-.121.696-1.146 0-2.292.123-3.44.13a37.766 37.766 0 0 1-2.769-.084c-.107-.21-.26-.393-.394-.609a8.87 8.87 0 0 1-.533-.992Z" />
          <path
            d="M123.426 40.4c-.004-.092.05-.174.19-.168.664.028 1.306-.179 1.949-.313.682-.143 1.383-.24 2.079-.292a.474.474 0 0 1 .26.053l.017-.135c-1.23-.112-2.445-.229-3.687-.194a24.905 24.905 0 0 0-3.712.386c.104.226.217.447.34.664h2.564Zm-4.881 8.634c.268-.831.556-1.656.864-2.474a62.96 62.96 0 0 1 .939-2.338c.273-.647.655-1.313.894-1.99.127.01.254.017.382.025-.118.72-.431 1.392-.601 2.098-.07.292.399.417.526.166.358-.707.474-1.505.785-2.226l.411.016c-.431 1.242-.683 2.58-.954 3.856a63.83 63.83 0 0 0-.413 2.126c-.12.684-.331 1.431-.269 2.128h-.895c.147-.342.293-.68.412-1.04.093-.28.255-.59.087-.86-.06-.095-.217-.161-.308-.065-.465.487-.545 1.304-.675 1.966h-.32c.166-.418.315-.84.435-1.275.097-.354.304-.825.053-1.144-.081-.102-.248-.125-.335-.02-.279.339-.333.784-.445 1.199-.111.413-.219.828-.334 1.241h-.626c.179-.446.259-.992.387-1.389Zm8.99-4.211c.24-.112.481-.222.724-.33l-.106-.255c-.308-.723-.719-1.446-.973-2.193a13.61 13.61 0 0 1-.676.114c.205.404.342.86.508 1.274.181.455.407.911.523 1.39Zm-.509.242c-.232-.348-.382-.747-.551-1.131-.242-.55-.568-1.104-.716-1.687l-.021.002c.334.992.569 2.034.786 3.064.167-.084.334-.167.502-.248Z" />
          <path
            d="M119.118 49.182c.112-.415.166-.86.445-1.2.087-.104.254-.081.335.021.251.32.044.79-.053 1.144-.108.39-.239.768-.384 1.144.118-.127.238-.252.361-.375.1-.535.232-1.092.583-1.46.091-.096.248-.03.308.066.109.175.078.369.018.56a16.5 16.5 0 0 1 .401-.332l.188-.148c.02-.104.04-.207.058-.309.126-.711.263-1.42.413-2.126.271-1.277.523-2.614.954-3.856l-.411-.016c-.311.721-.427 1.52-.785 2.226-.127.251-.596.126-.526-.166.17-.706.483-1.379.601-2.098a64.161 64.161 0 0 1-.382-.024c-.239.677-.621 1.342-.894 1.989a63.377 63.377 0 0 0-.939 2.338 54.217 54.217 0 0 0-.864 2.474c-.128.397-.208.943-.387 1.39h.626c.115-.414.223-.828.334-1.242Zm-3.182 2.245 8.13.009c1.386 0 2.772.005 4.158-.003.744-.004 1.49.005 2.234-.02.752-.024 1.526-.187 2.279-.215-.009.826-.018 1.652-.02 2.478-5.588-.229-11.197-.1-16.789-.12l.008-2.13Z" />
          <path
            d="m132.728 52.047.009-.85c-.753.03-1.527.192-2.279.216-.744.025-1.49.016-2.234.02-1.386.008-2.772.004-4.158.003-2.71-.002-5.42-.005-8.13-.01l-.003.621h16.795Zm.542 12.403c-.952-3.546-3.162-6.898-6.769-8.143-3.136-1.083-6.391.292-8.543 2.685-1.376 1.53-2.269 3.434-2.793 5.412a22.144 22.144 0 0 0-4.323.088c.819-1.54 1.659-3.068 2.525-4.582 1.03-1.8 2.198-3.542 3.152-5.381l1.085-.003c-.38.353-.709.761-.981 1.209-.164.27.291.443.461.226a7.039 7.039 0 0 1 1.516-1.438l.801-.003c-1.183 1.001-2.211 2.157-3.14 3.405-.187.25.295.495.468.271 1.105-1.423 2.469-2.596 3.95-3.61a.4.4 0 0 0 .076-.069c1.18-.003 2.359-.006 3.539-.007 1.107-.001 2.216.007 3.326.008.147.331.435.608.647.896.211.289.367.717.718.843.135.05.367-.044.358-.214-.021-.407-.297-.745-.536-1.06a3.475 3.475 0 0 0-.412-.466c.366 0 .731-.003 1.097-.007.387.798 1.087 1.503 1.572 2.247.222.34.432.688.644 1.035.257.421.452.953.897 1.2.149.082.39-.01.372-.201-.079-.845-.718-1.676-1.177-2.36a22.976 22.976 0 0 0-.915-1.277c-.161-.208-.325-.449-.512-.658a71.805 71.805 0 0 0 1.687-.053c.987 1.838 2.121 3.598 3.148 5.413a176.583 176.583 0 0 1 2.572 4.71 22.065 22.065 0 0 0-4.51-.115Z" />
          <path
            d="M128.807 54.983c.094.123.192.25.279.382.322.008.644.02.965.036a5.77 5.77 0 0 1-.559-.891c-.366.004-.731.006-1.097.007.151.139.285.299.412.466Zm2.317.486c.525.038 1.052.081 1.579.128a47.139 47.139 0 0 1-.643-1.154c-.562.025-1.124.041-1.687.053.187.21.351.45.512.658.081.104.16.21.239.315Zm-14.682 4.516a17.761 17.761 0 0 1 2.933-2.296c1.063-.805 2.276-1.382 3.549-1.626 1.715-.52 3.507-.699 5.298-.706-.206-.268-.465-.53-.602-.839-1.11-.001-2.219-.01-3.326-.008-1.18.001-2.359.004-3.539.007a.4.4 0 0 1-.076.069c-1.481 1.014-2.845 2.187-3.95 3.61-.173.224-.655-.02-.468-.27.929-1.25 1.957-2.405 3.14-3.406l-.801.003a7.039 7.039 0 0 0-1.516 1.438c-.17.217-.625.045-.461-.226a5.68 5.68 0 0 1 .981-1.21l-1.085.004c-.954 1.84-2.122 3.58-3.152 5.381a170.129 170.129 0 0 0-2.525 4.582 22.133 22.133 0 0 1 2.112-.148c.824-1.667 2.22-3.137 3.488-4.359Zm16.71.325c-.254-.31-.75.086-.531.415.525.786.953 1.642 1.246 2.542.176.544 1.007.263.805-.271-.371-.985-.851-1.872-1.52-2.686Zm-11.981-7.534c1.984.097 4.106.217 6.058-.204.232-.05.077-.351-.079-.387-.941-.217-1.925-.133-2.885-.106a54.758 54.758 0 0 0-3.067.193c-.301.026-.358.487-.027.504Z" />
        </mask>
        <path fill="#000"
          d="M138.904 64.89a160.77 160.77 0 0 0-3.032-5.51c-.962-1.674-1.91-3.392-3.018-4.977l.138-.006c.27-.017.424-.31.364-.513-.002-.984-.014-1.968-.025-2.951a.268.268 0 0 0-.274-.273c-.425.006-.882-.108-1.306-.142-.18-.014-.36-.025-.54-.036-.04-.62-.383-1.316-.565-1.871a56.892 56.892 0 0 0-1.862-4.906c-.261-.602-.507-1.255-.834-1.836h.002a.33.33 0 0 0 .158-.097.307.307 0 0 0 .11-.175c.083-.388.203-.773.313-1.154.086-.298.18-.594.268-.892.02-.069.098-.323.071-.24a.492.492 0 0 0-.377-.65c-.489-.09-.984-.157-1.484-.205-.192-2.142-.433-4.274-.55-6.423-.122-2.27-.184-4.541-.221-6.813-.072-4.378-.14-8.756-.211-13.134.219-.195.414-.434.585-.624a10.32 10.32 0 0 0 1.024-1.358c.162-.254.039-.716-.334-.65l-.035.005c-.119-.706-.684-1.523-1.093-2.062-.569-.75-1.191-1.461-1.789-2.19.02-1.04.01-2.26-.405-3.212-.09-.206-.485-.264-.491.028-.021 1.099.106 2.188.043 3.29a.582.582 0 0 0 .014.16 35.88 35.88 0 0 1-1.07 1.822c-.436.694-.986 1.374-1.381 2.1-.325 0-.508.377-.305.653.517.701 1.002 1.481 1.637 2.082a.234.234 0 0 0 .027.02c-.082 4.303-.158 8.606-.282 12.907-.13 4.485-.309 8.98-.91 13.43a.586.586 0 0 0 .004.183c-.515.079-1.024.17-1.526.272-.231.047-.379.36-.292.572.196.479.414.947.678 1.393.144.244.408.525.524.783-.417.578-.673 1.392-.952 2.026a49.848 49.848 0 0 0-.989 2.444 59.641 59.641 0 0 0-.811 2.286c-.2.605-.54 1.314-.61 1.979l-1.85.002c-.266 0-.512.203-.512.483.001 1.024.006 2.049.011 3.073.002.243.157.55.445.55h.008c-.496.72-.925 1.494-1.37 2.242a162.963 162.963 0 0 0-4.495 8.06c-.194.372.062.847.515.771a21.01 21.01 0 0 1 5.452-.19c.194.019.462-.093.513-.305.799-3.32 2.729-6.545 6.051-7.82.983-.376 2.075-.56 3.122-.374 1.715.305 3.282 1.258 4.474 2.508 1.46 1.531 2.365 3.513 2.864 5.55.057.233.23.425.491.4a21.043 21.043 0 0 1 5.444.17c.388.063.63-.315.451-.655Zm-12.665-27.152c-.472-.404-.966-.783-1.423-1.21.375-.333.863-.719 1.149-1.168.071.796.16 1.59.274 2.378Zm-1.785-14.674.482.562c.121.141.216.27.324.376-.119.138-.214.31-.318.448-.225.3-.455.597-.686.893a44.356 44.356 0 0 0-1.076-1.242 6.424 6.424 0 0 0 1.274-1.037Zm-1.237-2.447c.236-.274.458-.56.671-.853.376.456.758.926 1.202 1.3-.206.284-.415.563-.634.835-.39-.448-.785-.903-1.239-1.282Zm1.331 6.269c.212.254.402.551.667.746-.262.24-.472.58-.678.838-.145.183-.288.369-.431.554a50.88 50.88 0 0 1-.986-1.153c-.008-.01-.016-.016-.024-.023.379-.447.757-.896 1.131-1.348l.321.386Zm-.397 3.36c.442.516.971 1.006 1.386 1.555-.386.285-.741.639-1.082 1.007-.46-.453-.92-.935-1.41-1.357.334-.44.673-.878 1.016-1.312.031.035.059.072.09.108Zm.223 3.655c.325.32.636.646.904 1 .02.027.047.05.076.068-.348.355-.736.673-1.119.995-.356-.317-.731-.554-1.139-.791.331-.32.651-.652.973-.974.099-.1.202-.2.305-.298Zm.126 3.46c.337.341.711.72 1.123 1.012-.902-.023-1.81.013-2.712.096.217-.214.412-.456.623-.675.23-.24.463-.475.699-.708l.267.274Zm1.389-2.91c-.134-.412-.54-.81-.896-1.136.268-.258.53-.52.765-.8.04.645.082 1.291.131 1.937Zm-.232-3.725c-.263-.281-.538-.552-.787-.834l-.319-.362c.33-.385.705-.775 1.003-1.193.029.797.063 1.593.103 2.389Zm-.195-5.414.041 1.462c-.233-.312-.519-.602-.777-.885.247-.305.489-.612.728-.923l.008.346Zm-.056-2.377c-.14-.156-.288-.307-.429-.454.142-.171.277-.345.406-.52l.023.974Zm-.058-2.727c-.306-.384-.667-.738-.992-1.096.301-.42.61-.86.821-1.322a.788.788 0 0 0 .125-.008c.014.809.031 1.617.046 2.426Zm-.058-3.053c-.214-.252-.517-.443-.789-.644.266-.29.522-.59.761-.893l.028 1.537Zm-.056-3.083c-.15-.174-.304-.348-.463-.519.145-.168.293-.334.444-.497l.019 1.016Zm-.114-1.786a.504.504 0 0 0 .023.023c.006.007.013.012.02.018a.332.332 0 0 0-.201.096 20.8 20.8 0 0 0-.664.645 7.351 7.351 0 0 0-.935-.78l1.757-.002Zm-1.836.838c.151.18.309.358.469.533a9.017 9.017 0 0 0-.486.61l.017-1.143Zm-.034 2.232c.342-.382.667-.778.993-1.173.218.23.436.456.65.682-.336.38-.646.792-.972 1.179-.224-.185-.448-.37-.673-.553l.002-.134Zm-.015 1c.075.075.151.148.227.221a17.89 17.89 0 0 0-.234.275l.007-.495Zm-.021 1.4c.261-.221.519-.458.77-.707.181.163.368.355.572.503-.245.328-.448.705-.659 1.067a8.432 8.432 0 0 0-.686-.643l.003-.22Zm-.018 1.214c.093.106.188.208.277.307l-.286.405.009-.712Zm-.034 2.596c.254.313.526.614.79.915-.266.286-.544.561-.814.843l.024-1.758Zm-.051 3.794.003-.198c.219.267.441.532.662.797a61.02 61.02 0 0 0-.689.893c.01-.498.018-.995.024-1.492Zm-.073 3.48c.196.266.396.527.602.786-.221.29-.442.582-.661.875.023-.554.043-1.107.059-1.661Zm-.153 3.565c.309.359.656.694 1.005 1.028-.153.17-.305.336-.458.494-.235.243-.469.489-.7.736.06-.752.11-1.505.153-2.258Zm-.231 3.18a.307.307 0 0 0 .006-.006c.351.278.673.585.987.902-.329.302-.652.61-.967.928l-.237.236a83.9 83.9 0 0 0 .211-2.06Zm1.417 14.832c-.772 0-1.543.002-2.315.003.239-.546.24-1.234.338-1.815.123-.734.261-1.466.411-2.195.281-1.367.7-2.713.968-4.082.509.007 1.021 0 1.53-.026.285 1.365.689 2.707.975 4.073.14.673.266 1.35.383 2.026.112.656.139 1.384.357 2.016h-2.647Z" />
        <path fill="#686868"
          d="M128.153 44.239a57.063 57.063 0 0 1 2.057 5.64c.057.187.102.378.163.563l-.237-.008c-.121-.564-.498-1.1-.746-1.616a46.13 46.13 0 0 0-1.005-1.992c-.115-.211-.546-.131-.457.139.254.761.55 1.493.895 2.217.177.371.338.874.598 1.242l-.808-.002c.28-.44-.434-1.737-.576-2.075-.162-.385-.751-.046-.602.322.227.561.442 1.127.653 1.694.008.02.019.04.032.058l-.754-.002a.28.28 0 0 0 .019-.068c.08-.622-.145-1.346-.253-1.959a67.885 67.885 0 0 0-.423-2.19c-.274-1.312-.54-2.674-.971-3.953l.021-.002c.148.583.474 1.137.716 1.687.214.486.395.998.755 1.396.112.123.391.085.373-.116-.057-.625-.361-1.204-.591-1.781-.166-.414-.303-.87-.508-1.274.227-.033.453-.07.676-.114.254.747.665 1.47.973 2.194Z" />
        <path fill="#7F7F7E"
          d="M123.018 7.874c.065-.098.128-.197.191-.296.005.01.008.02.014.028.177.279.373.542.566.808.204.28.361.556.694.676.228.082.452-.106.386-.339-.169-.594-.684-1.096-1.067-1.573a.279.279 0 0 0-.274-.103c.193-.312.382-.627.565-.946.421.524.845 1.047 1.253 1.58.292.38.548.775.765 1.204.112.223.203.452.315.67a16.862 16.862 0 0 1-4.563-.063c.443-.493.812-1.13 1.155-1.646Z" />
        <path fill="#686868"
          d="M123.643 8.214a11.446 11.446 0 0 1-.42-.608c-.006-.009-.009-.019-.014-.028a18.61 18.61 0 0 1-.191.296c-.343.517-.712 1.153-1.155 1.646.506.076 1.014.127 1.523.157.115-.483.194-.972.257-1.463Zm.119-1.074.057-.543c-.096.16-.193.32-.291.478a.279.279 0 0 1 .234.065Zm1.142 1.697c.032.243.049.488.075.732l.012.124c.479-.017.957-.052 1.435-.11-.112-.218-.203-.447-.315-.67a7.616 7.616 0 0 0-.765-1.204 46.778 46.778 0 0 0-.657-.836c.024.655.126 1.299.215 1.964Zm-2.952 1.488c1.508.219 3.029.239 4.542.058a7.982 7.982 0 0 1-.339.401c-.174.19-.378.44-.6.628l-2.678-.003a.398.398 0 0 0-.161.033 12.756 12.756 0 0 0-.764-1.117Z" />
        <path fill="#515150"
          d="m125.537 10.467-.097.32c-.063.206-.124.416-.19.624h.305c.222-.186.426-.437.6-.627.118-.13.23-.264.339-.4-.318.037-.638.063-.957.083Zm-1.984.861c-.067-.28-.139-.569-.203-.86a16.886 16.886 0 0 1-1.398-.143c.271.363.535.732.764 1.117a.398.398 0 0 1 .161-.033h.694a2.978 2.978 0 0 0-.018-.081Z" />
        <path fill="#7F7F7E"
          d="M120.522 39.737c1.225-.22 2.468-.35 3.712-.386 1.242-.035 2.457.082 3.687.194l-.017.135a.474.474 0 0 0-.26-.053c-.696.051-1.397.149-2.079.292-.643.134-1.285.341-1.949.313-.293-.012-.214.358.005.42.548.156 1.09.07 1.65.04.827-.044 1.655-.061 2.482-.092.009 0 .017-.003.026-.004-.036.233-.076.466-.121.696-1.146 0-2.292.123-3.44.13a37.766 37.766 0 0 1-2.769-.084c-.107-.21-.26-.393-.394-.609a8.87 8.87 0 0 1-.533-.992Z" />
        <path fill="#A5A5A5"
          d="M123.426 40.4c-.004-.092.05-.174.19-.168.664.028 1.306-.179 1.949-.313.682-.143 1.383-.24 2.079-.292a.474.474 0 0 1 .26.053l.017-.135c-1.23-.112-2.445-.229-3.687-.194a24.905 24.905 0 0 0-3.712.386c.104.226.217.447.34.664h2.564Z" />
        <path fill="#686868"
          d="M118.545 49.034c.268-.831.556-1.656.864-2.474a62.96 62.96 0 0 1 .939-2.338c.273-.647.655-1.313.894-1.99.127.01.254.017.382.025-.118.72-.431 1.392-.601 2.098-.07.292.399.417.526.166.358-.707.474-1.505.785-2.226l.411.016c-.431 1.242-.683 2.58-.954 3.856a63.83 63.83 0 0 0-.413 2.126c-.12.684-.331 1.431-.269 2.128h-.895c.147-.342.293-.68.412-1.04.093-.28.255-.59.087-.86-.06-.095-.217-.161-.308-.065-.465.487-.545 1.304-.675 1.966h-.32c.166-.418.315-.84.435-1.275.097-.354.304-.825.053-1.144-.081-.102-.248-.125-.335-.02-.279.339-.333.784-.445 1.199-.111.413-.219.828-.334 1.241h-.626c.179-.446.259-.992.387-1.389Z" />
        <path fill="#515150"
          d="M127.535 44.823c.24-.112.481-.222.724-.33l-.106-.255c-.308-.723-.719-1.446-.973-2.193a13.61 13.61 0 0 1-.676.114c.205.404.342.86.508 1.274.181.455.407.911.523 1.39Zm-.509.242c-.232-.348-.382-.747-.551-1.131-.242-.55-.568-1.104-.716-1.687l-.021.002c.334.992.569 2.034.786 3.064.167-.084.334-.167.502-.248Zm-7.908 4.117c.112-.415.166-.86.445-1.2.087-.104.254-.081.335.021.251.32.044.79-.053 1.144-.108.39-.239.768-.384 1.144.118-.127.238-.252.361-.375.1-.535.232-1.092.583-1.46.091-.096.248-.03.308.066.109.175.078.369.018.56a16.5 16.5 0 0 1 .401-.332l.188-.148c.02-.104.04-.207.058-.309.126-.711.263-1.42.413-2.126.271-1.277.523-2.614.954-3.856l-.411-.016c-.311.721-.427 1.52-.785 2.226-.127.251-.596.126-.526-.166.17-.706.483-1.379.601-2.098a64.161 64.161 0 0 1-.382-.024c-.239.677-.621 1.342-.894 1.989a63.377 63.377 0 0 0-.939 2.338 54.217 54.217 0 0 0-.864 2.474c-.128.397-.208.943-.387 1.39h.626c.115-.414.223-.828.334-1.242Z" />
        <path fill="#7F7F7E"
          d="m115.936 51.427 8.13.009c1.386 0 2.772.005 4.158-.003.744-.004 1.49.005 2.234-.02.752-.024 1.526-.187 2.279-.215-.009.826-.018 1.652-.02 2.478-5.588-.229-11.197-.1-16.789-.12l.008-2.13Z" />
        <path fill="#A5A5A5"
          d="m132.728 52.047.009-.85c-.753.03-1.527.192-2.279.216-.744.025-1.49.016-2.234.02-1.386.008-2.772.004-4.158.003-2.71-.002-5.42-.005-8.13-.01l-.003.621h16.795Z" />
        <path fill="#7F7F7E"
          d="M133.27 64.45c-.952-3.546-3.162-6.898-6.769-8.143-3.136-1.083-6.391.292-8.543 2.685-1.376 1.53-2.269 3.434-2.793 5.412a22.144 22.144 0 0 0-4.323.088c.819-1.54 1.659-3.068 2.525-4.582 1.03-1.8 2.198-3.542 3.152-5.381l1.085-.003c-.38.353-.709.761-.981 1.209-.164.27.291.443.461.226a7.039 7.039 0 0 1 1.516-1.438l.801-.003c-1.183 1.001-2.211 2.157-3.14 3.405-.187.25.295.495.468.271 1.105-1.423 2.469-2.596 3.95-3.61a.4.4 0 0 0 .076-.069c1.18-.003 2.359-.006 3.539-.007 1.107-.001 2.216.007 3.326.008.147.331.435.608.647.896.211.289.367.717.718.843.135.05.367-.044.358-.214-.021-.407-.297-.745-.536-1.06a3.475 3.475 0 0 0-.412-.466c.366 0 .731-.003 1.097-.007.387.798 1.087 1.503 1.572 2.247.222.34.432.688.644 1.035.257.421.452.953.897 1.2.149.082.39-.01.372-.201-.079-.845-.718-1.676-1.177-2.36a22.976 22.976 0 0 0-.915-1.277c-.161-.208-.325-.449-.512-.658a71.805 71.805 0 0 0 1.687-.053c.987 1.838 2.121 3.598 3.148 5.413a176.583 176.583 0 0 1 2.572 4.71 22.065 22.065 0 0 0-4.51-.115Z" />
        <path fill="#686868"
          d="M128.807 54.983c.094.123.192.25.279.382.322.008.644.02.965.036a5.77 5.77 0 0 1-.559-.891c-.366.004-.731.006-1.097.007.151.139.285.299.412.466Zm2.317.486c.525.038 1.052.081 1.579.128a47.139 47.139 0 0 1-.643-1.154c-.562.025-1.124.041-1.687.053.187.21.351.45.512.658.081.104.16.21.239.315Zm-14.682 4.516a17.761 17.761 0 0 1 2.933-2.296c1.063-.805 2.276-1.382 3.549-1.626 1.715-.52 3.507-.699 5.298-.706-.206-.268-.465-.53-.602-.839-1.11-.001-2.219-.01-3.326-.008-1.18.001-2.359.004-3.539.007a.4.4 0 0 1-.076.069c-1.481 1.014-2.845 2.187-3.95 3.61-.173.224-.655-.02-.468-.27.929-1.25 1.957-2.405 3.14-3.406l-.801.003a7.039 7.039 0 0 0-1.516 1.438c-.17.217-.625.045-.461-.226a5.68 5.68 0 0 1 .981-1.21l-1.085.004c-.954 1.84-2.122 3.58-3.152 5.381a170.129 170.129 0 0 0-2.525 4.582 22.133 22.133 0 0 1 2.112-.148c.824-1.667 2.22-3.137 3.488-4.359Z" />
        <path fill="#000"
          d="M133.152 60.31c-.254-.31-.75.086-.531.415.525.786.953 1.642 1.246 2.542.176.544 1.007.263.805-.271-.371-.985-.851-1.872-1.52-2.686Zm-11.981-7.534c1.984.097 4.106.217 6.058-.204.232-.05.077-.351-.079-.387-.941-.217-1.925-.133-2.885-.106a54.758 54.758 0 0 0-3.067.193c-.301.026-.358.487-.027.504Z" />
        <path fill="#fff"
          d="m125.759 42.247.484-.123a.5.5 0 0 0-.531-.375l.047.498Zm.745-.088-.071-.495a.499.499 0 0 0-.375.721l.446-.226Zm.676-.114.473-.16a.499.499 0 0 0-.569-.33l.096.49Zm-4.162-34.171.416.276-.416-.276Zm.191-.296.448-.222a.5.5 0 0 0-.868-.05l.42.272Zm2.902 1.335.446-.225-.446.225Zm.044 1.871.369.338-.369-.338Zm-3.439.658-.43.255a.5.5 0 0 0 .631.203l-.201-.458Zm1.518 27.91-.014-.5.014.5Zm3.687.193.496.06a.5.5 0 0 0-.451-.557l-.045.497Zm-.017.135-.231.443a.5.5 0 0 0 .728-.382l-.497-.061Zm-.26-.053.037.499-.037-.499Zm-2.079.292.102.489-.102-.49Zm-7.02 9.115.475.154-.475-.154Zm.864-2.474-.468-.177.468.177Zm.939-2.338-.46-.195.46.195Zm.894-1.99.033-.498a.499.499 0 0 0-.504.332l.471.167Zm.382.025.493.08a.501.501 0 0 0-.464-.58l-.029.5Zm-.601 2.098.487.116-.487-.116Zm.526.166-.446-.226.446.226Zm.785-2.226.023-.5a.501.501 0 0 0-.482.301l.459.199Zm.411.016.472.164a.5.5 0 0 0-.454-.664l-.018.5Zm-.954 3.856.489.104-.489-.104Zm-1.893 1.836.393-.31-.393.31Zm-.335-.02.386.318-.386-.318Zm-.445 1.199-.483-.13.483.13Zm-.334 1.241.001.5c.225 0 .422-.15.481-.367l-.482-.133Zm-.626 0-.464-.185a.5.5 0 0 0 .464.686v-.5Zm5.908 1.013v.5-.5Zm4.158-.003.003.5-.003-.5Zm2.234-.02.016.5-.016-.5Zm-17.091 8.497-.434-.248.434.248Zm3.152-5.381-.001-.5a.499.499 0 0 0-.442.27l.443.23Zm1.085-.003.34.366a.5.5 0 0 0-.342-.866l.002.5Zm-.981 1.209.428.26-.428-.26Zm.461.226.394.308-.394-.308Zm1.516-1.438-.002-.5a.497.497 0 0 0-.285.09l.287.41Zm.801-.003.323.382a.5.5 0 0 0-.324-.882l.001.5Zm-3.14 3.405.401.299-.401-.299Zm.468.271-.395-.306.395.306Zm3.95-3.61.282.412h.001l-.283-.412Zm.076-.069-.001-.5a.498.498 0 0 0-.376.172l.377.328Zm3.539-.007v.5-.5Zm4.101.007-.001-.5a.5.5 0 0 0-.337.869l.338-.369Zm1.978-.021-.01-.5a.5.5 0 0 0-.363.833l.373-.333Zm-4.589-11.75h.007l.014-.001-.093-.996h-.006l-.014.002.092.996Zm-.51-.375c.086.336.22.653.354.943.145.31.268.546.389.821l.916-.403c-.121-.274-.282-.59-.398-.84a4.505 4.505 0 0 1-.292-.768l-.969.247Zm2.202.876c-.142-.354-.31-.887-.526-1.315l-.892.453c.193.381.3.76.489 1.233l.929-.37Zm-.902-.593c.234-.034.469-.072.702-.118l-.192-.981c-.214.042-.431.077-.651.109l.141.99Zm.133-.448c.136.403.313.792.487 1.16.179.375.35.719.499 1.069l.92-.393c-.159-.374-.348-.753-.515-1.106a10.05 10.05 0 0 1-.445-1.051l-.946.321ZM123.434 8.15c.068-.101.135-.208.195-.3l-.84-.543c-.067.104-.125.195-.188.29l.833.553Zm-.672-.35a.083.083 0 0 1-.006-.012l.001.002.003.007a.547.547 0 0 0 .041.077l.845-.535a.362.362 0 0 1 .026.048c0 .001 0 .001 0 0l-.003-.005a.317.317 0 0 0-.012-.026l-.895.445Zm2.187.213c.276.36.515.728.715 1.125l.893-.45a8.113 8.113 0 0 0-.814-1.283l-.794.608Zm.715 1.125c.051.1.097.203.149.317.05.111.105.234.168.356l.889-.457a7.015 7.015 0 0 1-.146-.31c-.05-.11-.105-.233-.167-.356l-.893.45Zm-3.429.716c.475-.53.881-1.225 1.199-1.704l-.833-.553c-.368.555-.699 1.132-1.11 1.588l.744.669Zm3.869.217c-.106.132-.21.257-.318.376l.738.675c.128-.141.248-.285.361-.427l-.781-.624Zm-.318.376c-.203.222-.364.423-.553.582l.643.766c.257-.216.503-.515.648-.673l-.738-.675Zm-2.909.462a.899.899 0 0 0-.362.075l.402.916a.104.104 0 0 1-.041.009l.001-1Zm.269.278a12.994 12.994 0 0 0-.793-1.16l-.801.598c.268.358.519.71.734 1.072l.86-.51ZM120.61 40.23a24.404 24.404 0 0 1 3.638-.378l-.028-1a25.407 25.407 0 0 0-3.787.394l.177.984Zm3.638-.378c1.207-.034 2.391.08 3.627.192l.091-.995c-1.222-.113-2.469-.232-3.746-.196l.028 1Zm3.176-.365-.016.133.993.122.016-.136-.993-.12Zm.712-.25a.975.975 0 0 0-.528-.107l.073.997h-.002l-.004-.002-.002-.001.463-.886Zm-.528-.107a16.36 16.36 0 0 0-2.146.3l.205.979a15.32 15.32 0 0 1 2.014-.282l-.073-.997Zm-2.146.3c-.714.15-1.244.328-1.825.304l-.042.999c.747.031 1.5-.204 2.072-.324l-.205-.979Zm-6.442 9.759c.266-.824.552-1.642.857-2.452l-.936-.352a53.925 53.925 0 0 0-.872 2.497l.951.307Zm.857-2.452a62.62 62.62 0 0 1 .932-2.32l-.921-.389a64.292 64.292 0 0 0-.947 2.356l.936.353Zm.932-2.32c.13-.309.286-.62.45-.96.16-.335.325-.69.455-1.056l-.943-.334a9.67 9.67 0 0 1-.414.956c-.155.322-.327.667-.469 1.005l.921.389Zm.4-1.684.385.024.059-.998a72.294 72.294 0 0 1-.378-.024l-.066.998Zm-.079-.556a6.567 6.567 0 0 1-.262.978c-.11.334-.24.705-.331 1.084l.973.233c.078-.327.189-.645.308-1.004a7.6 7.6 0 0 0 .299-1.13l-.987-.161Zm-.593 2.062a.715.715 0 0 0 .119.598.79.79 0 0 0 .415.285c.263.077.713.043.924-.374l-.892-.452a.262.262 0 0 1 .151-.13.167.167 0 0 1 .099-.003.21.21 0 0 1 .108.08.29.29 0 0 1 .049.23l-.973-.234Zm1.458.51c.201-.398.331-.814.443-1.192.117-.39.214-.736.356-1.063l-.919-.397c-.17.395-.286.81-.395 1.175-.113.378-.22.715-.377 1.024l.892.452Zm.317-1.954.415.017.036-1a38.25 38.25 0 0 1-.406-.016l-.045.999Zm-.039-.647c-.445 1.28-.704 2.657-.971 3.916l.978.208c.275-1.295.519-2.591.937-3.796l-.944-.328Zm-.971 3.916a62.44 62.44 0 0 0-.416 2.143l.985.174a62.86 62.86 0 0 1 .409-2.11l-.978-.207Zm-.166 2.194a.755.755 0 0 0-.428-.32.66.66 0 0 0-.665.174l.724.69a.342.342 0 0 1-.333.097.242.242 0 0 1-.145-.11l.847-.531Zm-.809 1.023c.032-.117.131-.403.169-.639.041-.257.047-.626-.205-.947l-.786.618c.002.003.007.009.01.03a.453.453 0 0 1-.007.14c-.011.07-.031.148-.058.24-.023.077-.062.201-.087.292l.964.265Zm-.036-1.586a.739.739 0 0 0-.515-.277.692.692 0 0 0-.598.248l.771.636a.307.307 0 0 1-.259.112.261.261 0 0 1-.185-.1l.786-.62Zm-1.113-.03a2.1 2.1 0 0 0-.379.744 5.488 5.488 0 0 0-.09.343c-.027.11-.048.206-.074.3l.966.26c.03-.112.057-.228.081-.328.024-.104.048-.197.074-.284.053-.174.112-.3.193-.398l-.771-.636Zm-.543 1.388c-.113.419-.219.827-.332 1.238l.963.266c.115-.414.225-.836.335-1.244l-.966-.26Zm.149.871h-.627l.001 1h.627l-.001-1Zm-.162.687c.104-.26.176-.54.234-.783.063-.258.108-.465.164-.64l-.951-.306c-.072.222-.13.486-.185.712a4.8 4.8 0 0 1-.19.645l.928.372Zm-2.687 1.317c2.71.004 5.42.007 8.131.009v-1c-2.71-.002-5.42-.005-8.13-.01l-.001 1Zm8.131.009c1.384 0 2.773.005 4.161-.003l-.006-1c-1.384.008-2.767.004-4.155.003v1Zm4.161-.003c.732-.004 1.495.005 2.247-.02l-.033-1c-.734.025-1.464.016-2.22.02l.006 1Zm2.247-.02c.403-.013.806-.063 1.185-.11.386-.048.746-.092 1.097-.106l-.038-.999c-.402.015-.805.066-1.182.113-.386.048-.745.091-1.095.103l.033 1Zm-19.19 12.813a167.901 167.901 0 0 1 2.517-4.567l-.868-.497a169.413 169.413 0 0 0-2.532 4.595l.883.47Zm2.517-4.567c1.001-1.75 2.206-3.558 3.162-5.4l-.887-.46c-.954 1.836-2.084 3.511-3.143 5.363l.868.497Zm2.72-5.13.542-.002.542-.001-.003-1-.542.001-.542.002.003 1Zm.742-.87a6.205 6.205 0 0 0-1.067 1.316l.855.52c.249-.411.549-.783.893-1.103l-.681-.733Zm-1.067 1.316a.688.688 0 0 0-.052.64.734.734 0 0 0 .385.374c.248.108.679.125.949-.22l-.788-.616a.244.244 0 0 1 .149-.092.156.156 0 0 1 .089.011.27.27 0 0 1 .132.142.345.345 0 0 1 .027.166.287.287 0 0 1-.036.114l-.855-.519Zm1.282.794a6.512 6.512 0 0 1 1.409-1.337l-.574-.819a7.525 7.525 0 0 0-1.623 1.54l.788.616Zm1.123-1.246.802-.003-.003-1-.802.003.003 1Zm.477-.885c-1.219 1.032-2.272 2.218-3.218 3.489l.802.597c.912-1.226 1.914-2.351 3.062-3.322l-.646-.764Zm-3.218 3.489a.677.677 0 0 0-.094.662.778.778 0 0 0 .356.389c.22.12.698.217 1.002-.175l-.79-.613a.27.27 0 0 1 .188-.105.131.131 0 0 1 .076.014.227.227 0 0 1 .098.121.34.34 0 0 1 .019.17.297.297 0 0 1-.053.134l-.802-.597Zm1.264.876c1.064-1.371 2.385-2.51 3.837-3.505l-.565-.825c-1.51 1.035-2.916 2.241-4.062 3.716l.79.614Zm3.838-3.505a.888.888 0 0 0 .17-.153l-.754-.656.005-.005.013-.01.566.824Zm-.206.02c1.18-.004 2.359-.007 3.538-.008l-.001-1c-1.18.001-2.36.004-3.539.007l.002 1Zm3.538-.008c1.109-.001 2.21.007 3.325.008l.001-1c-1.103-.001-2.221-.01-3.327-.008l.001 1Zm4.912-.329a3.987 3.987 0 0 0-.473-.532l-.676.737c.12.11.233.243.352.4l.797-.605Zm-.809.336c.367 0 .734-.003 1.1-.007l-.011-1c-.364.004-.728.006-1.092.007l.003 1Zm2.883-.169c-.134-.173-.333-.46-.534-.686l-.746.667c.173.193.301.388.489.631l.791-.612Zm-.897.148a72.078 72.078 0 0 0 1.699-.053l-.044-.999c-.557.024-1.115.04-1.675.052l.02 1Zm8.521 9.894.886-.465h-.001l-.885.465Zm-3.032-5.51-.867.498.867-.499Zm-3.018-4.977-.057-.998a1 1 0 0 0-.763 1.572l.82-.573Zm.138-.006-.06-.999.06.998Zm.364-.513-1 .001c0 .096.013.191.041.283l.959-.284Zm-.025-2.951-1 .011 1-.011Zm-.274-.273-.013-1 .013 1Zm-1.306-.142.079-.996-.079.996Zm-.54-.036-.998.066c.034.504.437.904.941.933l.057-.999Zm-.565-1.871.951-.311-.951.31Zm-1.862-4.906.917-.398-.917.398Zm-.834-1.836-.234-.972a.998.998 0 0 0-.637 1.462l.871-.49Zm.002 0 .235.971.023-.006-.258-.966Zm.158-.097-.632-.775a.964.964 0 0 0-.094.088l.726.687Zm.11-.175.978.21-.978-.21Zm.313-1.154-.961-.279.961.279Zm.268-.892-.959-.283.959.283Zm.071-.24-.949-.318a1 1 0 0 0 1.897.637l-.948-.319Zm-.377-.65-.182.983.182-.983Zm-1.484-.205-.996.089a1 1 0 0 0 .9.906l.096-.995Zm-.55-6.423-.998.054.998-.054Zm-.221-6.813 1-.017-1 .017Zm-.211-13.134-.666-.745a1 1 0 0 0-.334.761l1-.016Zm.585-.624-.744-.669.744.669Zm1.024-1.358.843.537-.843-.537Zm-.334-.65.172.984h.001l-.173-.985Zm-.035.005-.986.166a1.001 1.001 0 0 0 1.154.82l-.168-.986Zm-1.093-2.062-.797.604.797-.604Zm-1.789-2.19-.999-.018a.996.996 0 0 0 .227.653l.772-.634Zm-.405-3.212-.917.4.917-.4Zm-.491.028-.999-.019.999.02Zm.043 3.29-.998-.057.998.057Zm.014.16.877.481c.117-.213.152-.462.099-.7l-.976.219Zm-1.07 1.822-.846-.532.846.532Zm-1.381 2.1-.004 1a1 1 0 0 0 .882-.522l-.878-.477Zm-.305.653.805-.593-.805.593Zm1.637 2.082-.687.726.687-.726Zm.027.02.999.02a.998.998 0 0 0-.401-.821l-.598.801Zm-.282 12.907-1-.029 1 .03Zm-.91 13.43-.991-.134.991.134Zm.004.183.151.989a1 1 0 0 0 .832-1.172l-.983.183Zm-1.526.272.2.98-.2-.98Zm-.292.572-.925.38.925-.38Zm.678 1.393.861-.51h-.001l-.86.51Zm.524.783.811.586a1 1 0 0 0 .101-.995l-.912.41Zm-.952 2.026-.915-.402.915.402Zm-.989 2.444.935.353-.935-.353Zm-.811 2.286-.949-.315.949.315Zm-.61 1.979.001 1a1 1 0 0 0 .993-.895l-.994-.105Zm-1.85.002.002 1-.002-1Zm-.512.483-1 .001 1-.001Zm.011 3.073-1 .006 1-.006Zm.445.55v-1h-.003l.003 1Zm.008 0 .824.566a1.001 1.001 0 0 0-.824-1.567v1Zm-1.37 2.242.859.511-.859-.511Zm-1.515 2.598.868.496-.868-.496Zm-2.98 5.462.886.463-.886-.463Zm.515.771-.163-.986.163.986Zm5.452-.19-.094.996.094-.996Zm.513-.305.972.234-.972-.234Zm6.051-7.82-.357-.933h-.001l.358.934Zm3.122-.374.174-.985-.174.985Zm4.474 2.508.724-.69-.724.69Zm2.864 5.55-.971.238.971-.238Zm.491.4.097.995-.097-.996Zm5.444.17-.161.987.161-.987Zm-12.214-27.807-.65.76a1 1 0 0 0 1.64-.904l-.99.144Zm-1.423-1.21-.665-.746a1.003 1.003 0 0 0-.017 1.478l.682-.731Zm1.149-1.168.996-.09a1.001 1.001 0 0 0-1.84-.447l.844.537Zm-1.511-12.296.76-.65a1.001 1.001 0 0 0-1.476-.047l.716.697Zm.482.562.758-.651-.758.651Zm.324.376.757.654a1 1 0 0 0-.057-1.368l-.7.714Zm-.318.448.8.601-.8-.601Zm-.686.893-.764.645a1 1 0 0 0 1.554-.03l-.79-.615Zm-1.076-1.242-.515-.858a1.001 1.001 0 0 0-.225 1.53l.74-.672Zm.037-3.484-.757-.652a1 1 0 0 0 .117 1.42l.64-.768Zm.671-.853.77-.637a.998.998 0 0 0-1.579.048l.809.589Zm1.202 1.3.809.589a1 1 0 0 0-.164-1.352l-.645.764Zm-.634.835-.756.655a1 1 0 0 0 1.533-.026l-.777-.629Zm.092 4.987-.768.64.768-.64Zm.667.746.674.74a1 1 0 0 0-.081-1.545l-.593.805Zm-.678.838.783.623-.783-.623Zm-.431.554-.753.659a1 1 0 0 0 1.541-.045l-.788-.614Zm-.986-1.153-.772.636.772-.636Zm-.024-.023-.763-.647a1 1 0 0 0 .088 1.384l.675-.737Zm1.131-1.348.769-.64a1.002 1.002 0 0 0-1.54.003l.771.637Zm-.076 3.747.759-.651-.759.65Zm1.386 1.554.594.805a1.003 1.003 0 0 0 .204-1.407l-.798.602Zm-1.082 1.007-.703.712a1 1 0 0 0 1.436-.032l-.733-.68Zm-1.41-1.357-.797-.604a1 1 0 0 0 .144 1.362l.653-.758Zm1.016-1.312.764-.646a1.002 1.002 0 0 0-1.548.026l.784.62Zm.313 3.762.702-.713a1 1 0 0 0-1.392-.01l.69.723Zm.904 1 .798-.603-.798.603Zm.076.068.714.7a1.002 1.002 0 0 0-.194-1.554l-.52.854Zm-1.119.995-.667.746a1 1 0 0 0 1.31.02l-.643-.766Zm-1.139-.791-.695-.719a1 1 0 0 0 .192 1.583l.503-.864Zm.973-.974.708.706-.708-.706Zm.431 3.161-.713.702.713-.702Zm1.123 1.013-.025 1a1 1 0 0 0 .604-1.816l-.579.816Zm-2.712.096-.703-.711a1 1 0 0 0 .795 1.707l-.092-.996Zm.623-.675.72.693-.72-.693Zm.699-.708.72-.694a.998.998 0 0 0-1.422-.017l.702.711Zm1.656-2.634-.951.31a1 1 0 0 0 1.948-.386l-.997.076Zm-.896-1.137-.692-.722a1 1 0 0 0 .017 1.46l.675-.738Zm.765-.8.998-.061a.999.999 0 0 0-1.761-.584l.763.646Zm-.101-1.79-.729.685a.999.999 0 0 0 1.728-.735l-.999.05Zm-.787-.834-.75.662.75-.662Zm-.319-.361-.759-.652a1 1 0 0 0 .009 1.314l.75-.662Zm1.003-1.193.999-.036a1 1 0 0 0-1.813-.545l.814.58Zm-.092-3.025-.999.026.999-.026Zm.041 1.462-.801.598a1 1 0 0 0 1.8-.628l-.999.03Zm-.777-.885-.778-.628c-.31.384-.293.937.039 1.302l.739-.674Zm.728-.923 1-.025a1 1 0 0 0-1.793-.584l.793.61Zm-.048-2.03-.743.668a1 1 0 0 0 1.743-.691l-1 .022Zm-.429-.456-.77-.637a1 1 0 0 0 .047 1.328l.723-.69Zm.406-.518 1-.021a1 1 0 0 0-1.803-.574l.803.595Zm-.035-1.754-.781.623a1 1 0 0 0 1.781-.643l-1 .02Zm-.992-1.096-.813-.583a1 1 0 0 0 .073 1.256l.74-.673Zm.821-1.322.006-1a1 1 0 0 0-.915.584l.909.416Zm.125-.008.999-.018a1 1 0 0 0-1.154-.97l.155.988Zm-.012-.627-.761.649a1.001 1.001 0 0 0 1.761-.667l-1 .018Zm-.789-.644-.737-.675a.997.997 0 0 0 .144 1.48l.593-.805Zm.761-.893 1-.018a1 1 0 0 0-1.784-.602l.784.62Zm-.028-1.546-.756.654a.998.998 0 0 0 1.755-.673l-.999.019Zm-.463-.519-.758-.652a1 1 0 0 0 .024 1.331l.734-.679Zm.444-.497 1-.018a1.001 1.001 0 0 0-1.734-.66l.734.678Zm-.095-.77.72-.694a1 1 0 0 0-.721-.306l.001 1Zm.023.023.719-.694-.002-.002-.717.696Zm.02.018.079.997a1 1 0 0 0 .582-1.747l-.661.75Zm-.201.096-.682-.731.682.731Zm-.664.645-.696.718a1 1 0 0 0 1.41-.018l-.714-.7Zm-.935-.78-.001-1a1 1 0 0 0-.567 1.823l.568-.823Zm-.079.835.766-.642a1 1 0 0 0-1.766.627l1 .015Zm.469.534.756.655a1 1 0 0 0-.017-1.329l-.739.674Zm-.486.61-1-.015a.999.999 0 0 0 1.81.6l-.81-.585Zm-.017 1.09-.746-.667c-.16.18-.25.41-.254.65l1 .017Zm.993-1.174.725-.69a1.001 1.001 0 0 0-1.496.053l.771.637Zm.65.682.75.66a1 1 0 0 0-.024-1.347l-.726.687Zm-.972 1.179-.635.772a1 1 0 0 0 1.4-.128l-.765-.644Zm-.673-.553-1-.014c-.004.304.131.594.366.787l.634-.773Zm-.013.866.708-.706a.999.999 0 0 0-1.708.69l1 .016Zm.227.22.757.653a1 1 0 0 0-.067-1.377l-.69.724Zm-.234.275-1-.014a1 1 0 0 0 1.768.654l-.768-.64Zm-.014.903-.645-.763a1 1 0 0 0-.355.75l1 .013Zm.77-.706.669-.743a1 1 0 0 0-1.373.033l.704.71Zm.572.503.802.597a1.003 1.003 0 0 0-.214-1.406l-.588.809Zm-.659 1.067-.72.694a1 1 0 0 0 1.583-.19l-.863-.505Zm-.686-.643-1-.014a1 1 0 0 0 .362.784l.638-.77Zm-.015.994.753-.658a1 1 0 0 0-1.753.644l1 .014Zm.277.307.82.572a1 1 0 0 0-.078-1.242l-.742.67Zm-.286.405-1-.014a1 1 0 0 0 1.812.598l-.812-.584Zm-.025 1.884.777-.63a1 1 0 0 0-1.777.617l1 .013Zm.79.915.733.681a1 1 0 0 0 .019-1.34l-.752.66Zm-.814.843-1-.013a1.001 1.001 0 0 0 1.724.704l-.724-.69Zm-.027 2.036-1-.014 1 .014Zm.003-.198.773-.634a1 1 0 0 0-1.773.622l1 .012Zm.662.797.788.616a1 1 0 0 0-.02-1.257l-.768.64Zm-.689.893-1-.02a1 1 0 0 0 1.798.622l-.798-.602Zm-.049 1.988.806-.593a1 1 0 0 0-1.805.563l.999.03Zm.602.786.796.605a1 1 0 0 0-.014-1.229l-.782.624Zm-.661.875-.999-.042a1 1 0 0 0 1.8.64l-.801-.598Zm-.094 1.904.758-.653a1 1 0 0 0-1.756.596l.998.057Zm1.005 1.028.743.67a1 1 0 0 0-.052-1.393l-.691.723Zm-.458.494.718.696-.718-.696Zm-.7.736-.997-.08a1 1 0 0 0 1.727.763l-.73-.683Zm-.078.921-.663-.748a.992.992 0 0 0-.333.659l.996.09Zm.006-.005.62-.785a1 1 0 0 0-1.306.056l.686.729Zm.987.902.676.737a.997.997 0 0 0 .035-1.44l-.711.703Zm-.967.928.711.704-.711-.704Zm-.237.236-.994-.115a1.001 1.001 0 0 0 1.702.821l-.708-.706Zm1.628 12.772.001 1-.001-1Zm-2.315.003-.916-.4a1 1 0 0 0 .917 1.4l-.001-1Zm.338-1.815-.987-.166.987.166Zm.411-2.195-.98-.201.98.201Zm.968-4.082.013-1a1 1 0 0 0-.994.808l.981.192Zm1.53-.026.979-.204a1 1 0 0 0-1.031-.794l.052.998Zm.975 4.073-.979.205.979-.205Zm.383 2.026-.986.17.986-.17Zm.357 2.016-.001 1a1.001 1.001 0 0 0 .946-1.326l-.945.326Zm1.435-6.178.92-.392a1 1 0 1 0-1.84.783l.92-.392Zm.864 2.147-.936.354.936-.354Zm.809 2.284.95-.314-.95.314Zm.384 1.208.957-.29-.957.29Zm.163.564-.037 1a1 1 0 0 0 .987-1.31l-.95.31Zm-.237-.008-.978.21a1 1 0 0 0 .953.79l.025-1Zm-.746-1.616-.901.435.901-.435Zm-1.005-1.992-.879.477.879-.477Zm-.457.139-.948.316.948-.316Zm.895 2.217.903-.43-.903.43Zm.598 1.242-.004 1a1 1 0 0 0 .821-1.577l-.817.577Zm-.808-.002-.843-.538a1 1 0 0 0 .841 1.538l.002-1Zm-.576-2.075.922-.387-.922.387Zm-.602.322.927-.375-.927.375Zm.653 1.694.937-.349-.937.349Zm.032.058-.005 1a1.001 1.001 0 0 0 .818-1.582l-.813.582Zm-.754-.002-.931-.363a.998.998 0 0 0 .929 1.363l.002-1Zm.019-.068-.992-.128.992.128Zm-.253-1.959.985-.172-.985.172Zm-.423-2.19.979-.205-.979.205Zm-.971-3.953.948-.32a1 1 0 0 0-1.896.64l.948-.32Zm.737 1.685.915-.403a1 1 0 1 0-1.83.806l.915-.403Zm.755 1.396-.74.672.74-.672Zm.373-.116.996-.09-.996.09Zm-.591-1.781.928-.371a.999.999 0 1 0-1.857.742l.929-.371Zm-3.789-35.827.845-.535a1.001 1.001 0 0 0-1.689 1.071l.844-.536Zm.566.808.809-.588-.809.588Zm.694.676-.339.94.339-.94Zm.386-.339.962-.274-.962.274Zm-1.067-1.573.78-.626-.78.626Zm-.274-.103-.851-.526a1.002 1.002 0 0 0 1.012 1.513l-.161-.987Zm.565-.946.78-.626a1 1 0 0 0-1.646.127l.866.5Zm1.253 1.58-.794.608A1 1 0 0 0 126.14 7.1l-.794.608Zm1.08 1.874.121.992a1 1 0 0 0-.242-1.985l.121.993Zm-4.563-.063.149-.99a1 1 0 1 0-.298 1.978l.149-.988Zm1.78-1.306.992.125a1.004 1.004 0 0 0-.183-.714l-.809.589Zm-.257 1.463-.059.998a1 1 0 0 0 1.032-.766l-.973-.232Zm.376-2.537-.656.755a1 1 0 0 0 1.651-.653l-.995-.102Zm.057-.543.994.106a1 1 0 0 0-1.853-.62l.859.514Zm1.085 2.24-.991.133.991-.133Zm.075.732.994-.103-.994.103Zm.012.124-.995.1a1 1 0 0 0 1.031.9l-.036-1Zm-.302-2.82.781-.624a1 1 0 0 0-1.78.661l.999-.037Zm-2.737 3.452.144-.99a1 1 0 1 0-.287 1.98l.143-.99Zm4.661 1.051a.999.999 0 1 0-.237-1.986l.237 1.986Zm-1.058.036-.002 1a1 1 0 1 0 .003-2l-.001 1Zm-2.678-.003.001-1a1 1 0 1 0-.002 2l.001-1Zm2.66-.942-.062-.998a1 1 0 0 0-.895.71l.957.288Zm-.097.32.957.292-.957-.293Zm-.19.624-.953-.3a1 1 0 0 0 .952 1.3l.001-1Zm-1.697-.083-.972.232.972-.232Zm-.203-.86.977-.214a1 1 0 0 0-.914-.784l-.063.998Zm.221.941-.001 1a.999.999 0 0 0 .981-1.203l-.98.203Zm-3.049 28.328.907-.42a1 1 0 1 0-1.815.84l.908-.42Zm3.094.495-.042 1a1 1 0 0 0 .084-1.999l-.042 1Zm.005.42.273-.962-.273.962Zm1.65.04.053 1h.001l-.054-1Zm2.482-.092.038.999-.038-1Zm.026-.004.988.153a.998.998 0 0 0-1.066-1.15l.078.997Zm-.121.696v1a1 1 0 0 0 .982-.81l-.982-.19Zm-3.44.13-.007-1 .007 1Zm-2.769-.084-.891.455a1 1 0 0 0 .824.543l.067-.998Zm-.394-.609-.849.529.849-.529Zm2.371-.328v1a1 1 0 0 0 .999-1.048l-.999.048Zm-2.564 0-.872.49a1 1 0 0 0 .872.51v-1Zm.516 7.892.985.174a1 1 0 1 0-1.969-.348l.984.174Zm-.269 2.128.001 1a1.002 1.002 0 0 0 .995-1.088l-.996.088Zm-.895 0-.919-.394a1 1 0 0 0 .92 1.395l-.001-1Zm.412-1.04-.949-.315.949.315Zm.087-.86.847-.53a1 1 0 1 0-1.695 1.061l.848-.53Zm-.308-.065.724.69a1 1 0 1 0-1.448-1.38l.724.69Zm-.675 1.966.001 1a1 1 0 0 0 .98-.807l-.981-.193Zm-.32 0-.929-.368a1 1 0 0 0 .93 1.368l-.001-1Zm.435-1.275.964.265a1 1 0 1 0-1.928-.531l.964.266Zm7.69-4.324-.972.235a1 1 0 0 0 1.395.67l-.423-.905Zm.724-.33.403.915a1 1 0 0 0 .519-1.302l-.922.387Zm-1.233.572.437.9a1.003 1.003 0 0 0 .394-1.457l-.831.556Zm-.502.248-.979.206a1 1 0 0 0 1.43.687l-.451-.893Zm-7.063 4.978-.933-.361a1 1 0 0 0 1.665 1.041l-.732-.68Zm.361-.375.706.709c.144-.143.24-.327.278-.526l-.984-.183Zm.909-.834-.954-.302a1.002 1.002 0 0 0 1.602 1.063l-.648-.761Zm.401-.332-.626-.78.626.78Zm.188-.148.618.786a.998.998 0 0 0 .362-.59l-.98-.196Zm-5.384 2.825 1 .002a1 1 0 0 0-2-.005l1 .003Zm16.801-.23 1 .012a1 1 0 0 0-2-.022l1 .01Zm-.02 2.48-.041.998a1 1 0 0 0 1.041-.996l-1-.003Zm-16.789-.12-1-.005a1 1 0 0 0 .996 1.004l.004-1Zm16.8-1.51v1a1 1 0 0 0 1-.99l-1-.01Zm-16.795 0-1-.003a.998.998 0 0 0 1 1.003v-1Zm17.337 12.404-.966.259a1 1 0 0 0 1.043.738l-.077-.997Zm-6.769-8.144-.327.945.327-.945Zm-8.543 2.685.743.669-.743-.67Zm-2.793 5.412-.077.997a1 1 0 0 0 1.044-.74l-.967-.257Zm-4.323.088-.118-.994a1 1 0 0 0 .236 1.986l-.118-.992Zm16.778-9.974.914-.406a1 1 0 0 0-1.828.812l.914-.406Zm.647.896-.806.593.806-.593Zm.718.843.34-.94-.34.94Zm.358-.214.998-.052-.998.052Zm-.536-1.06.797-.604a1 1 0 0 0-1.593 1.209l.796-.605Zm.685-.473.9-.437a1.001 1.001 0 0 0-1.8.873l.9-.436Zm1.572 2.247-.838.546.838-.546Zm.644 1.035.854-.52-.854.52Zm.897 1.2.486-.875-.486.875Zm.372-.201-.996.093.996-.093Zm-1.177-2.36-.831.557.831-.557Zm-.915-1.277.791-.612a1 1 0 0 0-1.582 1.224l.791-.612Zm1.175-.71.881-.474a1 1 0 1 0-1.762.947l.881-.474Zm3.148 5.412-.87.493.87-.493Zm2.572 4.71-.127.991a1 1 0 0 0 1.012-1.458l-.885.466Zm-8.694-9.2-.836.548a1 1 0 0 0 .812.45l.024-.999Zm.965.035-.051 1a1 1 0 0 0 .856-1.593l-.805.593Zm1.073.068-.803.596c.173.234.44.38.73.401l.073-.997Zm1.579.128-.089.996a1 1 0 0 0 .957-1.493l-.868.497Zm-16.261 4.388-.694-.72.694.72Zm2.933-2.296.528.85a.914.914 0 0 0 .075-.053l-.603-.797Zm3.549-1.626.189.982a1.24 1.24 0 0 0 .101-.025l-.29-.957Zm5.298-.706.005 1a1.002 1.002 0 0 0 .788-1.61l-.793.61Zm-15.268 8.987.022 1a1 1 0 0 0 .874-.557l-.896-.443Zm20.198-4.034-.773.634.773-.634Zm-.531.415.832-.556h-.001l-.831.556Zm1.246 2.542.951-.309-.951.31Zm.805-.271.936-.353-.936.353Zm-13.501-10.22.049-1-.049 1Zm6.058-.204.211.978-.211-.978Zm-.079-.387-.225.974h.001l.224-.974Zm-2.885-.106-.028-1 .028 1Zm-3.067.193.084.997-.084-.997Zm18.591 12.153a161.11 161.11 0 0 0-3.05-5.544l-1.734.997a158.676 158.676 0 0 1 3.013 5.476l1.771-.929Zm-3.05-5.544c-.948-1.65-1.925-3.42-3.066-5.05l-1.639 1.146c1.077 1.538 1.996 3.205 2.971 4.9l1.734-.996Zm-3.829-3.48a3.93 3.93 0 0 1 .059-.002l.083-.004-.12-1.997c-.082.005-.02 0-.135.007l.113 1.997Zm.142-.006c.51-.03.883-.326 1.087-.644.192-.298.303-.72.175-1.15l-1.917.567a.595.595 0 0 1 .059-.498.611.611 0 0 1 .476-.272l.12 1.997Zm1.304-1.512c-.002-.99-.014-1.98-.025-2.962l-2 .023c.011.985.023 1.964.025 2.941l2-.002Zm-.025-2.962a1.269 1.269 0 0 0-1.287-1.26l.025 2a.732.732 0 0 1-.738-.717l2-.023Zm-1.287-1.26a3.316 3.316 0 0 1-.497-.047c-.189-.027-.462-.072-.717-.092l-.159 1.993c.17.014.338.042.589.079.226.032.513.07.809.066l-.025-2Zm-1.214-.14c-.19-.015-.378-.026-.561-.037l-.115 1.997c.176.01.348.02.517.034l.159-1.993Zm.379.896c-.029-.451-.164-.886-.284-1.228-.152-.429-.231-.594-.328-.89l-1.901.623c.085.26.268.72.343.933.106.301.163.525.174.693l1.996-.131Zm-.612-2.117a57.355 57.355 0 0 0-.89-2.519l-1.87.71c.305.804.592 1.614.859 2.431l1.901-.622Zm-.89-2.519a57.957 57.957 0 0 0-1.006-2.474l-1.835.795c.342.789.666 1.586.971 2.39l1.87-.71Zm-1.006-2.474c-.233-.538-.518-1.287-.879-1.928l-1.743.98c.293.522.499 1.08.787 1.743l1.835-.795Zm-1.516-.466h.002l-.47-1.945h-.001l.469 1.945Zm.025-.007c.268-.071.477-.216.627-.375l-1.453-1.374a.656.656 0 0 1 .31-.183l.516 1.932Zm.533-.288c.2-.163.384-.41.455-.739l-1.956-.42a.693.693 0 0 1 .236-.39l1.265 1.55Zm.455-.739c.074-.343.178-.68.295-1.086l-1.921-.557c-.103.357-.237.79-.33 1.223l1.956.42Zm.295-1.086c.091-.312.167-.548.267-.887l-1.918-.566c-.076.257-.187.612-.27.896l1.921.557Zm.267-.886.051-.171.026-.086.01-.04.007-.027a1.09 1.09 0 0 0 .014-.078c.002-.015.009-.065.009-.13a.948.948 0 0 0-.015-.185c-.009-.046-.051-.296-.266-.518a1.75 1.75 0 0 0-.557-.292 1.765 1.765 0 0 0-.541.062.999.999 0 0 0-.366.259c-.08.09-.125.174-.131.185-.027.048-.043.088-.046.094a.43.43 0 0 0-.012.03l-.01.028-.01.027 1.897.636-.002.004-.007.021-.012.03a.999.999 0 0 1-.045.092c-.006.011-.051.096-.131.185a.999.999 0 0 1-.366.26 1.762 1.762 0 0 1-.541.06 1.735 1.735 0 0 1-.557-.291.998.998 0 0 1-.266-.519 1.069 1.069 0 0 1-.016-.184c.001-.065.008-.115.01-.13a.623.623 0 0 1 .014-.076l.006-.026a.121.121 0 0 1 .005-.02l.001-.004-.004.015-.012.039-.055.183 1.918.566Zm.06-.205a1.492 1.492 0 0 0-1.143-1.952l-.364 1.966a.51.51 0 0 1-.39-.65l1.897.636Zm-1.143-1.952a18.105 18.105 0 0 0-1.57-.218l-.192 1.991c.475.046.942.109 1.398.193l.364-1.966Zm-.67.688c-.194-2.173-.432-4.262-.547-6.387l-1.997.108c.117 2.172.363 4.348.552 6.458l1.992-.179Zm-.547-6.387c-.122-2.252-.183-4.51-.22-6.776l-2 .033c.038 2.279.099 4.564.223 6.851l1.997-.108Zm-.22-6.776c-.072-4.378-.14-8.754-.211-13.133l-2 .032.211 13.134 2-.033Zm-.544-12.371c.272-.244.536-.562.662-.702l-1.488-1.336c-.215.239-.343.4-.507.547l1.333 1.49Zm.661-.702c.423-.47.793-.969 1.124-1.489l-1.687-1.075c-.28.44-.585.85-.924 1.227l1.487 1.337Zm1.124-1.489c.271-.425.285-.95.116-1.362a1.353 1.353 0 0 0-.533-.637 1.323 1.323 0 0 0-.932-.174l.345 1.97a.68.68 0 0 1-.468-.097.657.657 0 0 1-.263-.303.497.497 0 0 1 .048-.472l1.687 1.075Zm-1.348-2.173h-.002l-.012.002-.017.003.335 1.972.006-.001.033-.006-.343-1.97Zm1.122.825c-.088-.525-.326-1.027-.557-1.427-.238-.413-.511-.79-.725-1.073l-1.594 1.208c.194.257.409.557.586.864.184.319.288.579.318.76l1.972-.332Zm-1.282-2.5c-.584-.77-1.242-1.525-1.813-2.22l-1.545 1.27c.625.76 1.21 1.427 1.764 2.158l1.594-1.208Zm-1.586-1.567c.019-1.011.027-2.448-.489-3.63l-1.833.8c.315.722.342 1.723.323 2.793l1.999.037Zm-.489-3.63c-.232-.533-.754-.759-1.158-.773a1.216 1.216 0 0 0-.82.273 1.197 1.197 0 0 0-.428.908l1.999.038a.803.803 0 0 1-.296.595.785.785 0 0 1-.525.185.657.657 0 0 1-.318-.093.726.726 0 0 1-.287-.334l1.833-.8Zm-2.406.408c-.012.586.017 1.169.037 1.701.021.546.035 1.052.007 1.55l1.996.115a18.02 18.02 0 0 0-.004-1.742c-.022-.562-.047-1.073-.037-1.586l-1.999-.038Zm.044 3.252c-.01.172.011.32.036.435l1.952-.437c.004.018.012.06.008.115l-1.996-.113Zm.136-.265a35.697 35.697 0 0 1-1.04 1.772l1.693 1.064c.386-.615.752-1.24 1.1-1.873l-1.753-.963Zm-1.04 1.772c-.202.321-.427.634-.681 1-.244.35-.507.74-.733 1.155l1.757.955c.17-.312.38-.626.619-.97.229-.33.497-.703.731-1.076l-1.693-1.064Zm-.531 1.633c-1.227-.005-1.756 1.373-1.114 2.245l1.61-1.186c.236.32.074.943-.504.94l.008-2Zm-1.114 2.245c.451.613 1.033 1.533 1.755 2.215l1.374-1.453c-.548-.519-.937-1.158-1.519-1.948l-1.61 1.186Zm1.755 2.215c.044.041.082.07.101.085l.02.014-.006-.004 1.197-1.602-.019-.014.006.004c.011.008.04.03.075.064l-1.374 1.453Zm-.286-.725c-.082 4.305-.158 8.602-.282 12.897l1.999.058c.125-4.307.201-8.617.282-12.917l-1.999-.038Zm-.282 12.897c-.13 4.483-.308 8.932-.901 13.325l1.982.268c.609-4.507.788-9.049.918-13.535l-1.999-.058Zm-.901 13.325c-.023.17-.018.338.012.501l1.966-.367a.41.41 0 0 1 .004.134l-1.982-.268Zm.845-.671c-.532.08-1.058.175-1.576.28l.4 1.96c.485-.1.979-.187 1.477-.263l-.301-1.977Zm-1.576.28c-.501.103-.811.459-.961.758a1.431 1.431 0 0 0-.056 1.174l1.85-.76a.577.577 0 0 1-.003.478.606.606 0 0 1-.43.31l-.4-1.96Zm-1.017 1.932c.207.505.446 1.021.742 1.522l1.721-1.018a9.747 9.747 0 0 1-.613-1.264l-1.85.76Zm.742 1.522c.107.18.256.373.33.472a3.6 3.6 0 0 1 .135.197l.008.015 1.824-.82a3.19 3.19 0 0 0-.36-.582c-.123-.166-.178-.236-.215-.3l-1.722 1.018Zm.575-.311c-.276.381-.479.811-.638 1.186-.08.19-.156.38-.224.551-.071.176-.133.33-.195.472l1.831.805c.077-.176.152-.361.221-.535a24.8 24.8 0 0 1 .208-.51c.142-.336.276-.602.418-.798l-1.621-1.171Zm-1.057 2.209c-.363.825-.696 1.66-1.01 2.492l1.871.707c.306-.81.625-1.61.97-2.394l-1.831-.805Zm-1.01 2.492c-.291.77-.565 1.545-.824 2.325l1.898.63a59.34 59.34 0 0 1 .797-2.248l-1.871-.707Zm-.824 2.325c-.106.32-.195.518-.348.949-.126.356-.26.788-.308 1.24l1.989.21c.023-.214.094-.469.205-.784.085-.242.266-.7.36-.986l-1.898-.629Zm.337 1.294-1.85.002.004 2 1.849-.002-.003-2Zm-1.85.002c-.718.001-1.511.556-1.51 1.484l2-.003a.54.54 0 0 1-.174.398.46.46 0 0 1-.312.121l-.004-2Zm-1.51 1.484c.001 1.027.006 2.053.011 3.078l2-.01c-.005-1.025-.01-2.048-.011-3.07l-2 .002Zm.011 3.078c.002.308.095.647.296.934a1.4 1.4 0 0 0 1.151.61l-.005-2a.604.604 0 0 1 .492.242.334.334 0 0 1 .066.203l-2 .01Zm1.445 1.543h.008v-2h-.008v2Zm-.815-1.567c-.521.756-.983 1.587-1.406 2.298l1.718 1.023c.467-.784.864-1.503 1.335-2.187l-1.647-1.134Zm-1.406 2.298c-.516.867-1.025 1.738-1.525 2.614l1.737.992c.494-.865.996-1.726 1.506-2.583l-1.718-1.023Zm-1.525 2.614a165.503 165.503 0 0 0-2.998 5.496l1.773.925c.954-1.829 1.94-3.64 2.962-5.429l-1.737-.992Zm-2.998 5.495a1.56 1.56 0 0 0 .052 1.543c.299.482.867.785 1.514.678l-.327-1.973a.525.525 0 0 1 .513.242c.087.14.09.304.021.436l-1.773-.925Zm1.566 2.22a20.01 20.01 0 0 1 5.194-.18l.189-1.991a22.003 22.003 0 0 0-5.71.199l.327 1.973Zm5.194-.18c.306.029.617-.042.876-.18a1.38 1.38 0 0 0 .703-.887l-1.944-.469a.624.624 0 0 1 .298-.408.432.432 0 0 1 .256-.047l-.189 1.99Zm1.579-1.068c.759-3.15 2.543-6.009 5.437-7.119l-.716-1.867c-3.751 1.438-5.825 5.029-6.665 8.518l1.944.468Zm5.437-7.119c.863-.33 1.768-.47 2.589-.323l.349-1.97c-1.272-.226-2.552.004-3.653.426l.715 1.867Zm2.589-.323c1.469.26 2.852 1.088 3.926 2.214l1.447-1.38c-1.311-1.376-3.062-2.455-5.024-2.803l-.349 1.969Zm3.926 2.214c1.306 1.37 2.145 3.176 2.616 5.097l1.942-.476c-.527-2.154-1.498-4.31-3.111-6.002l-1.447 1.38Zm2.616 5.097c.125.513.62 1.248 1.559 1.157l-.194-1.991a.59.59 0 0 1 .44.146.42.42 0 0 1 .137.212l-1.942.476Zm1.559 1.157a20.039 20.039 0 0 1 5.186.162l.322-1.974a22.044 22.044 0 0 0-5.702-.18l.194 1.992Zm5.186.162a1.426 1.426 0 0 0 1.429-.606c.3-.447.321-1.02.069-1.5l-1.772.928a.537.537 0 0 1 .042-.542.576.576 0 0 1 .553-.254l-.321 1.974Zm-11.403-29.554c-.532-.455-.949-.768-1.39-1.18l-1.365 1.462c.473.44 1.042.884 1.455 1.238l1.3-1.52Zm-1.408.298c.297-.265.944-.777 1.327-1.379l-1.687-1.074c-.189.297-.517.556-.97.959l1.33 1.494Zm-.512-1.826c.073.81.163 1.621.281 2.431l1.979-.287a43.034 43.034 0 0 1-.268-2.323l-1.992.179Zm-1.275-11.735.483.563 1.517-1.303-.48-.56-1.52 1.3Zm.483.563c.053.061.237.296.383.439l1.4-1.429c-.07-.069-.076-.093-.266-.313l-1.517 1.303Zm.326-.93c-.103.12-.186.243-.24.324-.066.1-.091.139-.12.177l1.599 1.202c.074-.099.148-.214.186-.27.049-.074.073-.107.089-.125l-1.514-1.307Zm-.36.5c-.22.294-.446.586-.676.881l1.579 1.228c.231-.297.465-.6.696-.906l-1.599-1.202Zm.878.85a45.71 45.71 0 0 0-1.101-1.27l-1.48 1.345c.354.39.698.795 1.052 1.215l1.529-1.29Zm-1.327.26a7.423 7.423 0 0 0 1.477-1.196l-1.433-1.395a5.423 5.423 0 0 1-1.073.876l1.029 1.715Zm.281-3.688c.259-.3.498-.61.721-.918l-1.617-1.177a12.37 12.37 0 0 1-.619.79l1.515 1.305Zm-.858-.869c.359.435.801.983 1.328 1.428l1.29-1.529c-.361-.304-.683-.697-1.077-1.173l-1.541 1.274Zm1.164.076c-.201.277-.399.54-.603.793l1.555 1.258c.235-.291.455-.586.666-.875l-1.618-1.176Zm.93.767c-.38-.439-.827-.956-1.353-1.395l-1.281 1.536c.382.319.725.71 1.123 1.17l1.511-1.311Zm-1.431 6.282.135.17c.049.063.11.142.174.22.128.155.303.352.534.522l1.185-1.611a1.108 1.108 0 0 1-.174-.18 8.417 8.417 0 0 1-.14-.178c-.051-.066-.112-.145-.178-.224l-1.536 1.28Zm.762-.633a3.968 3.968 0 0 0-.486.55c-.149.198-.204.282-.301.404l1.565 1.246c.108-.136.261-.35.334-.447.1-.134.174-.219.235-.275l-1.347-1.478Zm-.787.954c-.15.189-.301.385-.438.562l1.577 1.23c.15-.193.284-.368.426-.546l-1.565-1.246Zm1.103.518a49.374 49.374 0 0 1-.967-1.13l-1.543 1.272c.33.4.669.792 1.005 1.176l1.505-1.318Zm-.967-1.13a1.112 1.112 0 0 0-.13-.134l.01.009-1.35 1.476.022.02-.006-.006a.853.853 0 0 1-.089-.093l1.543-1.273Zm-.033 1.26c.38-.448.762-.9 1.14-1.358l-1.542-1.274c-.37.447-.745.892-1.123 1.338l1.525 1.294Zm-.4-1.355.322.386 1.536-1.28-.32-.386-1.538 1.28Zm-.066 3.757c.24.28.508.558.732.798.236.252.442.48.615.709l1.596-1.205c-.241-.32-.508-.612-.751-.871-.254-.272-.472-.497-.674-.732l-1.518 1.301Zm1.551.1c-.462.34-.867.749-1.222 1.132l1.467 1.359c.329-.355.634-.654.943-.882l-1.188-1.61Zm.214 1.1c-.43-.425-.935-.952-1.459-1.404l-1.306 1.516c.456.392.872.83 1.36 1.311l1.405-1.423Zm-1.315-.041c.33-.436.665-.868 1.004-1.297l-1.569-1.24c-.348.439-.69.882-1.029 1.328l1.594 1.209Zm-.544-1.271.036.043.058.07 1.518-1.302c-.055-.065 0-.003-.085-.103l-1.527 1.292Zm.375 3.829c.313.307.584.594.807.89l1.596-1.206a10.335 10.335 0 0 0-1-1.11l-1.403 1.426Zm.806.89c.107.14.232.244.355.32l1.04-1.71a.733.733 0 0 1 .202.184l-1.597 1.205Zm.162-1.235c-.307.312-.65.593-1.05.93l1.287 1.53c.366-.308.8-.662 1.19-1.06l-1.427-1.4Zm.26.95c-.432-.386-.878-.664-1.302-.91l-1.006 1.728c.392.228.697.424.975.673l1.333-1.491Zm-1.11.673c.339-.328.681-.681.986-.987l-1.416-1.413c-.339.34-.637.65-.96.962l1.39 1.438Zm.986-.988c.091-.09.186-.183.288-.28l-1.381-1.447c-.105.101-.215.207-.323.316l1.416 1.411Zm-.99 3.158c.328.332.762.775 1.257 1.126l1.158-1.63c-.329-.234-.643-.548-.99-.9l-1.425 1.404Zm1.861-.689a24.386 24.386 0 0 0-2.828.1l.183 1.992c.866-.08 1.736-.114 2.595-.093l.05-1.999Zm-2.033 1.807a8.38 8.38 0 0 0 .356-.382c.109-.122.195-.219.283-.31l-1.441-1.388c-.122.127-.239.26-.335.368a6.3 6.3 0 0 1-.27.29l1.407 1.422Zm.639-.693c.223-.231.45-.46.682-.689l-1.405-1.423c-.241.237-.481.479-.718.725l1.441 1.387Zm-.741-.707c.09.093.181.188.274.282l1.425-1.404a30.262 30.262 0 0 1-.259-.266l-1.44 1.388Zm3.327-3.638c-.125-.384-.353-.702-.553-.938a6.996 6.996 0 0 0-.619-.627l-1.35 1.475c.173.158.324.304.443.445a.928.928 0 0 1 .177.264l1.902-.619Zm-1.155-.106c.278-.266.568-.557.837-.875l-1.527-1.291c-.203.24-.436.475-.694.723l1.384 1.443Zm-.925-1.459c.04.646.082 1.298.132 1.951l1.994-.152a133.74 133.74 0 0 1-.13-1.922l-1.996.123Zm1.627-2.535c-.305-.326-.526-.54-.767-.812l-1.5 1.323c.257.292.587.62.808.857l1.459-1.368Zm-.767-.812-.319-.362-1.5 1.324.319.36 1.5-1.322Zm-.31.951c.279-.326.725-.797 1.058-1.263l-1.628-1.162c-.264.37-.567.678-.948 1.122l1.518 1.303Zm-.755-1.808c.028.801.063 1.602.104 2.404l1.997-.102c-.04-.79-.074-1.582-.103-2.374l-1.998.072Zm-.092-3.035c.012.489.026.977.04 1.465l1.999-.059-.04-1.458-1.999.052Zm1.841.837c-.272-.363-.618-.717-.839-.96l-1.478 1.348c.295.323.521.55.715.81l1.602-1.198Zm-.8.343c.251-.311.499-.625.743-.942l-1.586-1.22c-.233.305-.471.606-.713.905l1.556 1.257Zm-1.05-1.526.004.17.005.176 1.999-.051a9.113 9.113 0 0 1-.004-.17l-.004-.176-2 .051Zm1.696-2.726c-.154-.17-.32-.34-.449-.476l-1.447 1.381c.153.16.282.291.409.433l1.487-1.338Zm-.403.853c.153-.186.3-.373.44-.562l-1.607-1.19c-.119.16-.243.32-.373.476l1.54 1.276Zm-1.363-1.136c.006.322.015.66.023.975l1.999-.045-.023-.972-1.999.042Zm1.746-2.399c-.33-.415-.764-.848-1.035-1.145l-1.479 1.346c.38.418.669.694.951 1.046l1.563-1.247Zm-.962.111c.297-.413.661-.927.918-1.488l-1.818-.833c-.165.36-.419.729-.725 1.155l1.625 1.166Zm.003-.905c.078 0 .175-.003.285-.02l-.309-1.976c.025-.004.04-.004.036-.004l-.012 2Zm-.869-.99.047 2.427 1.999-.039-.047-2.424-1.999.036Zm1.749-1.294c-.313-.367-.771-.663-.957-.8l-1.186 1.61c.359.265.505.352.621.488l1.522-1.298Zm-.813.68c.283-.308.554-.626.809-.948l-1.569-1.24c-.224.283-.464.564-.714.838l1.474 1.35Zm-.976-1.55.028 1.537 2-.036-.028-1.537-2 .036Zm1.728-2.219a22.76 22.76 0 0 0-.485-.543l-1.468 1.358c.149.16.295.326.441.494l1.512-1.309Zm-.46.788c.136-.158.275-.315.419-.47l-1.468-1.358c-.159.171-.315.346-.468.524l1.517 1.304Zm-1.315-1.13.019 1.015 1.999-.037-.018-1.016-2 .038Zm.185-.096.025.027 1.435-1.393-.02-.021-1.44 1.387Zm.023.025c.037.037.069.065.08.075l.011.009-.003-.003-.009-.007 1.322-1.501-.022-.02h-.002l-.001-.002.003.003.02.018c.011.01.024.022.04.039l-1.439 1.389Zm.661-1.674a1.333 1.333 0 0 0-.804.362l1.364 1.462a.67.67 0 0 1-.402.17l-.158-1.994Zm-.804.362c-.224.209-.46.435-.696.675l1.428 1.401c.209-.213.422-.418.633-.614l-1.365-1.462Zm.714.658a8.397 8.397 0 0 0-1.063-.885l-1.136 1.646c.27.186.539.414.807.675l1.392-1.436Zm-1.63.938.879-.001.878-.001-.002-2h-.879l-.878.002.002 2Zm-.846.478c.162.194.329.382.496.565l1.478-1.348a15.356 15.356 0 0 1-.442-.502l-1.532 1.285Zm.479-.763a9.93 9.93 0 0 0-.541.678l1.621 1.172c.13-.18.276-.36.432-.541l-1.512-1.31Zm1.27 1.28.017-1.143-2-.032-.017 1.143 2 .032Zm-.271 1.74c.357-.4.696-.813 1.018-1.203l-1.542-1.274c-.33.4-.642.78-.968 1.144l1.492 1.333Zm-.477-1.15.647.678 1.453-1.373c-.214-.227-.438-.46-.651-.684l-1.449 1.378Zm.623-.67c-.326.37-.726.889-.985 1.196l1.529 1.289c.393-.466.611-.77.957-1.162l-1.501-1.323Zm.414 1.068-.674-.553-1.268 1.546.672.552 1.27-1.545Zm-.308.234.002-.133-2-.031-.002.136 2 .028Zm-1.721 1.558c.084.084.167.164.245.238l1.38-1.448a15.54 15.54 0 0 1-.209-.202l-1.416 1.412Zm.178-1.14c-.08.093-.163.19-.246.29l1.537 1.28c.072-.087.145-.173.223-.262l-1.514-1.307Zm1.523.944.007-.496-2-.03-.007.497 2 .029Zm-.368 1.652c.282-.239.559-.494.827-.76l-1.407-1.42c-.234.231-.472.45-.711.653l1.291 1.527Zm-.546-.727c.115.103.394.38.653.568l1.177-1.617c-.148-.107-.243-.214-.491-.437l-1.339 1.486Zm.44-.838c-.288.387-.535.84-.721 1.16l1.727 1.008c.236-.403.397-.704.598-.973l-1.604-1.195Zm.862.97a9.17 9.17 0 0 0-.767-.718l-1.276 1.54c.207.171.404.359.604.567l1.439-1.389Zm-.405.065.003-.22-2-.028-.003.221 2 .027Zm-1.768 1.639c.099.113.212.235.287.319l1.485-1.34c-.102-.114-.179-.196-.266-.295l-1.506 1.316Zm.209-.923a23.4 23.4 0 0 1-.277.393l1.624 1.168c.1-.14.198-.28.294-.417l-1.641-1.144Zm1.535.99.009-.711-2-.028-.009.712 2 .028Zm-1.802 2.5c.27.334.566.66.815.945l1.504-1.318c-.278-.317-.528-.592-.765-.886l-1.554 1.26Zm.835-.395c-.269.29-.498.512-.805.834l1.447 1.38c.232-.242.56-.57.823-.852l-1.465-1.361Zm.918 1.537.024-1.758-2-.026-.024 1.758 2 .026Zm-.027 2.036.003-.199-2-.024-.003.196 2 .027Zm-1.77.424c.223.27.449.54.668.802l1.535-1.281a152.05 152.05 0 0 1-.657-.79l-1.546 1.269Zm.648-.455a63.4 63.4 0 0 0-.7.907l1.596 1.205c.221-.293.447-.583.679-.879l-1.575-1.233Zm1.098 1.529c.009-.5.018-.999.024-1.498l-2-.026c-.006.495-.014.99-.024 1.485l2 .039Zm-1.854 2.562c.203.276.411.548.625.816l1.564-1.247c-.197-.248-.39-.499-.578-.755l-1.611 1.186Zm.611-.413c-.222.292-.445.586-.666.882l1.602 1.197c.217-.289.435-.578.656-.868l-1.592-1.211Zm1.134 1.522c.023-.557.043-1.115.06-1.672l-1.999-.06c-.017.55-.036 1.1-.059 1.65l1.998.082Zm-1.851 2.516c.345.4.725.766 1.071 1.097l1.383-1.445c-.351-.336-.665-.64-.938-.958l-1.516 1.306Zm1.02-.294c-.151.167-.294.323-.434.467l1.437 1.391c.166-.17.328-.348.483-.52l-1.486-1.338Zm-.433.467a55.8 55.8 0 0 0-.712.749l1.46 1.366c.228-.243.457-.485.688-.723l-1.436-1.392Zm1.015 1.511c.06-.76.111-1.52.154-2.28l-1.996-.114c-.043.746-.093 1.492-.152 2.236l1.994.158Zm-.412 1.59.028-.025-1.371-1.457.017-.014 1.326 1.497Zm-1.278.03c.306.243.595.517.896.822l1.423-1.405c-.325-.33-.68-.67-1.078-.985l-1.241 1.569Zm.932-.617a28.2 28.2 0 0 0-1.001.96l1.421 1.408c.301-.304.613-.602.932-.895l-1.352-1.473Zm-1.001.96c-.093.094-.126.125-.235.233l1.416 1.413c.046-.046.173-.17.24-.238l-1.421-1.408Zm1.466 1.054c.08-.695.151-1.39.214-2.086l-1.992-.178c-.061.68-.131 1.358-.209 2.035l1.987.229Zm.634 11.658-2.315.003.002 2c.773 0 1.542-.002 2.315-.003l-.002-2Zm-1.398 1.403c.176-.403.251-.822.296-1.16.056-.409.063-.601.112-.888l-1.973-.333c-.049.294-.091.736-.12.953-.039.287-.085.485-.147.628l1.832.8Zm.408-2.048c.121-.723.256-1.443.404-2.16l-1.959-.404a64.87 64.87 0 0 0-.418 2.231l1.973.333Zm.404-2.16c.135-.656.303-1.31.479-1.995.172-.676.351-1.38.491-2.096l-1.962-.385a36.293 36.293 0 0 1-.467 1.986c-.172.672-.354 1.375-.5 2.087l1.959.402Zm-.024-3.284c.526.007 1.06 0 1.594-.027l-.103-1.997c-.483.025-.972.03-1.465.024l-.026 2Zm.564-.821c.148.707.326 1.404.497 2.078.173.68.34 1.337.478 1.995l1.957-.41a48.713 48.713 0 0 0-.497-2.078 47.24 47.24 0 0 1-.477-1.994l-1.958.409Zm.975 4.073c.137.659.261 1.323.376 1.99l1.971-.338a57.613 57.613 0 0 0-.39-2.061l-1.957.41Zm.376 1.99c.054.314.078.585.134.987.051.36.123.777.264 1.186l1.89-.652a4.44 4.44 0 0 1-.173-.812c-.04-.284-.085-.705-.144-1.047l-1.971.339Zm1.344.847h-2.649l.002 2h2.645l.002-2Zm.514-4.787c.297.698.58 1.401.848 2.11l1.871-.708a57.451 57.451 0 0 0-.879-2.185l-1.84.783Zm.848 2.11c.281.742.547 1.49.796 2.244l1.899-.628a57.872 57.872 0 0 0-.824-2.324l-1.871.708Zm.796 2.244c.13.394.256.79.376 1.185l1.914-.581a50.574 50.574 0 0 0-.391-1.232l-1.899.628Zm.376 1.185c.024.078.045.156.073.257.026.096.058.21.096.326l1.901-.62a6.143 6.143 0 0 1-.069-.236c-.024-.087-.054-.198-.087-.308l-1.914.58Zm1.156-.726c-.067-.002-.162-.007-.248-.009l-.05 2c.071.001.134.004.225.008l.073-1.999Zm.705.78a4.307 4.307 0 0 0-.417-1.078c-.184-.353-.283-.506-.406-.761l-1.802.869c.126.26.339.632.435.817.129.247.203.426.234.574l1.956-.42Zm-.823-1.84a46.865 46.865 0 0 0-1.028-2.036l-1.757.956c.344.632.66 1.279.983 1.95l1.802-.87Zm-1.028-2.036c-.351-.644-1.046-.696-1.423-.603-.221.055-.509.19-.713.48a1.18 1.18 0 0 0-.147 1.057l1.897-.632a.824.824 0 0 1-.113.725.774.774 0 0 1-.445.312.68.68 0 0 1-.376-.015.776.776 0 0 1-.437-.368l1.757-.956Zm-2.283.934c.267.8.577 1.57.941 2.332l1.805-.861a18.305 18.305 0 0 1-.849-2.104l-1.897.633Zm.941 2.332c.081.17.132.312.253.59.101.233.239.528.43.798l1.634-1.154a2.553 2.553 0 0 1-.23-.442c-.069-.158-.187-.453-.282-.653l-1.805.86Zm1.504-.19-.809-.001-.005 2c.272 0 .537 0 .806.002l.008-2Zm.031 1.537c.277-.434.231-.915.193-1.156a4.174 4.174 0 0 0-.232-.815 9.231 9.231 0 0 0-.286-.662c-.099-.211-.147-.307-.172-.367l-1.844.774c.046.11.14.302.206.443.079.168.161.35.228.527.071.184.111.324.125.412.006.043.002.044.005.016a.562.562 0 0 1 .091-.248l1.686 1.076Zm-.497-3a1.256 1.256 0 0 0-.891-.754 1.34 1.34 0 0 0-.934.145c-.42.233-.955.88-.626 1.693l1.854-.75a.684.684 0 0 1-.016.544.58.58 0 0 1-.242.262.662.662 0 0 1-.465.06.745.745 0 0 1-.524-.426l1.844-.774Zm-2.451 1.084c.222.549.433 1.105.643 1.668l1.874-.698a66.581 66.581 0 0 0-.663-1.72l-1.854.75Zm.643 1.668c.05.135.116.235.156.291l1.626-1.164c.014.019.057.08.092.175l-1.874.698Zm.974-1.291-.756-.002-.005 2c.254 0 .501 0 .751.002l.01-2Zm.173 1.36c.024-.06.061-.167.079-.302l-1.984-.256a.683.683 0 0 1 .042-.167l1.863.726Zm.079-.302c.06-.464.002-.92-.064-1.286a13.816 13.816 0 0 0-.107-.532c-.035-.168-.065-.31-.089-.441l-1.97.344c.031.175.069.354.103.514.036.166.068.317.094.466.055.305.07.521.049.68l1.984.255Zm-.26-2.26a67.423 67.423 0 0 0-.429-2.222l-1.958.41c.151.719.291 1.438.417 2.158l1.97-.346Zm-.429-2.222c-.269-1.288-.548-2.72-1.002-4.067l-1.896.638c.408 1.209.661 2.502.94 3.838l1.958-.409Zm-2.128-1.66c.168.382.428 1.112.93 1.664l1.481-1.343c-.22-.243-.321-.538-.581-1.127l-1.83.806Zm.93 1.664c.351.387.849.45 1.205.366a1.16 1.16 0 0 0 .904-1.243l-1.992.18a.843.843 0 0 1 .629-.884.753.753 0 0 1 .735.237l-1.481 1.345Zm2.109-.878c-.074-.816-.483-1.623-.659-2.061l-1.857.742c.286.715.485 1.068.524 1.5l1.992-.18Zm-6.22-36.98c.198.311.417.606.602.86l1.617-1.177c-.203-.28-.375-.51-.53-.755l-1.689 1.071Zm.602.86c.108.149.467.777 1.163 1.028l.678-1.882c.032.012.041.03.011-.004a1.182 1.182 0 0 1-.086-.11l-.067-.094-.082-.115-1.617 1.177Zm1.163 1.028c.885.318 2.008-.428 1.687-1.554l-1.924.548a.729.729 0 0 1 .226-.744.698.698 0 0 1 .689-.132l-.678 1.882Zm1.687-1.554c-.135-.474-.393-.865-.62-1.163a10.376 10.376 0 0 0-.342-.42c-.112-.131-.203-.237-.287-.342l-1.56 1.252c.107.133.224.27.322.385.104.122.195.23.276.338.169.22.253.378.288.498l1.923-.548Zm-1.249-1.925a1.28 1.28 0 0 0-1.216-.464l.323 1.974a.73.73 0 0 1-.667-.257l1.56-1.253Zm-.204 1.05c.198-.321.393-.645.582-.973l-1.733-.999a33.43 33.43 0 0 1-.55.919l1.701 1.052Zm-1.064-.846c.425.53.839 1.04 1.238 1.56l1.588-1.215c-.417-.545-.851-1.08-1.267-1.598l-1.559 1.253Zm2.991 1.834c-1.43.174-2.869.155-4.293-.06l-.298 1.978a17.86 17.86 0 0 0 4.833.067l-.242-1.985Zm-1.853-.965a9.703 9.703 0 0 1-.384-.554l-1.689 1.071c.15.237.309.459.455.66l1.618-1.177Zm-2.738 2.883c.539.082 1.077.135 1.613.167l.118-1.997c-.482-.028-.96-.076-1.433-.147l-.298 1.977Zm2.645-.599c.126-.53.211-1.057.276-1.57l-1.984-.251c-.06.47-.133.92-.238 1.356l1.946.465Zm.398-2.667.056-.539-1.989-.213-.057.549 1.99.203Zm-1.797-1.159c-.093.156-.187.311-.283.466l1.701 1.052c.101-.163.201-.327.299-.49l-1.717-1.028Zm.729 1.979a.722.722 0 0 1-.583-.167l1.313-1.51a1.28 1.28 0 0 0-1.053-.297l.323 1.974Zm.224.908c.03.228.04.406.071.702l1.989-.207c-.02-.19-.043-.504-.078-.761l-1.982.266Zm.071.702.012.121 1.99-.2-.013-.127-1.989.206Zm1.043 1.02a17.823 17.823 0 0 0 1.52-.117l-.242-1.985a16.3 16.3 0 0 1-1.35.104l.072 1.998Zm1.113-3.591c-.222-.29-.447-.574-.67-.852l-1.562 1.249c.221.275.436.546.644.819L126.14 7.1Zm-2.45-.19c.026.716.138 1.426.223 2.059l1.982-.266c-.093-.697-.184-1.275-.206-1.868l-1.999.074Zm-1.881 4.404a18.31 18.31 0 0 0 4.804.061l-.237-1.986c-1.426.17-2.859.152-4.28-.054l-.287 1.98Zm3.747-.903-2.678-.003-.002 2 2.677.003.003-2Zm-.976-.234a47.98 47.98 0 0 1-.096.316l1.913.585.097-.323-1.914-.578Zm-.096.316c-.07.228-.122.41-.187.617l1.907.601c.066-.21.136-.448.193-.633l-1.913-.585Zm.765 1.918h.304l.003-2h-.304l-.003 2Zm1.127-3.022c-.295.035-.594.06-.901.08l.125 1.995c.331-.02.67-.048 1.013-.089l-.237-1.986Zm-1.85 1.706c-.07-.295-.137-.563-.199-.842l-1.953.43c.066.302.143.61.207.876l1.945-.464Zm-1.113-1.626a16.398 16.398 0 0 1-1.317-.134l-.287 1.98c.495.07.988.12 1.478.15l.126-1.995Zm-.537 2.939h.694l.003-2h-.695l-.002 2Zm1.675-1.203-.025-.11-1.945.464.011.052 1.959-.405Zm-.893 28.027a1.18 1.18 0 0 0-.941.385 1.166 1.166 0 0 0-.285.903c.047.439.355.934.916 1.093l.546-1.924a.715.715 0 0 1 .527.618.832.832 0 0 1-.213.642.819.819 0 0 1-.634.281l.084-1.998Zm-.31 2.381c.757.215 1.554.1 1.976.077l-.106-1.997c-.698.038-.985.092-1.324-.004l-.546 1.924Zm1.977.077c.818-.043 1.615-.06 2.466-.092l-.075-1.999c-.805.03-1.662.05-2.498.094l.107 1.997Zm2.466-.092a1.114 1.114 0 0 0 .156-.017h.001-.002a.919.919 0 0 1-.089.011l-.156-1.994a1.016 1.016 0 0 0-.087.01l-.022.004-.004.001h-.001l.011-.002.026-.004a.944.944 0 0 1 .092-.008l.075 1.999Zm-1-1.155c-.035.222-.072.441-.114.657l1.963.382c.048-.245.09-.49.127-.734l-1.976-.305Zm.868-.152c-.605 0-1.205.032-1.775.064-.58.032-1.127.063-1.673.067l.014 2c.603-.004 1.202-.039 1.769-.07a29.103 29.103 0 0 1 1.664-.06l.001-2Zm-3.448.13a36.807 36.807 0 0 1-2.696-.082l-.133 1.996a39.01 39.01 0 0 0 2.843.087l-.014-2Zm-1.872.461a3.618 3.618 0 0 0-.254-.415c-.082-.12-.131-.186-.182-.268l-1.697 1.058c.084.134.179.267.233.346.064.093.097.146.119.189l1.781-.91Zm-.435-.682a8.013 8.013 0 0 1-.475-.884l-1.815.84c.173.374.369.742.592 1.1l1.698-1.056Zm2.521.152a.84.84 0 0 1-.242.625.819.819 0 0 1-.609.253l.083-1.998a1.186 1.186 0 0 0-.906.348c-.273.28-.335.622-.323.868l1.997-.096Zm-4.811-.197c.116.251.241.496.376.735l1.743-.98a8.537 8.537 0 0 1-.304-.594l-1.815.84Zm1.248 1.245h2.564v-2h-2.564v2Zm-.468 6.718c-.028.157-.061.317-.097.5-.036.176-.075.37-.108.569-.065.392-.118.849-.076 1.32l1.992-.175c-.02-.225.002-.49.057-.816.027-.161.059-.326.095-.503.035-.172.073-.361.106-.547l-1.969-.348Zm.714 1.302h-.895l.002 2h.895l-.002-2Zm.025 1.395c.143-.335.307-.713.442-1.12l-1.898-.63c-.103.312-.232.61-.382.961l1.838.789Zm.442-1.12c.006-.018.125-.326.17-.54.06-.282.09-.725-.185-1.165l-1.695 1.061a.537.537 0 0 1-.077-.224c-.006-.061.003-.096.001-.088a1.038 1.038 0 0 1-.03.094l-.036.1-.046.132 1.898.63Zm-1.894-1.93c-.4.42-.592.934-.704 1.346-.106.391-.178.86-.228 1.117l1.962.386c.079-.404.113-.675.196-.98.077-.283.157-.422.222-.489l-1.448-1.38Zm.048 1.656h-.32l.002 2h.32l-.002-2Zm.611 1.37c.175-.443.337-.9.469-1.38l-1.928-.531c-.108.392-.244.778-.4 1.173l1.859.737Zm7.618-5.063c.235-.11.469-.217.704-.32l-.807-1.83c-.25.11-.498.223-.743.337l.846 1.813Zm1.223-1.623-.108-.26-1.84.784.104.251 1.844-.775Zm-3.098-.302c.222.556.386.868.48 1.254l1.944-.471c-.139-.57-.425-1.172-.567-1.525l-1.857.742Zm1.774.704c-.168-.251-.266-.52-.467-.977l-1.83.806c.137.311.339.841.636 1.284l1.661-1.113Zm-3.067-1.94c.314.932.539 1.924.755 2.951l1.958-.412c-.218-1.033-.463-2.125-.817-3.177l-1.896.638Zm2.185 3.638a36.9 36.9 0 0 1 .488-.242l-.873-1.8c-.173.085-.345.17-.517.257l.902 1.785Zm-8.094 2.675c-.096.349-.216.695-.353 1.049l1.865.722c.154-.397.297-.809.416-1.24l-1.928-.531Zm1.312 2.09c.109-.117.221-.232.335-.346l-1.412-1.417a14.77 14.77 0 0 0-.388.402l1.465 1.361Zm.613-.872c.105-.566.204-.828.323-.953l-1.448-1.38c-.583.612-.748 1.462-.842 1.968l1.967.365Zm-.941-1.047a.52.52 0 0 1-.079-.274c0-.047.01-.058-.009.002l1.907.604c.075-.238.236-.818-.124-1.392l-1.695 1.06Zm1.514.791c.126-.107.252-.212.379-.314l-1.252-1.56c-.144.116-.285.234-.424.351l1.297 1.523Zm.379-.313c.06-.049.099-.078.18-.142l-1.237-1.571-.195.152 1.252 1.56Zm.542-.732c.022-.107.043-.219.063-.331l-1.969-.348c-.016.091-.035.186-.055.288l1.961.39Zm9.437 2.389c-.009.826-.018 1.656-.02 2.486l2 .006c.002-.822.011-1.644.02-2.47l-2-.022Zm1.02 1.49c-5.611-.23-11.269-.102-16.826-.12l-.007 2c5.628.018 11.189-.11 16.752.118l.081-1.998Zm-15.829.884.008-2.132-2-.005-.008 2.128 2 .01Zm16.8-1.504.009-.848-2-.022-.009.85 2 .02Zm-18.792-.632-.003.619 2 .006.003-.62-2-.005Zm.997 1.622h16.795v-2h-16.795v2Zm18.303 11.145c-1.001-3.73-3.374-7.437-7.409-8.83l-.653 1.89c3.179 1.098 5.228 4.095 6.13 7.458l1.932-.518Zm-7.409-8.83c-3.627-1.253-7.281.369-9.613 2.961l1.487 1.338c1.973-2.193 4.829-3.322 7.473-2.409l.653-1.89Zm-9.612 2.961c-1.508 1.676-2.463 3.735-3.017 5.825l1.934.513c.494-1.866 1.324-3.616 2.569-5l-1.486-1.338Zm-1.973 5.084a23.154 23.154 0 0 0-4.518.091l.236 1.986a21.15 21.15 0 0 1 4.128-.083l.154-1.994Zm11.464-8.483c.126.284.299.516.431.681.166.21.228.271.324.402l1.612-1.184c-.116-.158-.305-.38-.372-.464a1.258 1.258 0 0 1-.167-.247l-1.828.812Zm.755 1.083c.022.03.05.074.102.16.043.072.111.186.187.296.145.212.421.563.895.735l.68-1.881c.123.044.146.119.072.013a5.657 5.657 0 0 1-.122-.197 4.002 4.002 0 0 0-.202-.31l-1.612 1.184Zm1.184 1.19c.388.14.773.059 1.036-.079.275-.143.692-.51.66-1.127l-1.997.103a.797.797 0 0 1 .411-.748.696.696 0 0 1 .57-.03l-.68 1.882Zm1.696-1.206a2.24 2.24 0 0 0-.319-1.014c-.141-.242-.317-.465-.418-.598l-1.593 1.21c.138.18.218.284.281.392.055.095.053.125.052.113l1.997-.103Zm-1.749-1.044c.242.497.568.941.857 1.317.309.402.563.71.777 1.039l1.675-1.093c-.271-.415-.609-.83-.867-1.166-.279-.362-.496-.67-.642-.97l-1.8.873Zm1.634 2.356c.212.325.413.657.628 1.01l1.708-1.042c-.209-.341-.428-.705-.661-1.061l-1.675 1.093Zm.628 1.01c.048.079.095.166.161.287.061.112.137.252.225.391.174.276.444.633.88.875l.971-1.749c-.01-.005-.06-.036-.16-.194a5.496 5.496 0 0 1-.159-.278c-.057-.105-.13-.242-.21-.374l-1.708 1.041Zm1.266 1.553c.397.22.84.185 1.165.03.357-.17.745-.587.687-1.199l-1.991.187a.8.8 0 0 1 .441-.792.723.723 0 0 1 .669.025l-.971 1.749Zm1.852-1.169c-.059-.629-.317-1.193-.572-1.64-.251-.442-.567-.882-.769-1.183l-1.662 1.114c.257.383.49.7.693 1.057.198.35.299.623.319.839l1.991-.187Zm-1.341-2.823c-.302-.45-.617-.895-.955-1.332l-1.582 1.224c.304.394.593.8.875 1.222l1.662-1.114Zm-1.452-.957c.979 1.822 2.185 3.71 3.159 5.432l1.741-.985c-1.081-1.91-2.143-3.542-3.138-5.394l-1.762.947Zm3.159 5.432a180.853 180.853 0 0 1 2.558 4.683l1.769-.933c-.839-1.59-1.7-3.17-2.586-4.735l-1.741.985Zm3.569 3.225a23.065 23.065 0 0 0-4.714-.12l.154 1.994a21.06 21.06 0 0 1 4.306.11l.254-1.985Zm-9.896-7.986c.104.137.176.23.239.326l1.672-1.098c-.111-.168-.236-.33-.318-.437l-1.593 1.209Zm1.051.777c.313.008.626.02.938.035l.102-1.997c-.33-.017-.661-.03-.992-.038l-.048 2Zm1.794-1.557a4.789 4.789 0 0 1-.464-.735l-1.8.873c.189.39.427.74.654 1.049l1.61-1.187Zm.195 1.658c.52.038 1.041.08 1.563.127l.178-1.992a96.345 96.345 0 0 0-1.596-.13l-.145 1.995Zm2.52-1.366a44.556 44.556 0 0 1-.63-1.13l-1.762.947c.214.398.435.79.657 1.177l1.735-.994Zm-3.477.666.227.299 1.606-1.192a24.93 24.93 0 0 0-.251-.33l-1.582 1.223Zm-12.958 4.939a16.79 16.79 0 0 1 2.767-2.167l-1.057-1.698a18.772 18.772 0 0 0-3.098 2.425l1.388 1.44Zm2.842-2.219c.958-.725 2.031-1.23 3.135-1.441l-.377-1.965c-1.444.277-2.796.927-3.965 1.812l1.207 1.594Zm3.236-1.466c1.593-.482 3.281-.656 5.013-.663l-.009-2c-1.852.008-3.747.193-5.583.748l.579 1.915Zm5.801-2.273a8.022 8.022 0 0 0-.184-.228 9.181 9.181 0 0 1-.148-.183 1.137 1.137 0 0 1-.149-.224l-1.828.812c.118.266.276.484.402.646.064.081.129.16.182.224.056.068.101.122.14.173l1.585-1.22ZM110.96 65.484c.67-.079 1.342-.126 2.016-.14l-.044-2c-.737.016-1.474.067-2.208.154l.236 1.986Zm2.89-.697c.741-1.498 2.025-2.866 3.286-4.082l-1.388-1.44c-1.274 1.228-2.784 2.801-3.691 4.635l1.793.887Zm20.075-5.111a1.285 1.285 0 0 0-.977-.478 1.354 1.354 0 0 0-.858.295c-.406.32-.785 1.062-.301 1.787l1.663-1.11a.7.7 0 0 1 .094.551.623.623 0 0 1-.631.477.716.716 0 0 1-.536-.254l1.546-1.268Zm-2.136 1.604c.48.718.865 1.491 1.126 2.296l1.903-.617a11.38 11.38 0 0 0-1.365-2.79l-1.664 1.111Zm1.126 2.296c.131.401.415.717.793.875a1.45 1.45 0 0 0 1.023.033c.301-.102.606-.315.797-.654.205-.364.229-.792.08-1.187l-1.872.706a.608.608 0 0 1 .048-.499.563.563 0 0 1 .307-.261.596.596 0 0 1 .727.37l-1.903.617Zm2.693-.933c-.403-1.068-.934-2.055-1.683-2.967l-1.546 1.268c.588.717 1.018 1.505 1.357 2.405l1.872-.706Zm-14.486-8.869c1.949.096 4.212.23 6.318-.224l-.422-1.955c-1.798.388-3.779.281-5.798.182l-.098 1.997Zm6.318-.224c.3-.065.641-.262.813-.654.149-.343.091-.662.029-.844a1.332 1.332 0 0 0-.301-.492 1.229 1.229 0 0 0-.607-.35l-.448 1.95a.772.772 0 0 1-.386-.213.664.664 0 0 1-.152-.253.827.827 0 0 1 .032-.599.862.862 0 0 1 .598-.5l.422 1.955Zm-.066-2.34c-1.101-.253-2.263-.155-3.137-.131l.056 2c1.047-.03 1.851-.1 2.632.08l.449-1.949Zm-3.137-.131c-1.059.03-2.097.111-3.122.197l.167 1.993a53.897 53.897 0 0 1 3.011-.19l-.056-2Zm-3.122.197c-.724.06-1.119.652-1.164 1.165-.023.268.036.594.259.875.238.3.58.442.912.458l.098-1.997a.772.772 0 0 1 .556.294c.15.189.18.396.167.543a.723.723 0 0 1-.661.655l-.167-1.993Z"
          mask="url(#a)" />
      </g>
    </g>
    <g class="cat">
      <g class="body">
        <path fill="#fff" stroke="#222" stroke-width="3"
          d="M38.769 56.924s-4.27 7.396-4.27 14.867h89.713c0-2.818-2.47-11.217-5.753-15.781.553-7.561-.66-17.814-2.674-19.412-2.014-1.597-10.077.49-14.028 3.611-9.058-4.412-20.043-4.933-28.503-5.14-3.654-5.159-10.386-9.953-12.593-8.791-2.206 1.161-4.735 7.328-5.439 13.931-3.864 1.26-13.046 9.9-16.453 16.715Z"
          class="body" />
        <path fill="#FA835E"
          d="M62.137 31.017c-.953.211-3.495 7.52-3.072 7.996.424.477 10.645-2.277 10.91-2.912.264-.636-6.885-5.296-7.838-5.084Z"
          class="l-ear" opacity=".57" />
        <path fill="#FA835E"
          d="M112.773 41.332c-.99-1.215-11.032 2.665-10.912 4.163.121 1.5 11.833 11.526 12.665 10.737.832-.789-.763-13.684-1.753-14.9Z"
          class="r-ear" opacity=".57" />
        <ellipse cx="51.849" cy="62.64" fill="#FFCBC7" class="pink" rx="5.92" ry="3.217"
          transform="rotate(16.603 51.849 62.64)" />
        <g class="mouth">
          <path stroke="#000" stroke-linecap="round" stroke-width="2"
            d="M67.858 63.112c-.219-3.636 1.814-6.23 4.239-6.45 2.795-.254 4.564 3.325 4.646 7.073.081 3.748-8.667 3.013-8.885-.623Z"
            class="o" />
          <path stroke="#000" stroke-linecap="round" stroke-width="2"
            d="m70.742 59.263 3.73 3.696m-3.967-.274 4.203-3.148" class="x" />
          <ellipse cx="72.316" cy="60.95" fill="#000" class="dot" rx="3.308" ry="2.757"
            transform="rotate(5.382 72.316 60.95)" />
          <path stroke="#000" stroke-linecap="round" stroke-width="2"
            d="M66.025 59.907s1.084 1.206 2.727 1.289c1.644.083 3.089-.87 3.45-.854.362.017 1.336.93 2.832 1.023 1.496.093 2.042-.074 3.585-.939"
            class="normal" />
        </g>
        <g class="eyes">
          <path stroke="#000" stroke-linecap="round" stroke-width="1.5"
            d="m57.674 53.862 3.967 3.44m-3.976-.01 3.985-3.42" class="l-x" />
          <path stroke="#000" stroke-linecap="round" stroke-width="1.5" d="m86.98 59.962-3.237-4.135m3.9.77-4.564 2.596"
            class="r-x" />
          <path stroke="#000" stroke-linecap="round" stroke-width="2" d="m57.246 55.089 4.823.61" class="l-close" />
          <path stroke="#000" stroke-linecap="round" stroke-width="2" d="m82.899 57.589 4.925.612" class="r-close" />
          <circle cx="85.345" cy="58.229" r="3" fill="#000" class="r-normal" />
          <circle cx="59.641" cy="55.728" r="3" fill="#000" class="l-normal" />
        </g>
      </g>
      <g class="under-legs">
        <g class="baguette">
          <path fill="#FFC075"
            d="M119.713 38.634c-6.68 13.278-15.454 25.998-26.995 35.51-1.517 1.252-3.161 2.48-5.093 2.852-1.372.263-3.092-.142-3.55-1.462-.184-.535-.123-1.122-.028-1.68.413-2.435 1.413-4.734 2.57-6.917C89.73 61.06 93.998 55.89 97.965 50.55c4.198-5.652 8.144-11.598 13.458-16.216.964-.838 1.99-1.64 3.181-2.102 1.191-.463 2.581-.55 3.721.027 2.26 1.144 2.172 4.6 1.223 6.575" />
          <path fill="#FD9F58"
            d="M86.243 74.155a7.57 7.57 0 0 0 3.573-1.597c6.169-4.44 11.797-9.122 15.805-15.532 4.044-6.454 5.005-14.122 4.603-21.607.393-.369.791-.732 1.199-1.086.964-.838 1.99-1.64 3.181-2.102 1.191-.463 2.581-.55 3.721.027 2.26 1.144 2.172 4.6 1.223 6.575l.165-.2c-6.68 13.28-15.454 25.999-26.995 35.512-1.517 1.25-3.161 2.48-5.093 2.85-1.372.264-3.092-.141-3.55-1.462-.151-.439-.137-.913-.074-1.378a6.54 6.54 0 0 0 2.242 0Z" />
          <path fill="#FFDC8E"
            d="M114.087 34.939a.638.638 0 0 0-1.137-.148c-1.78 2.73-2.451 6.212-1.728 9.392.484 2.131 1.793 3.001 2.706.598.636-1.674.956-3.471.965-5.26a14.99 14.99 0 0 0-.288-3.011c-.033-.164-.292-.897-.518-1.571Zm-5.722 5.52c-.081 1.53.303 3.04.55 4.551.35 2.147.423 4.363-.063 6.482-.485 2.12-1.561 4.142-3.231 5.534.927-1.774.493-3.912.236-5.897-.346-2.677-.325-5.4.062-8.07.117-.812.284-1.654.793-2.296.408-.514 1.121-.867 1.726-.614l-.073.31Zm-5.647 6.948c-1.468 3.391.283 7.314-.19 10.98-.335 2.592-1.854 5.007-4.045 6.432.721-1.01.977-2.286.997-3.527.02-1.24-.177-2.473-.272-3.71a22.99 22.99 0 0 1 .086-4.441c.255-2.176 1.005-4.559 2.94-5.585m-5.758 18.231c-.41 1.873-1.866 3.48-3.69 4.07.967-1.279 1.722-2.773 1.835-4.371.079-1.109-.152-2.212-.31-3.312-.158-1.1-.24-2.248.122-3.298.191-.553 1.112-2.23 1.82-1.581.47.433-.013 2.083 0 2.665.046 1.94.646 3.892.223 5.827Zm-7.295 6.5c-.083.092-.176.186-.297.213-.482-1.716-.384-3.561.087-5.28.21-.763.594-1.877 1.352-2.277 1.121-.591.854 1.147.824 1.92-.076 1.951-.629 3.95-1.966 5.424Z" />
          <path fill="#FFC075"
            d="M111.895 45.768c1.707-3.355 1.941-7.384 1.101-11.037a.637.637 0 0 1 1.091.208c.226.674.485 1.407.518 1.57.198.991.293 2.002.288 3.012a15.075 15.075 0 0 1-.965 5.26c-.622 1.64-1.429 1.755-2.033.987Z" />
          <path fill="#FD9F58"
            d="M106.993 40.476c.41-.344.962-.529 1.445-.326l-.073.309c-.081 1.53.303 3.04.55 4.551.35 2.147.423 4.363-.063 6.482-.485 2.12-1.561 4.142-3.231 5.534.141-.27.25-.549.333-.834 3.142-4.125.899-10.196.944-15.258a1.8 1.8 0 0 1 .095-.458Zm-5.738 18.23c.097-3.477-1.131-7.148-.107-10.32.313-.329.672-.61 1.086-.83l.484-.149c-1.468 3.391.283 7.314-.19 10.98-.335 2.592-1.854 5.007-4.045 6.432.15-.21.279-.431.39-.662 1.637-1.17 2.268-3.363 2.382-5.451Zm-5.003-1.411c.472.433-.012 2.083.001 2.665.046 1.94.646 3.892.223 5.827-.3 1.373-1.163 2.602-2.32 3.393 2.249-2.877.793-7.837 1.056-11.618.329-.364.708-.572 1.04-.267Zm-5.105 9.568c-.076 1.951-.629 3.95-1.966 5.424-.083.092-.176.186-.297.213a8.216 8.216 0 0 1-.163-.7c1.275-1.962 1.615-4.543 1.752-6.924.945-.359.702 1.251.674 1.987Z" />
          <path fill="#FFC075"
            d="M117.872 38.121c.097.258-.046.571-.292.693-.247.121-.563.058-.765-.128a.899.899 0 0 1-.265-.749c.024-.233.152-.477.376-.548.215-.068.45.045.612.203.192.19.317.446.345.714m-1.38-2.271a.649.649 0 0 1-.219-.518c.02-.69.82-.382.943.083.112.424-.373.724-.724.435Zm-.571 3.849c.072-.194.098-.436-.045-.585-.121-.125-.329-.134-.484-.056-.155.08-.264.228-.339.385a1.516 1.516 0 0 0-.145.714c.005.132.037.277.144.353h.001c.331.233.791-.607.868-.811Zm-.987-2.714a.667.667 0 0 1-.059-.5c.131-.563.685-.23.747.184.062.407-.425.74-.688.316Zm2.285 2.945a.216.216 0 0 0-.07-.103c-.052-.04-.123-.04-.187-.032a.531.531 0 0 0-.366.21.362.362 0 0 0-.011.407c.254.355.748-.169.634-.482ZM87.666 75.362c.06.159-.029.353-.18.428a.435.435 0 0 1-.474-.079.556.556 0 0 1-.163-.463c.015-.144.094-.295.232-.338.133-.042.278.028.378.125a.733.733 0 0 1 .214.441" />
          <path fill="#FD9F58"
            d="M86.594 73.277c.06.16-.03.353-.181.428a.435.435 0 0 1-.473-.079.556.556 0 0 1-.164-.463c.015-.144.095-.294.233-.338.133-.042.278.028.378.126a.732.732 0 0 1 .213.44m10.452-18.999a.402.402 0 0 1-.135-.32c.012-.426.506-.236.582.051.07.263-.23.448-.447.27Zm12.039-14.347a.98.98 0 0 1-.351-.56c-.124-.68.821-.206 1.055.28.213.445-.257.64-.704.28Z" />
          <path fill="#FFC075"
            d="M87.924 76.475c.045-.12.061-.27-.028-.362-.074-.077-.203-.082-.299-.034a.497.497 0 0 0-.209.238.936.936 0 0 0-.09.441c.004.081.023.171.09.218.205.144.489-.375.536-.501Zm-1.781-.17a.413.413 0 0 1-.036-.309c.081-.348.423-.142.462.114.038.252-.263.458-.426.195Z" />
          <path fill="#FD9F58"
            d="M84.882 72.954a.413.413 0 0 1-.037-.309c.082-.348.424-.142.462.114.038.252-.262.458-.425.195Zm7.657-9.673a.137.137 0 0 0-.043-.064c-.032-.024-.076-.025-.116-.02a.33.33 0 0 0-.226.13c-.051.073-.059.179-.007.252.157.22.463-.104.392-.298Z" />
          <path fill="#FFC075"
            d="M111.551 49.972c.035.138-.045.291-.171.357a.415.415 0 0 1-.406-.03c-.28-.18-.253-.673.045-.821.297-.149.707.127.683.458m-2.488 1.94c-.593.568-.261 1.83.653 1.342.954-.51.09-2.055-.653-1.342Zm.005-2.346c-.142-.047-.191-.219-.216-.366-.079-.47.214-1.443.805-.872.384.37-.006 1.43-.589 1.238Zm2.848-2.472c-.132.04-.278.07-.404.013-.128-.057-.19-.188-.194-.328a.493.493 0 0 1 .13-.35c.663-.682 1.269.422.468.665ZM84.89 76.341c-.24-.02-.45-.195-.556-.412a.616.616 0 0 1-.062-.402c.294-1.292 2.03.936.619.814Zm12.207-6.65c-.197.18-.491.206-.754.16-.25-.042-.507-.156-.634-.376-.344-.598.375-1.08.91-1.03.568.052.983.787.478 1.246Zm1.781-2.828c-.14-.063-.213-.22-.24-.372-.11-.599.6-1.223 1.048-.613.351.476-.256 1.233-.808.985Z" />
          <path fill="#FD9F58"
            d="M103.082 55.205c-.109.099-.271.113-.416.089-.138-.024-.28-.087-.35-.209-.19-.33.207-.596.502-.568.314.029.543.434.264.688Zm.544-3.655c-.109.099-.271.113-.416.088-.139-.023-.28-.086-.35-.208-.19-.33.206-.596.502-.568.313.029.542.434.264.688Zm-6.071 11.095c-.109.098-.271.113-.416.088-.138-.023-.28-.086-.35-.208-.19-.33.207-.596.502-.568.314.029.543.434.264.688Zm6.51-9.001c-.077-.035-.118-.122-.133-.206-.06-.33.332-.674.579-.338.194.263-.141.68-.446.544Zm-18.51 18.275c-.078-.035-.118-.122-.133-.206-.06-.33.331-.674.579-.338.193.263-.142.68-.446.544Zm23.825-33.36c-.078-.035-.118-.122-.133-.206-.06-.33.331-.674.579-.338.193.263-.142.68-.446.544Z" />
        </g>
      </g>
      <g class="r-down">
        <g class="Vector 12 (Stroke)">
          <path fill="#222"
            d="M100.603 61.205c-.864 1.038-2.762 3.744-4.523 6.41a122.506 122.506 0 0 0-2.471 3.878c-.69 1.137-1.282 2.185-1.557 2.862-.439 1.076-1.078 2.66-1.228 4.292-.157 1.701.208 3.615 1.925 5.087 1.833 1.57 4.205 1.343 6.04.857 1.414-.375 2.879-1.012 4.009-1.504.35-.152.668-.29.942-.403 1.482-.606 3.396-1.895 5.232-3.167.324-.224.648-.45.971-.675h.001c1.58-1.102 3.129-2.181 4.497-2.983 1.466-.86 4.056-1.537 6.461-2a59.91 59.91 0 0 1 3.918-.617l-2.262-2.962c-.703.304-.994.396-2.224.633-2.39.46-5.451 1.209-7.41 2.357-1.481.868-3.15 2.032-4.729 3.133-.315.22-.626.437-.932.648-1.913 1.327-3.542 2.4-4.658 2.856-.387.158-.781.33-1.181.504-1.091.474-2.232.97-3.404 1.28-1.62.43-2.672.32-3.319-.235-.763-.654-.987-1.478-.89-2.534.104-1.124.563-2.315 1.02-3.437.171-.423.64-1.277 1.343-2.437a119.604 119.604 0 0 1 2.408-3.78c1.77-2.678 2.967-4.397 3.71-5.29l-1.689-2.773Z" />
          <path fill="#fff"
            d="M102.292 63.978c-.743.893-1.94 2.612-3.71 5.29a119.604 119.604 0 0 0-2.408 3.78c-.703 1.16-1.172 2.014-1.344 2.437-.456 1.122-.915 2.313-1.019 3.438-.097 1.055.127 1.879.89 2.533.647.555 1.7.664 3.32.235 1.171-.31 2.312-.806 3.403-1.28.4-.174.794-.346 1.181-.504 1.116-.456 2.745-1.53 4.658-2.855l.932-.649c1.579-1.1 3.248-2.265 4.729-3.133 1.959-1.148 5.02-1.896 7.41-2.357 1.23-.237 1.521-.33 2.224-.633l-16.123-7.549-4.143 1.247Z" />
        </g>
        <path stroke="#fff" stroke-linecap="round" stroke-width="3"
          d="m82.34 84.645 4.427-2.903M88.8 92.011l3.338-5.334m7.257.798v4.536" class="hit" />
      </g>
      <g class="l-down">
        <g class="Vector 14 (Stroke)">
          <path fill="#222" fill-rule="evenodd"
            d="M34.557 58.226c3.495-4.82 8.263-10.12 13.63-14.963l1.79 2.323c-5.229 4.716-9.631 9.766-12.991 14.4-1.68 2.318-3.03 4.486-3.979 6.392-.962 1.93-1.463 3.488-1.553 4.609-.2 2.475.523 3.846 1.533 4.525 1.084.73 2.98 1 5.797.185 2.64-.763 4.445-1.362 6.136-1.924l.653-.216a93.146 93.146 0 0 1 6.585-1.955c2.958-.763 7.924-1.11 12.015-1.275 2.074-.084 3.967 0 5.346-.018a177.525 177.525 0 0 1 2.088-.015h.159v1.379l-.005 1.5h-.588a194.297 194.297 0 0 0-6.879.151c-4.135.168-8.786.512-11.387 1.183a90.135 90.135 0 0 0-6.392 1.898c-.215.07-.43.142-.65.215a150.922 150.922 0 0 1-6.248 1.96c-3.213.928-6.164.862-8.305-.58-2.217-1.491-3.1-4.128-2.848-7.254.135-1.68.827-3.638 1.858-5.706 1.043-2.093 2.488-4.405 4.235-6.814Z"
            clip-rule="evenodd" />
          <path fill="#fff"
            d="M49.976 45.586c-5.228 4.716-9.63 9.766-12.99 14.4-1.68 2.318-3.03 4.486-3.979 6.392-.962 1.93-1.463 3.488-1.553 4.609-.2 2.475.523 3.846 1.533 4.525 1.084.73 2.98 1 5.797.185 2.64-.763 4.445-1.362 6.136-1.924l.653-.216a93.146 93.146 0 0 1 6.585-1.955c2.958-.763 7.924-1.11 12.015-1.275 2.074-.084 3.967 0 5.346-.018a177.525 177.525 0 0 1 2.088-.015h.159l-2.247-.721H37.282l1.502-5.676 4.278-9.111 6.914-9.2Z" />
        </g>
        <path stroke="#fff" stroke-linecap="round" stroke-width="3"
          d="m25.248 75.881-5.373 3.07m10.002 1.875-4.068 6.37m10.834-5.407.998 4.145" class="hit" />
      </g>
      <g class="r-up">
        <g class="Vector 16 (Stroke)">
          <path fill="#222"
            d="M91.898 54.167c-1.142-2.597-1.003-5.198-.021-6.592.454-.646 1.122-1.099 2.109-1.225 1.031-.132 2.506.086 4.494 1.027 4.132 1.955 7.072 4.273 8.969 6.089.949.908 1.094 1.049 1.538 1.595l3.76.123c-.133-.181-.634-1.062-.891-1.378a27.831 27.831 0 0 0-2.333-2.508c-2.093-2.003-5.294-4.52-9.76-6.633-2.31-1.093-4.375-1.518-6.157-1.29-1.827.233-3.246 1.143-4.183 2.473-1.8 2.56-1.66 6.368-.27 9.527 1.307 2.971 3.742 7.268 5.814 10.77a301.985 301.985 0 0 0 3.773 6.2l.082.13 1.268-.8 1.269-.801-.078-.124-.225-.36a301.443 301.443 0 0 1-3.507-5.772c-2.078-3.511-4.425-7.665-5.65-10.451Z" />
          <path fill="#fff"
            d="M91.877 47.575c-.982 1.394-1.121 3.995.021 6.592 1.226 2.785 3.573 6.94 5.65 10.45a301.443 301.443 0 0 0 2.681 4.44l14.994-11.727-2.476-2.146-3.76-.123c-.444-.546-.589-.687-1.538-1.595-1.897-1.816-4.837-4.134-8.969-6.09-1.988-.94-3.463-1.157-4.494-1.026-.987.127-1.655.58-2.11 1.225Z" />
        </g>
        <ellipse cx="98.215" cy="57.237" fill="#FFA083" class="Ellipse 113" rx="4.108" ry="4.011" />
        <ellipse cx="94.554" cy="50.861" fill="#FFA083" class="Ellipse 114" rx="2.699" ry="2.635" />
        <ellipse cx="99.668" cy="50.431" fill="#FFA083" class="Ellipse 115" rx="1.786" ry="1.743" />
      </g>
      <g class="l-up">
        <g class="Vector 11 (Stroke)">
          <path fill="#222"
            d="M28.491 47.382c.657-.556 1.977-.725 3.88-.3 1.794.403 3.637 1.235 4.817 1.955 1.15.702 3.506 2.727 5.686 4.699 1.064.961-.167-.217.552.456a211.192 211.192 0 0 1 1.087 1.026l.08.077 4.288-.077-.084-.08-.238-.226a217.812 217.812 0 0 0-3.673-3.401c-2.109-1.907-4.692-4.155-6.136-5.036-1.416-.863-3.562-1.835-5.724-2.32-2.055-.46-4.66-.597-6.472.936-3.13 2.649-3.183 6.828-2.533 10.404.682 3.751 3.205 10.497 8.997 17.78l2.349-1.866a54.521 54.521 0 0 1-.868-1.12c-4.895-6.494-6.974-12.292-7.527-15.33-.616-3.39-.289-6.048 1.52-7.578Z" />
          <path fill="#fff"
            d="M32.37 47.083c-1.902-.426-3.222-.257-3.879.299-1.808 1.53-2.135 4.188-1.519 7.576.553 3.039 2.632 8.837 7.527 15.33h2.444l2.947-8.964 3.27-5.83 1.433-.2-.08-.076a149.814 149.814 0 0 0-1.087-1.026c-.719-.673.512.505-.552-.456-2.18-1.972-4.535-3.997-5.686-4.7-1.18-.719-3.023-1.551-4.818-1.953Z" />
        </g>
        <ellipse cx="33.436" cy="57.82" fill="#FFA083" class="Ellipse 113" rx="4.427" ry="4.322" />
        <ellipse cx="29.783" cy="50.864" fill="#FFA083" class="Ellipse 114" rx="2.699" ry="2.635" />
        <ellipse cx="34.791" cy="50.864" fill="#FFA083" class="Ellipse 115" rx="1.786" ry="1.743" />
      </g>
    </g>
  </g>
</svg>