<svg xmlns="http://www.w3.org/2000/svg" fill="none" viewBox="0 0 81 81">
  <path fill="#fff" fill-rule="evenodd"
    d="M7.054 70.195c0 6.895 3.346 10.283 10.12 10.283H46.61c6.774 0 10.162-3.428 10.162-10.283V46.123c0-4.476-.484-6.371-3.267-9.234L36.772 19.792c-2.621-2.702-4.799-3.266-8.67-3.266H17.175c-6.775 0-10.121 3.427-10.121 10.282v43.387ZM12.86 26.89v43.226c0 2.903 1.573 4.556 4.597 4.556h28.87c3.025 0 4.598-1.653 4.598-4.556v-23.55h-17.46c-2.493 0-4.26-.741-5.282-2.232-.697-1.017-1.049-2.382-1.049-4.098V22.332h-9.637c-3.064 0-4.637 1.654-4.637 4.557Zm19.678 12.66c0 1.13.483 1.613 1.613 1.613h15.685L32.538 23.461v16.09Z"
    clip-rule="evenodd" />
  <path fill="#fff" fill-rule="evenodd"
    d="M22.376 22.332V10.76c0-6.855 3.347-10.282 10.121-10.282h11.775c3.83 0 6.774.927 9.233 3.467L68.626 19.39c2.581 2.661 3.468 5.443 3.468 9.838v24.92c0 6.855-3.387 10.282-10.161 10.282H50.925v-5.806H61.65c3.024 0 4.596-1.654 4.596-4.557V27.574H52.215c-3.79 0-5.685-1.895-5.685-5.726V6.285H32.82c-3.065 0-4.637 1.653-4.637 4.556v33.494c-.697-1.017-1.049-2.382-1.049-4.098V22.332h-4.758ZM51.731 8.945v12.016c0 1.009.403 1.412 1.411 1.412h11.694L51.731 8.945Z"
    clip-rule="evenodd" />
</svg>