<svg xmlns="http://www.w3.org/2000/svg" width="32" height="32" fill="currentColor" viewBox="0 0 32 32">
  <path d="m23.744 9.61-.33-.268-1.228-.041-1.444 3.825 1.157 1.369 1.466.553 1.84-2.654-.18-1.742-.64-.521 1.29-3.42-.732-.276-1.199 3.175ZM13.173 8.089c.046.043 2.615-1.28 4.091-2.044 1.43.738 4.099 2.109 4.167 2.109.125-.032.244-.082.355-.148a.302.302 0 0 0 0-.455L17.61 3.705a.367.367 0 0 0-.267-.093.367.367 0 0 0-.293.09l-4.176 3.839a.302.302 0 0 0 0 .455l.3.093Zm8.355 6.406-2.492 2.017 2.622-1.764c.285-.397-.13-.253-.13-.253Zm-8.553-.472 1.34 1.119s-1.354-1.42-1.48-1.604c-.127-.183-.436.004.14.485Zm3.387-3.89.065 2.53s.263-2.831.344-3.144c.082-.312-.437-.475-.409.614Z"/>
  <path fill-rule="evenodd" d="m22.688 17.172 1.911.956v.956l-2.278 2.867h-7.743l-.924-.925 1.583-1.583a1.973 1.973 0 0 0 0-2.791l-.401-.402a1.978 1.978 0 0 0-.41-.315l-.501-.561.965.158-1.291-2.298 1.844 1.433-.455-4.305 1.587 3.551 1.458-5.9-.207 6.739 2.189-1.953-1.5 2.73 1.738-1.08-.6.875c-.03.045-.652.947-1.32 1.656a7.41 7.41 0 0 1-.182.187l-.005.005h4.541Zm-12.627.262.4.4.662-.662h-.777l-.285.262Z" clip-rule="evenodd"/>
  <path d="M6.83 18.466a.473.473 0 0 1 0-.67l.402-.4a.473.473 0 0 1 .67 0l2.008 2.008a.473.473 0 0 1 0 .669l-.402.402a.473.473 0 0 1-.67 0L6.83 18.466Zm4.183 4.183a.473.473 0 0 1 0-.67l.402-.401a.474.474 0 0 1 .669 0l2.008 2.008a.473.473 0 0 1 0 .67l-.401.401a.473.473 0 0 1-.67 0l-2.008-2.008Zm1.155-2.259a.474.474 0 0 1-.67 0l-.4-.401a.474.474 0 0 1 0-.67l2.008-2.008a.473.473 0 0 1 .669 0l.402.401a.473.473 0 0 1 0 .67l-2.009 2.008Zm-4.351 4.352a.473.473 0 0 1-.67 0l-.401-.402a.473.473 0 0 1 0-.67l2.008-2.008a.473.473 0 0 1 .67 0l.401.402a.473.473 0 0 1 0 .67l-2.008 2.008Z"/>
</svg>
