<svg xmlns="http://www.w3.org/2000/svg" width="32" height="32" fill="currentColor" viewBox="0 0 32 32">
  <circle cx="8.141" cy="9.939" r="1.616"/>
  <circle cx="8.141" cy="9.939" r="1.616"/>
  <path d="M12.626 8.286c-.324.164-.62-.264-.352-.51l3.804-3.483a.365.365 0 0 1 .493 0l3.803 3.484c.268.245-.028.673-.352.509l-3.698-1.87-3.698 1.87Zm12.031 1.411-.364-.295-1.354-.046-1.593 4.219 1.276 1.51 1.617.61 2.028-2.928-.197-1.92-.707-.575L26.787 6.5l-.808-.306-1.322 3.502Zm-19.466 9.5a.501.501 0 0 1 0-.71l.426-.425a.501.501 0 0 1 .709 0l2.127 2.127a.501.501 0 0 1 0 .71l-.426.425a.501.501 0 0 1-.709 0l-2.127-2.127Zm4.43 4.429a.501.501 0 0 1 0-.709l.425-.425a.501.501 0 0 1 .71 0l2.126 2.127a.501.501 0 0 1 0 .709l-.425.425a.501.501 0 0 1-.71 0l-2.126-2.127Zm1.224-2.392a.501.501 0 0 1-.71 0l-.425-.425a.501.501 0 0 1 0-.71l2.127-2.126a.501.501 0 0 1 .71 0l.425.425a.501.501 0 0 1 0 .71l-2.127 2.126Zm-4.609 4.609a.501.501 0 0 1-.709 0l-.425-.426a.501.501 0 0 1 0-.709l2.127-2.127a.501.501 0 0 1 .709 0l.425.426a.501.501 0 0 1 0 .709l-2.127 2.127ZM20.757 14.99l-2.64 2.137 2.777-1.868c.303-.42-.137-.268-.137-.268Zm-9.057-.498 1.418 1.184s-1.434-1.504-1.568-1.698c-.134-.194-.461.004.15.514Zm3.586-4.121.07 2.68s.277-2.998.363-3.33c.087-.33-.463-.502-.433.65Z"/>
  <path fill-rule="evenodd" d="m21.985 17.826 2.024 1.012v1.013l-2.412 3.036h-8.2l-.98-.98 1.678-1.676a2.09 2.09 0 0 0 0-2.956l-.426-.425a2.094 2.094 0 0 0-.434-.334l-.53-.594 1.021.167-1.367-2.433 1.953 1.517-.48-4.558 1.68 3.76 1.543-6.25-.218 7.138 2.317-2.068-1.588 2.892 1.841-1.144-.636.926c-.033.048-.69 1.003-1.398 1.754a7.778 7.778 0 0 1-.193.198l-.005.005h4.81Zm-13.372.277.424.424.7-.7h-.823l-.3.276Z" clip-rule="evenodd"/>
</svg>
