<svg xmlns="http://www.w3.org/2000/svg" width="32" height="32" fill="currentColor" viewBox="0 0 32 32">
  <path d="M18.351 18.272h2.976l1.911.956v.955l-2.278 2.868H10.445l-2.5-2.868v-.956l1.04-.955h9.367Zm4.032-7.562-.33-.268-1.228-.04-1.444 3.824 1.157 1.37 1.466.553 1.84-2.655-.18-1.742-.64-.52 1.29-3.42-.732-.277-1.199 3.175ZM11.755 9.49c.045.043 2.615-1.28 4.09-2.044 1.43.738 4.1 2.109 4.168 2.109.124-.032.244-.082.354-.148a.303.303 0 0 0 0-.455l-4.176-3.846a.365.365 0 0 0-.267-.093.367.367 0 0 0-.292.09l-4.176 3.84a.303.303 0 0 0 0 .454l.299.093Z"/>
  <path d="m13.627 11.462.455 4.305-1.844-1.433 1.29 2.298-.964-.159 1.473 1.652c.053.06.103.114.151.166.326.347.572.522 1.052.611.11.02.233.037.373.05a.595.595 0 0 0 .097 0c.193-.014.411-.12.67-.32.064-.05.13-.104.199-.166a5.57 5.57 0 0 0 .393-.386 15.987 15.987 0 0 0 1.32-1.656l.6-.875-1.738 1.08 1.5-2.73-2.188 1.952.206-6.74-1.458 5.902-1.587-3.551Zm6.54 4.132-2.492 2.018 2.622-1.764c.286-.397-.13-.254-.13-.254Z"/>
  <path d="m11.614 15.123 1.34 1.118s-1.354-1.42-1.48-1.604c-.127-.183-.436.005.14.486Zm3.387-3.891.066 2.53s.262-2.83.343-3.143c.082-.312-.437-.475-.409.613Z"/>
</svg>
