<svg xmlns="http://www.w3.org/2000/svg" width="32" height="32" fill="currentColor" viewBox="0 0 32 32">
  <path d="m21.148 8.993-.423.04-.905.831 1.649 3.741 1.785.167 1.433-.632-.546-3.183-1.349-1.118-.822.077-1.474-3.345-.716.316 1.368 3.106ZM6.819 18.506a.473.473 0 0 1 0-.67l.402-.401a.473.473 0 0 1 .67 0l2.007 2.008a.473.473 0 0 1 0 .67l-.401.401a.473.473 0 0 1-.67 0L6.82 18.506Zm4.183 4.182a.473.473 0 0 1 0-.67l.401-.4a.474.474 0 0 1 .67 0l2.008 2.008a.473.473 0 0 1 0 .669l-.401.402a.473.473 0 0 1-.67 0l-2.008-2.009Zm1.155-2.258a.474.474 0 0 1-.67 0l-.401-.402a.474.474 0 0 1 0-.67l2.008-2.008a.473.473 0 0 1 .67 0l.402.402a.473.473 0 0 1 0 .67l-2.009 2.008Zm-4.351 4.351a.473.473 0 0 1-.67 0l-.401-.402a.473.473 0 0 1 0-.67l2.008-2.008a.473.473 0 0 1 .67 0l.401.402a.473.473 0 0 1 0 .67L7.806 24.78Zm13.711-10.247-2.492 2.017 2.622-1.764c.285-.397-.13-.253-.13-.253Zm-8.553-.471 1.34 1.118s-1.354-1.42-1.48-1.604c-.127-.183-.436.005.14.486Zm3.386-3.891.066 2.53s.262-2.831.344-3.143c.082-.312-.437-.475-.41.613Z"/>
  <path fill-rule="evenodd" d="m22.676 17.211 1.912.956v.956L22.31 21.99h-7.743l-.925-.924 1.584-1.584c.77-.77.77-2.02 0-2.79l-.402-.403a1.978 1.978 0 0 0-.41-.315l-.5-.56.964.157-1.29-2.298 1.844 1.433-.455-4.304 1.587 3.55 1.458-5.9-.207 6.739 2.189-1.953-1.5 2.73 1.738-1.079-.6.874c-.031.046-.653.948-1.32 1.656a7.41 7.41 0 0 1-.182.188l-.005.004h4.541Zm-12.626.262.4.4.662-.662h-.778l-.284.262Z" clip-rule="evenodd"/>
</svg>
