<svg xmlns="http://www.w3.org/2000/svg" width="32" height="32" fill="currentColor" viewBox="0 0 32 32">
  <path d="m21.148 8.954-.423.04-.905.83 1.649 3.742 1.785.166 1.433-.631-.546-3.183L22.792 8.8l-.822.077-1.474-3.345-.716.316 1.368 3.106ZM6.819 18.466a.473.473 0 0 1 0-.67l.402-.4a.473.473 0 0 1 .67 0l2.007 2.008a.473.473 0 0 1 0 .669l-.401.402a.473.473 0 0 1-.67 0L6.82 18.466Zm4.183 4.183a.473.473 0 0 1 0-.67l.401-.401a.474.474 0 0 1 .67 0l2.008 2.008a.473.473 0 0 1 0 .67l-.401.401a.473.473 0 0 1-.67 0l-2.008-2.008Zm1.155-2.259a.474.474 0 0 1-.67 0l-.401-.401a.474.474 0 0 1 0-.67l2.008-2.008a.473.473 0 0 1 .67 0l.402.401a.473.473 0 0 1 0 .67l-2.009 2.008Zm-4.351 4.352a.473.473 0 0 1-.67 0l-.401-.402a.473.473 0 0 1 0-.67l2.008-2.008a.473.473 0 0 1 .67 0l.401.402a.473.473 0 0 1 0 .67l-2.008 2.008Zm13.711-10.247-2.492 2.017 2.622-1.764c.285-.397-.13-.253-.13-.253Zm-8.553-.472 1.34 1.119s-1.354-1.42-1.48-1.604c-.127-.183-.436.004.14.485Zm3.386-3.89.066 2.53s.262-2.831.344-3.144c.082-.312-.437-.475-.41.614Z"/>
  <path fill-rule="evenodd" d="m22.676 17.172 1.912.956v.956L22.31 21.95h-7.743l-.925-.925 1.584-1.583c.77-.771.77-2.02 0-2.791l-.402-.402a1.978 1.978 0 0 0-.41-.315l-.5-.561.964.158-1.29-2.298 1.844 1.433-.455-4.305 1.587 3.551 1.458-5.9-.207 6.739 2.189-1.953-1.5 2.73 1.738-1.08-.6.875c-.031.045-.653.947-1.32 1.656a7.41 7.41 0 0 1-.182.187l-.005.005h4.541Zm-12.626.262.4.4.662-.662h-.778l-.284.262Z" clip-rule="evenodd"/>
  <path d="m1.144 17.747 3.646 5.128h.912l-2.735-5.128 2.735-5.128H4.79l-3.646 5.128Zm29.712 0L27.21 12.62h-.912l2.735 5.128-2.735 5.128h.912l3.646-5.128Z"/>
</svg>
