<svg xmlns="http://www.w3.org/2000/svg" width="32" height="32" fill="currentColor" viewBox="0 0 32 32">
  <path d="M18.351 18.272h2.976l1.911.956v.955l-2.278 2.868H10.445l-2.5-2.868v-.956l1.04-.955h9.367Zm1.447-8.219-.423.04-.905.831 1.649 3.742 1.785.166 1.434-.632-.547-3.183L21.443 9.9l-.822.077-1.474-3.345-.717.315 1.368 3.106Z"/>
  <path d="m13.627 11.462.455 4.305-1.844-1.433 1.29 2.298-.964-.159 1.473 1.652c.053.06.103.114.151.166.326.347.572.522 1.052.611.11.02.233.037.373.05a.595.595 0 0 0 .097 0c.193-.014.411-.12.67-.32.064-.05.13-.104.199-.166a5.57 5.57 0 0 0 .393-.386 15.987 15.987 0 0 0 1.32-1.656l.6-.875-1.738 1.08 1.5-2.73-2.188 1.952.206-6.74-1.458 5.902-1.587-3.551Zm6.54 4.132-2.492 2.018 2.622-1.764c.286-.397-.13-.254-.13-.254Z"/>
  <path d="m11.614 15.123 1.34 1.118s-1.354-1.42-1.48-1.604c-.127-.183-.436.005.14.486Zm3.387-3.891.066 2.53s.262-2.83.343-3.143c.082-.312-.437-.475-.409.613Z"/>
</svg>
