<svg xmlns="http://www.w3.org/2000/svg" width="32" height="32" fill="currentColor" viewBox="0 0 32 32">
  <path d="M18.352 16.611h2.763l1.775.888v.887l-2.115 2.663h-9.763L8.69 18.386V17.5l.964-.888h8.697Zm1.344-7.631-.393.038-.84.772 1.53 3.474 1.658.154 1.331-.587-.508-2.955-1.252-1.038-.763.072-1.368-3.106-.666.293 1.27 2.884Z"/>
  <path d="m13.966 10.289.422 3.997-1.712-1.331 1.198 2.134-.895-.147 1.368 1.533c.05.055.095.106.14.154.303.322.53.485.976.568.103.02.217.034.347.046a.54.54 0 0 0 .09 0c.179-.013.382-.11.622-.297a3.541 3.541 0 0 0 .38-.339 7.03 7.03 0 0 0 .17-.174 14.823 14.823 0 0 0 1.226-1.537l.557-.812-1.614 1.002 1.392-2.535-2.031 1.813.191-6.257-1.353 5.479-1.474-3.297Zm6.072 3.836L17.724 16l2.435-1.638c.265-.369-.12-.236-.12-.236Z"/>
  <path d="m12.097 13.688 1.244 1.038s-1.257-1.319-1.374-1.489c-.118-.17-.405.004.13.45Zm3.145-3.613.06 2.35s.244-2.629.32-2.919c.075-.29-.406-.441-.38.57ZM4.038 15.92l3.646 5.129h.912L5.861 15.92l2.735-5.128h-.912L4.038 15.92Zm23.924 0-3.646-5.127h-.912l2.735 5.128-2.735 5.128h.912l3.646-5.128Z"/>
</svg>
