<svg xmlns="http://www.w3.org/2000/svg" width="32" height="32" fill="currentColor" viewBox="0 0 32 32">
  <path d="m24.657 9.697-.364-.295-1.354-.046-1.593 4.219 1.276 1.51 1.617.61 2.028-2.928-.197-1.92-.707-.575L26.787 6.5l-.808-.306-1.322 3.502ZM12.626 8.286c-.324.164-.62-.264-.352-.51l3.804-3.483a.365.365 0 0 1 .493 0l3.803 3.484c.268.245-.028.673-.352.509l-3.698-1.87-3.698 1.87Zm6.211 9.534h3.154l2.027 1.014v1.013l-2.415 3.04H10.454l-2.65-3.04v-1.013l1.101-1.013h9.932Z"/>
  <path d="m13.828 10.6.482 4.564-1.956-1.52 1.37 2.437-1.024-.167 1.563 1.75c.056.064.109.122.16.176.345.369.606.555 1.115.649.117.022.247.04.395.052a.643.643 0 0 0 .103 0c.204-.014.436-.126.71-.34a4.031 4.031 0 0 0 .435-.386c.065-.064.13-.13.194-.198.707-.752 1.366-1.708 1.4-1.756l.636-.927-1.844 1.145 1.59-2.895-2.32 2.07.22-7.146-1.547 6.257-1.682-3.765Zm6.934 4.381-2.642 2.14 2.78-1.871c.303-.42-.138-.269-.138-.269Z"/>
  <path d="m11.694 14.482 1.42 1.186s-1.436-1.507-1.57-1.701c-.134-.194-.462.004.15.515Zm3.591-4.126.069 2.682s.278-3 .365-3.332c.086-.331-.464-.504-.434.65Z"/>
</svg>
