<svg xmlns="http://www.w3.org/2000/svg" width="32" height="32" fill="currentColor" viewBox="0 0 32 32">
  <circle cx="9.449" cy="8.304" r="1.616"/>
  <circle cx="9.449" cy="8.304" r="1.616"/>
  <path d="m28.68 16-3.647-5.128h-.911L26.857 16l-2.735 5.128h.911L28.68 16ZM3.327 16l3.646 5.128h.912L5.15 16l2.735-5.128h-.912L3.327 16Z"/>
  <path d="M7.658 17.837a.439.439 0 0 1 0-.62l.373-.372a.439.439 0 0 1 .62 0l1.86 1.86a.439.439 0 0 1 0 .62l-.371.373a.439.439 0 0 1-.62 0l-1.862-1.86Zm3.876 3.876a.439.439 0 0 1 0-.62l.372-.373a.439.439 0 0 1 .62 0l1.861 1.861a.439.439 0 0 1 0 .62l-.372.372a.439.439 0 0 1-.62 0l-1.861-1.86Zm1.07-2.093a.439.439 0 0 1-.62 0l-.372-.372a.439.439 0 0 1 0-.62l1.86-1.861a.439.439 0 0 1 .621 0l.372.372a.439.439 0 0 1 0 .62l-1.86 1.86Zm-4.031 4.032a.439.439 0 0 1-.62 0l-.373-.373a.439.439 0 0 1 0-.62l1.861-1.86a.439.439 0 0 1 .62 0l.373.372a.439.439 0 0 1 0 .62l-1.861 1.86Zm12.703-9.495-2.308 1.87 2.429-1.635c.264-.367-.12-.235-.12-.235Zm-7.924-.437 1.242 1.037s-1.255-1.316-1.372-1.486c-.117-.17-.404.004.13.45Zm3.138-3.604.06 2.344s.243-2.623.32-2.912c.075-.29-.406-.44-.38.568Z"/>
  <path fill-rule="evenodd" d="m22.35 16.638 1.772.886v.885l-2.11 2.657h-7.175l-.856-.857 1.467-1.467a1.828 1.828 0 0 0 0-2.586l-.372-.372a1.834 1.834 0 0 0-.38-.292l-.464-.52.894.147-1.196-2.13 1.708 1.328-.42-3.988 1.47 3.29 1.35-5.468-.191 6.245 2.027-1.81-1.39 2.53 1.611-1-.556.81c-.028.042-.604.877-1.223 1.534-.056.06-.112.118-.169.174l-.004.004h4.208Zm-11.698.243.37.37.614-.613h-.72l-.264.243Z" clip-rule="evenodd"/>
  <path d="m20.927 9.026-.393.037-.84.772 1.53 3.474 1.659.155 1.331-.587-.508-2.956-1.252-1.038-.763.072-1.37-3.107-.665.293 1.271 2.885Z"/>
</svg>
