<svg xmlns="http://www.w3.org/2000/svg" width="32" height="32" fill="currentColor" viewBox="0 0 32 32">
  <path d="M13.559 17.041a.171.171 0 0 1 .242 0l1.974 1.975a.171.171 0 0 1 0 .242l-.485.485a.172.172 0 0 1-.243 0l-1.25-1.25a.171.171 0 0 0-.242 0l-1.25 1.25a.171.171 0 0 1-.242 0l-.485-.485a.171.171 0 0 1 0-.242l1.98-1.974Z"/>
  <path fill-rule="evenodd" d="M7.721 18.57v-.355c0-.237.192-.428.428-.428h.64a4.927 4.927 0 0 1 4.281-4.282v-.64c0-.236.192-.428.429-.428h.355c.237 0 .428.192.428.429v.639a4.927 4.927 0 0 1 4.282 4.282h.64c.236 0 .427.191.427.428v.355a.428.428 0 0 1-.428.428h-.639a4.927 4.927 0 0 1-4.282 4.282v.64a.428.428 0 0 1-.428.428h-.355a.428.428 0 0 1-.429-.429v-.639a4.927 4.927 0 0 1-4.281-4.282h-.64a.428.428 0 0 1-.428-.428Zm5.955 3.462a3.643 3.643 0 0 0 3.59-4.246 3.643 3.643 0 0 0-4.195-2.983 3.643 3.643 0 0 0-2.985 4.195 3.643 3.643 0 0 0 3.59 3.034Z" clip-rule="evenodd"/>
  <path d="m18.448 12.256 1.974 1.974a.172.172 0 0 1 0 .243l-.485.485a.171.171 0 0 1-.242 0l-1.25-1.25a.171.171 0 0 0-.242 0l-.7.7a5.555 5.555 0 0 0-.81-.644l1.513-1.508a.171.171 0 0 1 .242 0Z"/>
  <path fill-rule="evenodd" d="M21.913 14.213a3.644 3.644 0 0 1-2.848 2.959l.004.015h.134c.546 0 .992.425 1.026.963a4.93 4.93 0 0 0 2.983-3.937h.639a.428.428 0 0 0 .428-.428v-.355a.428.428 0 0 0-.429-.43h-.64a4.927 4.927 0 0 0-4.28-4.28v-.64a.428.428 0 0 0-.429-.428h-.355a.428.428 0 0 0-.428.428v.64a4.93 4.93 0 0 0-3.992 3.118h.128c.462 0 .852.305.982.724a3.645 3.645 0 0 1 4.094-2.545 3.643 3.643 0 0 1 2.983 4.196Z" clip-rule="evenodd"/>
  <path d="m3.163 16 3.647 5.128h.911L4.986 16l2.735-5.128H6.81L3.163 16Zm25.674 0-3.647-5.128h-.911L27.014 16l-2.735 5.128h.911L28.837 16Z"/>
</svg>
