<svg xmlns="http://www.w3.org/2000/svg" width="32" height="32" fill="currentColor" viewBox="0 0 32 32">
  <path d="m4.075 16 3.647 5.128h.911L5.9 16l2.734-5.128h-.911L4.075 16ZM28 16l-3.646-5.128h-.912L26.177 16l-2.735 5.128h.912L28 16Zm-10.305.002a1.695 1.695 0 1 1-3.39 0 1.695 1.695 0 0 1 3.39 0Z"/>
  <path fill-rule="evenodd" d="M16.072 11.885a.785.785 0 0 1 .93-.606 4.828 4.828 0 0 1 3.64 6.05.785.785 0 1 1-1.511-.431 3.257 3.257 0 0 0-2.453-4.082.785.785 0 0 1-.606-.93Zm-3.739 2.242c.417.12.658.555.538.972a3.257 3.257 0 0 0 2.452 4.088.785.785 0 1 1-.325 1.537 4.828 4.828 0 0 1-3.637-6.06.785.785 0 0 1 .972-.537Z" clip-rule="evenodd"/>
  <path fill-rule="evenodd" d="M16.663 9.06a.785.785 0 0 1 .93-.608 7.717 7.717 0 0 1 5.824 9.677.785.785 0 0 1-1.51-.432 6.146 6.146 0 0 0-4.636-7.708.785.785 0 0 1-.608-.93Zm-7.109 4.275c.417.12.659.554.54.971a6.146 6.146 0 0 0 4.623 7.705.785.785 0 1 1-.328 1.536 7.717 7.717 0 0 1-5.806-9.673.785.785 0 0 1 .971-.54Z" clip-rule="evenodd"/>
</svg>
