<svg xmlns="http://www.w3.org/2000/svg" width="32" height="32" fill="currentColor" viewBox="0 0 32 32">
  <path d="M17.619 16.002a1.619 1.619 0 1 1-3.238 0 1.619 1.619 0 0 1 3.238 0Z"/>
  <path fill-rule="evenodd" d="M16.069 12.07a.75.75 0 0 1 .889-.578 4.61 4.61 0 0 1 3.474 5.777.75.75 0 0 1-1.442-.412 3.112 3.112 0 0 0-2.343-3.897.75.75 0 0 1-.578-.89Zm-3.57 2.142a.75.75 0 0 1 .513.928 3.11 3.11 0 0 0 2.341 3.903.75.75 0 1 1-.31 1.468 4.61 4.61 0 0 1-3.473-5.786.75.75 0 0 1 .928-.513Z" clip-rule="evenodd"/>
  <path fill-rule="evenodd" d="M16.633 9.372a.75.75 0 0 1 .889-.58 7.369 7.369 0 0 1 5.56 9.241.75.75 0 0 1-1.441-.413 5.87 5.87 0 0 0-4.427-7.36.75.75 0 0 1-.58-.888Zm-6.788 4.083a.75.75 0 0 1 .514.928 5.87 5.87 0 0 0 4.414 7.357.75.75 0 1 1-.31 1.467 7.369 7.369 0 0 1-5.546-9.237.75.75 0 0 1 .928-.515Z" clip-rule="evenodd"/>
  <path d="m2.643 16 3.647 5.128h.91L4.467 16 7.2 10.872h-.91L2.643 16Zm26.714 0-3.647-5.128h-.91L27.534 16l-2.735 5.128h.911L29.357 16Z"/>
</svg>
