<svg xmlns="http://www.w3.org/2000/svg" width="32" height="32" fill="currentColor" viewBox="0 0 32 32">
  <path d="M12.17 8.246c-.336.17-.643-.274-.365-.528l3.94-3.608a.378.378 0 0 1 .51 0l3.94 3.608c.277.254-.029.698-.365.528L16 6.31l-3.83 1.936Zm1.635 8.69c.06-.06.158-.06.218 0l1.775 1.775c.06.06.06.158 0 .218l-.437.436a.154.154 0 0 1-.217 0l-1.124-1.123a.154.154 0 0 0-.218 0l-1.123 1.123a.154.154 0 0 1-.218 0l-.436-.436a.154.154 0 0 1 0-.218l1.78-1.775Z"/>
  <path fill-rule="evenodd" d="M8.558 18.31v-.319c0-.212.173-.385.385-.385h.575a4.429 4.429 0 0 1 3.849-3.849v-.574c0-.213.172-.385.385-.385h.319c.213 0 .385.172.385.385v.574a4.43 4.43 0 0 1 3.849 3.85h.574c.213 0 .385.172.385.384v.32a.385.385 0 0 1-.385.384h-.574a4.43 4.43 0 0 1-3.85 3.85v.574a.385.385 0 0 1-.384.385h-.32a.385.385 0 0 1-.384-.385v-.575a4.43 4.43 0 0 1-3.85-3.849h-.574a.385.385 0 0 1-.385-.384Zm5.353 3.113a3.275 3.275 0 0 0 3.227-3.817 3.275 3.275 0 0 0-3.771-2.682 3.275 3.275 0 0 0-2.683 3.771 3.275 3.275 0 0 0 3.227 2.728Z" clip-rule="evenodd"/>
  <path d="m18.2 12.635 1.775 1.774c.06.06.06.158 0 .218l-.436.436a.154.154 0 0 1-.218 0l-1.123-1.123a.154.154 0 0 0-.218 0l-.63.629a4.983 4.983 0 0 0-.727-.579l1.36-1.355c.06-.06.157-.06.218 0Z"/>
  <path fill-rule="evenodd" d="M21.316 14.394a3.275 3.275 0 0 1-2.56 2.66l.002.013h.121c.491 0 .892.383.922.866a4.431 4.431 0 0 0 2.682-3.54h.574a.385.385 0 0 0 .385-.384v-.32a.385.385 0 0 0-.385-.384h-.574a4.43 4.43 0 0 0-3.85-3.85v-.574a.385.385 0 0 0-.384-.385h-.32a.385.385 0 0 0-.385.385v.574a4.432 4.432 0 0 0-3.588 2.804h.115c.415 0 .766.274.883.65a3.276 3.276 0 0 1 3.68-2.287 3.275 3.275 0 0 1 2.682 3.772Z" clip-rule="evenodd"/>
</svg>
