<svg xmlns="http://www.w3.org/2000/svg" width="32" height="32" fill="currentColor" viewBox="0 0 32 32">
  <path d="M13.368 17.123a.184.184 0 0 1 .26 0l2.13 2.129a.185.185 0 0 1 0 .26l-.524.524a.185.185 0 0 1-.261 0l-1.348-1.348a.185.185 0 0 0-.26 0l-1.348 1.348a.185.185 0 0 1-.261 0l-.524-.523a.185.185 0 0 1 0-.262l2.136-2.128Z"/>
  <path fill-rule="evenodd" d="M7.074 18.771v-.383c0-.255.207-.462.462-.462h.689a5.312 5.312 0 0 1 4.617-4.616v-.69a.46.46 0 0 1 .461-.46h.383c.255 0 .462.206.462.46v.69a5.312 5.312 0 0 1 4.617 4.616h.688c.256 0 .462.207.462.462v.383a.462.462 0 0 1-.462.462h-.688a5.312 5.312 0 0 1-4.617 4.616v.69a.462.462 0 0 1-.462.461h-.383a.462.462 0 0 1-.461-.462v-.689a5.312 5.312 0 0 1-4.617-4.616h-.689a.462.462 0 0 1-.462-.462Zm6.42 3.733a3.928 3.928 0 0 0 3.87-4.578 3.928 3.928 0 0 0-4.522-3.217 3.928 3.928 0 0 0-3.218 4.524 3.928 3.928 0 0 0 3.87 3.271Z" clip-rule="evenodd"/>
  <path d="m18.64 11.964 2.128 2.128a.185.185 0 0 1 0 .261l-.523.524a.185.185 0 0 1-.262 0l-1.347-1.348a.185.185 0 0 0-.261 0l-.755.755a5.994 5.994 0 0 0-.873-.695l1.631-1.626a.185.185 0 0 1 .261 0Z"/>
  <path fill-rule="evenodd" d="M22.376 14.073a3.929 3.929 0 0 1-3.071 3.19l.003.017h.145c.589 0 1.07.458 1.106 1.038a5.315 5.315 0 0 0 3.216-4.245h.689a.462.462 0 0 0 .462-.461v-.383a.462.462 0 0 0-.462-.462h-.689a5.312 5.312 0 0 0-4.616-4.617v-.689A.462.462 0 0 0 18.697 7h-.383a.462.462 0 0 0-.462.461v.69a5.315 5.315 0 0 0-4.303 3.362h.137c.498 0 .92.328 1.06.78a3.93 3.93 0 0 1 4.412-2.743 3.928 3.928 0 0 1 3.218 4.523Z" clip-rule="evenodd"/>
</svg>
