<svg xmlns="http://www.w3.org/2000/svg" width="32" height="32" fill="currentColor" viewBox="0 0 32 32">
  <path d="M13.15 17.216a.2.2 0 0 1 .282 0l2.305 2.305a.2.2 0 0 1 0 .283l-.566.567a.2.2 0 0 1-.283 0l-1.46-1.46a.2.2 0 0 0-.283 0l-1.459 1.46a.2.2 0 0 1-.283 0l-.566-.567a.2.2 0 0 1 0-.283l2.312-2.305Z"/>
  <path fill-rule="evenodd" d="M6.334 19v-.414a.5.5 0 0 1 .5-.5h.746a5.753 5.753 0 0 1 5-5v-.745a.5.5 0 0 1 .5-.5h.414a.5.5 0 0 1 .5.5v.746a5.753 5.753 0 0 1 5 5h.746a.5.5 0 0 1 .5.5V19a.5.5 0 0 1-.5.5h-.746a5.753 5.753 0 0 1-5 5v.746a.5.5 0 0 1-.5.5h-.415a.5.5 0 0 1-.5-.5V24.5a5.753 5.753 0 0 1-4.999-5h-.746a.5.5 0 0 1-.5-.5Zm6.953 4.044a4.254 4.254 0 0 0 4.191-4.957 4.254 4.254 0 0 0-4.899-3.485 4.254 4.254 0 0 0-3.483 4.899 4.254 4.254 0 0 0 4.19 3.543Z" clip-rule="evenodd"/>
  <path d="m18.858 11.629 2.305 2.305a.2.2 0 0 1 0 .283l-.566.566a.2.2 0 0 1-.283 0l-1.46-1.46a.2.2 0 0 0-.282 0l-.818.818a6.484 6.484 0 0 0-.945-.752l1.767-1.76a.2.2 0 0 1 .282 0Z"/>
  <path fill-rule="evenodd" d="M22.904 13.914a4.254 4.254 0 0 1-3.325 3.454l.004.018h.157a1.2 1.2 0 0 1 1.198 1.124 5.756 5.756 0 0 0 3.482-4.596h.746a.5.5 0 0 0 .5-.5v-.415a.5.5 0 0 0-.5-.5h-.746a5.753 5.753 0 0 0-5-5v-.746a.5.5 0 0 0-.5-.5h-.414a.5.5 0 0 0-.5.5V7.5a5.756 5.756 0 0 0-4.66 3.641h.148a1.2 1.2 0 0 1 1.147.845 4.256 4.256 0 0 1 4.78-2.97 4.254 4.254 0 0 1 3.483 4.899Z" clip-rule="evenodd"/>
</svg>
