<svg xmlns="http://www.w3.org/2000/svg" width="32" height="32" fill="currentColor" viewBox="0 0 32 32">
  <path d="M12.423 16.299a.423.423 0 0 1 .598 0l3.647 3.646a.423.423 0 0 1 0 .599l-.909.908 2.055 2.054a.423.423 0 0 1 0 .599l-1.073 1.073a.423.423 0 0 1-.599 0l-2.521-2.522a.423.423 0 0 1 0-.598l.908-.909-2.712-2.711-.908.908a.423.423 0 0 1-.598 0l-2.522-2.522a.423.423 0 0 1 0-.598l1.073-1.073a.423.423 0 0 1 .598 0l2.055 2.054.908-.908Zm3.198-3.199a.423.423 0 0 1 .599 0l3.646 3.647a.423.423 0 0 1 0 .598l-.908.908 2.054 2.055a.423.423 0 0 1 0 .598l-1.073 1.073a.423.423 0 0 1-.598 0l-2.522-2.522a.423.423 0 0 1 0-.598l.908-.908-2.711-2.712-.908.909a.423.423 0 0 1-.599 0l-2.521-2.522a.423.423 0 0 1 0-.599l1.073-1.073a.423.423 0 0 1 .598 0l2.054 2.055.908-.909Zm3.199-3.198a.423.423 0 0 1 .598 0l3.647 3.646a.423.423 0 0 1 0 .599l-.908.908 2.054 2.054a.423.423 0 0 1 0 .598l-1.073 1.073a.423.423 0 0 1-.599 0l-2.521-2.521a.423.423 0 0 1 0-.599l.908-.908-2.712-2.711-.908.908a.423.423 0 0 1-.598 0l-2.522-2.522a.423.423 0 0 1 0-.598l1.073-1.073a.423.423 0 0 1 .598 0l2.055 2.054.908-.908ZM2.643 16l3.647 5.128h.91L4.467 16 7.2 10.872h-.91L2.643 16Zm26.714 0-3.647-5.128h-.91L27.534 16l-2.735 5.128h.911L29.357 16Z"/>
</svg>
