<svg xmlns="http://www.w3.org/2000/svg" width="32" height="32" fill="currentColor" viewBox="0 0 32 32">
  <path d="M13.543 17.048a.172.172 0 0 1 .243 0l1.987 1.988a.172.172 0 0 1 0 .243l-.488.489a.172.172 0 0 1-.244 0l-1.258-1.258a.172.172 0 0 0-.244 0l-1.258 1.258a.172.172 0 0 1-.244 0l-.488-.489a.172.172 0 0 1 0-.244l1.994-1.987Z"/>
  <path fill-rule="evenodd" d="M7.667 18.587v-.358a.43.43 0 0 1 .431-.43h.644a4.96 4.96 0 0 1 4.31-4.31v-.644a.43.43 0 0 1 .43-.43h.358a.43.43 0 0 1 .431.43v.643a4.96 4.96 0 0 1 4.31 4.31h.643c.238 0 .431.193.431.431v.358a.43.43 0 0 1-.431.43h-.643a4.96 4.96 0 0 1-4.31 4.31v.644a.431.431 0 0 1-.431.43h-.357a.431.431 0 0 1-.431-.43v-.643a4.96 4.96 0 0 1-4.31-4.31h-.644a.431.431 0 0 1-.43-.431Zm5.994 3.485a3.667 3.667 0 0 0 3.613-4.273 3.667 3.667 0 0 0-4.223-3.004 3.667 3.667 0 0 0-3.003 4.223 3.667 3.667 0 0 0 3.613 3.054Z" clip-rule="evenodd"/>
  <path d="m18.464 12.232 1.987 1.987a.173.173 0 0 1 0 .244l-.489.488a.172.172 0 0 1-.243 0l-1.258-1.258a.173.173 0 0 0-.244 0l-.705.705a5.585 5.585 0 0 0-.814-.648l1.522-1.518a.172.172 0 0 1 .244 0Z"/>
  <path fill-rule="evenodd" d="M21.952 14.201a3.667 3.667 0 0 1-2.867 2.978l.003.016h.136c.55 0 .999.428 1.032.969a4.962 4.962 0 0 0 3.002-3.963h.643a.431.431 0 0 0 .432-.43v-.358a.431.431 0 0 0-.431-.431h-.644a4.96 4.96 0 0 0-4.31-4.31V8.03a.431.431 0 0 0-.43-.431h-.358a.431.431 0 0 0-.431.43v.644a4.962 4.962 0 0 0-4.018 3.139h.129c.465 0 .858.306.989.728a3.669 3.669 0 0 1 4.12-2.56 3.667 3.667 0 0 1 3.003 4.223Z" clip-rule="evenodd"/>
  <path d="M11.36 7.526c.05.048 2.92-1.43 4.566-2.282 1.596.823 4.576 2.354 4.652 2.354.139-.036.272-.092.396-.165a.337.337 0 0 0 0-.508l-4.662-4.293a.408.408 0 0 0-.298-.104.41.41 0 0 0-.326.101l-4.662 4.285a.337.337 0 0 0 0 .507l.334.105Z"/>
</svg>
