<svg xmlns="http://www.w3.org/2000/svg" width="32" height="32" fill="currentColor" viewBox="0 0 32 32">
  <path d="m4.092 16 3.646 5.128h.912L5.915 16l2.735-5.128h-.912L4.092 16Zm23.816 0-3.646-5.128h-.912L26.085 16l-2.735 5.128h.912L27.908 16Z"/>
  <path d="M12.656 15.376a.395.395 0 0 1 .56 0l3.408 3.409a.395.395 0 0 1 0 .559l-.849.848 1.92 1.92a.395.395 0 0 1 0 .56l-1.003 1.003a.395.395 0 0 1-.559 0l-2.357-2.357a.396.396 0 0 1 0-.56l.849-.848-2.535-2.535-.849.85a.395.395 0 0 1-.559 0l-2.357-2.358a.395.395 0 0 1 0-.56l1.003-1.002a.396.396 0 0 1 .56 0l1.92 1.92.848-.849Zm2.99-2.99a.396.396 0 0 1 .56 0l3.408 3.409a.395.395 0 0 1 0 .559l-.849.849 1.92 1.92a.395.395 0 0 1 0 .56l-1.003 1.002a.396.396 0 0 1-.56 0l-2.356-2.357a.395.395 0 0 1 0-.56l.849-.848-2.535-2.535-.849.85a.395.395 0 0 1-.56 0l-2.356-2.358a.395.395 0 0 1 0-.56l1.003-1.002a.395.395 0 0 1 .559 0l1.92 1.92.85-.849Zm2.99-2.99a.395.395 0 0 1 .56 0l3.408 3.409a.396.396 0 0 1 0 .56l-.85.848 1.921 1.92a.396.396 0 0 1 0 .56l-1.003 1.002a.395.395 0 0 1-.56 0l-2.356-2.357a.395.395 0 0 1 0-.559l.848-.849-2.534-2.534-.849.849a.396.396 0 0 1-.56 0l-2.357-2.358a.395.395 0 0 1 0-.559l1.004-1.003a.395.395 0 0 1 .559 0l1.92 1.92.849-.849Z"/>
</svg>
