<svg xmlns="http://www.w3.org/2000/svg" width="32" height="32" fill="currentColor" viewBox="0 0 32 32">
  <path d="M17.55 16.001a1.55 1.55 0 1 1-3.1 0 1.55 1.55 0 0 1 3.1 0Z"/>
  <path fill-rule="evenodd" d="M16.066 12.24a.718.718 0 0 1 .85-.554 4.412 4.412 0 0 1 3.325 5.529.718.718 0 0 1-1.38-.395 2.977 2.977 0 0 0-2.242-3.73.718.718 0 0 1-.553-.85Zm-3.417 2.049c.381.11.601.507.492.888a2.976 2.976 0 0 0 2.24 3.735.718.718 0 0 1-.297 1.404 4.412 4.412 0 0 1-3.323-5.536.717.717 0 0 1 .888-.491Z" clip-rule="evenodd"/>
  <path fill-rule="evenodd" d="M16.606 9.657a.718.718 0 0 1 .85-.554 7.052 7.052 0 0 1 5.322 8.843.718.718 0 0 1-1.38-.396 5.616 5.616 0 0 0-4.237-7.043.718.718 0 0 1-.555-.85Zm-6.496 3.908a.717.717 0 0 1 .492.887 5.616 5.616 0 0 0 4.224 7.04.718.718 0 0 1-.298 1.405 7.052 7.052 0 0 1-5.306-8.84.718.718 0 0 1 .888-.492Z" clip-rule="evenodd"/>
  <path d="M12.302 8.12c-.324.165-.62-.264-.352-.509l3.804-3.483a.365.365 0 0 1 .492 0L20.05 7.61c.268.245-.028.673-.352.51L16 6.25l-3.698 1.87Z"/>
</svg>
