<svg xmlns="http://www.w3.org/2000/svg" width="32" height="32" fill="currentColor" viewBox="0 0 32 32">
  <path d="M17.384 16.737a1.384 1.384 0 1 1-2.768 0 1.384 1.384 0 0 1 2.768 0Z"/>
  <path fill-rule="evenodd" d="M16.059 13.376a.641.641 0 0 1 .76-.495 3.942 3.942 0 0 1 2.97 4.94.641.641 0 0 1-1.233-.353 2.66 2.66 0 0 0-2.003-3.332.641.641 0 0 1-.494-.76Zm-3.053 1.83c.34.098.537.454.44.794a2.66 2.66 0 0 0 2 3.337.641.641 0 0 1-.264 1.255 3.942 3.942 0 0 1-2.97-4.947.641.641 0 0 1 .794-.439Z" clip-rule="evenodd"/>
  <path fill-rule="evenodd" d="M16.542 11.069a.641.641 0 0 1 .759-.496 6.3 6.3 0 0 1 4.755 7.901.641.641 0 0 1-1.233-.353 5.018 5.018 0 0 0-3.786-6.293.641.641 0 0 1-.495-.76Zm-5.805 3.49c.34.098.538.453.44.794a5.018 5.018 0 0 0 3.774 6.29.641.641 0 1 1-.266 1.255 6.3 6.3 0 0 1-4.74-7.899.641.641 0 0 1 .792-.44Z" clip-rule="evenodd"/>
  <path d="M10.71 10.476c.058.055 3.328-1.629 5.206-2.601 1.819.939 5.216 2.684 5.303 2.684.159-.041.311-.104.452-.188a.386.386 0 0 0 0-.579l-5.315-4.895a.466.466 0 0 0-.34-.119.467.467 0 0 0-.372.116L10.33 9.779a.385.385 0 0 0 0 .579l.38.118Z"/>
</svg>
