<svg xmlns="http://www.w3.org/2000/svg" width="32" height="32" fill="currentColor" viewBox="0 0 32 32">
  <path d="M12.272 15.304a.441.441 0 0 1 .623 0l3.8 3.8a.441.441 0 0 1 0 .624l-.946.947 2.141 2.141a.441.441 0 0 1 0 .624l-1.118 1.118a.441.441 0 0 1-.623 0L13.52 21.93a.441.441 0 0 1 0-.624l.947-.946-2.827-2.826-.946.946a.441.441 0 0 1-.624 0l-2.628-2.629a.441.441 0 0 1 0-.623L8.56 14.11a.441.441 0 0 1 .624 0l2.141 2.14.947-.946Zm3.333-3.334a.441.441 0 0 1 .624 0l3.8 3.801a.441.441 0 0 1 0 .624l-.946.946 2.141 2.141a.441.441 0 0 1 0 .624l-1.118 1.118a.441.441 0 0 1-.624 0l-2.628-2.628a.441.441 0 0 1 0-.624l.946-.946-2.826-2.826-.946.946a.441.441 0 0 1-.624 0l-2.628-2.628a.441.441 0 0 1 0-.624l1.118-1.118a.441.441 0 0 1 .624 0l2.14 2.14.947-.946Zm3.335-3.333a.441.441 0 0 1 .623 0l3.8 3.8a.441.441 0 0 1 0 .624l-.946.946 2.141 2.141a.441.441 0 0 1 0 .624l-1.118 1.119a.441.441 0 0 1-.624 0l-2.628-2.629a.441.441 0 0 1 0-.623l.946-.947-2.826-2.826-.947.946a.441.441 0 0 1-.623 0l-2.629-2.628a.44.44 0 0 1 0-.624l1.119-1.118a.44.44 0 0 1 .623 0l2.142 2.141.946-.946Z"/>
</svg>
