<svg xmlns="http://www.w3.org/2000/svg" width="32" height="32" fill="currentColor" viewBox="0 0 32 32">
  <path d="M11.62 8.946c-.384.194-.734-.313-.417-.603l4.505-4.126a.432.432 0 0 1 .584 0l4.505 4.126c.317.29-.033.797-.417.603L16 6.732l-4.38 2.214Zm1.188 6.459a.377.377 0 0 1 .534 0l3.254 3.253a.377.377 0 0 1 0 .534l-.81.81 1.832 1.833a.377.377 0 0 1 0 .534l-.957.958a.378.378 0 0 1-.534 0l-2.25-2.25a.377.377 0 0 1 0-.534l.81-.81-2.42-2.42-.81.81a.378.378 0 0 1-.533 0l-2.25-2.25a.378.378 0 0 1 0-.534l.957-.957a.377.377 0 0 1 .534 0l1.833 1.833.81-.81Zm2.854-2.855a.378.378 0 0 1 .534 0l3.254 3.254a.378.378 0 0 1 0 .534l-.81.81 1.832 1.833a.377.377 0 0 1 0 .534l-.957.958a.377.377 0 0 1-.534 0l-2.25-2.25a.378.378 0 0 1 0-.534l.81-.81-2.42-2.42-.81.81a.377.377 0 0 1-.533 0l-2.25-2.25a.378.378 0 0 1 0-.534l.957-.957a.377.377 0 0 1 .534 0l1.833 1.833.81-.81Z"/>
  <path d="M18.516 9.697a.377.377 0 0 1 .534 0l3.254 3.253a.378.378 0 0 1 0 .534l-.81.81 1.832 1.833a.377.377 0 0 1 0 .534l-.957.958a.378.378 0 0 1-.534 0l-2.25-2.25a.377.377 0 0 1 0-.534l.81-.81-2.42-2.42-.81.81a.377.377 0 0 1-.533 0l-2.25-2.25a.377.377 0 0 1 0-.534l.957-.957a.378.378 0 0 1 .534 0l1.833 1.833.81-.81Z"/>
</svg>
