<svg xmlns="http://www.w3.org/2000/svg" width="32" height="32" fill="currentColor" viewBox="0 0 32 32">
  <path d="M23.158 16a7.158 7.158 0 0 1-9.698 6.694v-4.44s1.078-1.06 2.911 0c1.834 1.062 3.893.237 3.893.237v-4.827s-2.488.646-4.211-.465c-1.724-1.111-4.317.23-4.317.23v8.321A7.158 7.158 0 1 1 23.158 16Z"/>
  <path d="M11.843 8.777c.046.043 2.615-1.28 4.091-2.044 1.43.738 4.099 2.109 4.167 2.109.125-.032.244-.082.355-.148a.301.301 0 0 0 0-.455L16.28 4.393a.366.366 0 0 0-.268-.093.367.367 0 0 0-.292.09l-4.176 3.84a.302.302 0 0 0 0 .455l.3.093Z"/>
</svg>
