<svg xmlns="http://www.w3.org/2000/svg" width="32" height="32" fill="currentColor" viewBox="0 0 32 32">
  <path d="m4 15.223 3.647 5.127h.911l-2.735-5.127 2.735-5.128h-.911L4 15.223Zm24 0-3.647-5.128h-.912l2.735 5.128-2.734 5.128h.911L28 15.223Zm-11.998-6.72c-1.836 0-3.213.098-5.268.651l-.74.2v7.82l.12.223c.688 1.263 1.328 2.23 2.128 3.101v-8.196s2.285-1.181 3.805-.202c1.519.98 3.711.41 3.711.41v4.254s-1.815.728-3.431-.207c-1.616-.936-2.566 0-2.566 0v5.341c.498.397 1.052.794 1.68 1.22l.56.378.561-.379c1.301-.88 2.28-1.64 3.114-2.53.84-.893 1.5-1.883 2.21-3.19l.12-.224v-7.82l-.74-.199c-2.054-.553-3.429-.65-5.264-.65Z"/>
</svg>
