<svg xmlns="http://www.w3.org/2000/svg" width="32" height="32" fill="currentColor" viewBox="0 0 32 32">
  <path fill-rule="evenodd" d="m23.916 21.87-2.151-2.068a.375.375 0 0 0-.512.028l-.537.518a.339.339 0 0 0-.119.241.334.334 0 0 0 .1.25l2.152 2.073a.365.365 0 0 0 .5-.028l.543-.522a.344.344 0 0 0 .095-.376.343.343 0 0 0-.071-.116Zm-12.348-4.425 8.589-8.443h2.235v2.178l-8.69 8.345 1.37 1.335a.418.418 0 0 1-.032.6l-.648.632a.435.435 0 0 1-.608.033l-4.88-4.758a.419.419 0 0 1 .032-.6l.648-.63a.437.437 0 0 1 .607-.035l1.377 1.343Zm7.403-1.423 1.436 1.41 1.384-1.33a.457.457 0 0 1 .625.033l.655.631a.412.412 0 0 1 .032.6l-4.952 4.758a.456.456 0 0 1-.623-.033l-.648-.63a.412.412 0 0 1-.04-.6l1.413-1.359-1.448-1.39.896-.865 1.114 1.09a.111.111 0 0 0 .125.018.113.113 0 0 0 .035-.027l.176-.17a.116.116 0 0 0 .009-.163l.008-.004-1.111-1.086.914-.882Zm-3.716-3.646-.923.89-1.99-1.949a.113.113 0 0 0-.16.01l-.177.174a.116.116 0 0 0-.014.16l1.989 1.944-.931.898-3.457-3.32v-2.18h2.228l3.435 3.373Zm-7.17 9.494 2.151-2.068a.375.375 0 0 1 .512.028l.537.518a.342.342 0 0 1 .031.491l-2.151 2.07a.375.375 0 0 1-.512-.029l-.544-.518a.342.342 0 0 1-.024-.492Zm4.754-3.878-.003.004a.11.11 0 0 0 .008.163l.168.17a.122.122 0 0 0 .168.01l6.76-6.655a.108.108 0 0 0 .021-.127.108.108 0 0 0-.028-.035l-.174-.172a.123.123 0 0 0-.168-.008l-6.752 6.65Z" clip-rule="evenodd"/>
</svg>
