<svg xmlns="http://www.w3.org/2000/svg" width="32" height="32" fill="currentColor" viewBox="0 0 32 32">
  <path fill-opacity=".1" fill-rule="evenodd" d="M11.13 9.67c1.9-.512 3.174-.602 4.872-.602 1.697 0 2.968.09 4.868.602l.684.184v7.231l-.112.206c-.657 1.21-1.267 2.124-2.043 2.951-.772.823-1.676 1.525-2.88 2.34l-.517.35-.519-.35c-1.203-.815-2.108-1.517-2.88-2.34-.777-.826-1.388-1.741-2.045-2.95l-.112-.207V9.854l.684-.184Z" clip-rule="evenodd"/>
  <path fill-rule="evenodd" d="M12.295 11.284v5.329c.566 1.017 1.063 1.733 1.655 2.364.536.57 1.171 1.095 2.051 1.715.88-.62 1.514-1.145 2.05-1.715.591-.63 1.089-1.346 1.654-2.364v-5.329c-1.335-.307-2.34-.366-3.704-.367-1.363 0-2.37.06-3.706.367ZM11.13 9.67c1.9-.512 3.174-.602 4.872-.602 1.697 0 2.968.09 4.868.602l.684.184v7.231l-.112.206c-.657 1.21-1.267 2.124-2.043 2.951-.772.823-1.676 1.525-2.88 2.34l-.517.35-.519-.35c-1.203-.815-2.108-1.517-2.88-2.34-.777-.826-1.388-1.741-2.045-2.95l-.112-.207V9.854l.684-.184Z" clip-rule="evenodd"/>
  <path d="M12.302 8.12c-.324.165-.62-.264-.352-.509l3.804-3.483a.365.365 0 0 1 .492 0L20.05 7.61c.268.245-.028.673-.352.51L16 6.25l-3.698 1.87Z"/>
</svg>
