<svg xmlns="http://www.w3.org/2000/svg" width="32" height="32" fill="currentColor" viewBox="0 0 32 32">
  <path fill-opacity=".1" fill-rule="evenodd" d="M10.764 9.616c2.056-.554 3.433-.651 5.268-.651 1.836 0 3.21.097 5.265.65l.74.2v7.82l-.12.223c-.711 1.307-1.371 2.297-2.21 3.191-.835.89-1.813 1.649-3.114 2.53l-.56.379-.561-.38c-1.302-.88-2.28-1.64-3.116-2.529-.84-.894-1.5-1.883-2.21-3.19l-.122-.224v-7.82l.74-.2Z" clip-rule="evenodd"/>
  <path fill-rule="evenodd" d="M12.024 11.361v5.763c.612 1.1 1.15 1.874 1.79 2.556.58.617 1.266 1.185 2.218 1.855.951-.67 1.637-1.238 2.216-1.854.64-.682 1.178-1.456 1.79-2.557v-5.763c-1.444-.332-2.53-.396-4.006-.396-1.475 0-2.563.064-4.008.396Zm-1.26-1.745c2.056-.554 3.433-.651 5.268-.651 1.836 0 3.21.097 5.265.65l.74.2v7.82l-.12.223c-.711 1.307-1.371 2.297-2.21 3.191-.835.89-1.813 1.649-3.114 2.53l-.56.379-.561-.38c-1.302-.88-2.28-1.64-3.116-2.529-.84-.894-1.5-1.883-2.21-3.19l-.122-.224v-7.82l.74-.2Z" clip-rule="evenodd"/>
  <path d="M4.303 15.372 7.95 20.5h.911l-2.734-5.128 2.734-5.128H7.95l-3.647 5.128Zm23.456 0-3.647-5.128H23.2l2.735 5.128L23.2 20.5h.912l3.647-5.128Z"/>
</svg>
