<svg xmlns="http://www.w3.org/2000/svg" width="32" height="32" fill="currentColor" viewBox="0 0 32 32">
  <path fill-opacity=".1" fill-rule="evenodd" d="M11.636 10.59c1.886-.508 3.148-.598 4.832-.598 1.684 0 2.945.09 4.83.597l.678.183v7.173l-.111.204c-.652 1.2-1.257 2.107-2.027 2.927-.765.816-1.663 1.512-2.856 2.32l-.514.348-.514-.348c-1.194-.808-2.091-1.504-2.857-2.32-.77-.82-1.377-1.727-2.028-2.927l-.112-.204v-7.173l.68-.183Z" clip-rule="evenodd"/>
  <path fill-rule="evenodd" d="M12.792 12.19v5.286c.56 1.01 1.054 1.72 1.642 2.345.53.566 1.161 1.086 2.034 1.701.872-.615 1.502-1.135 2.033-1.701.587-.626 1.08-1.336 1.64-2.345v-5.285c-1.323-.305-2.32-.364-3.673-.364-1.353 0-2.35.059-3.676.364Zm-1.156-1.6c1.886-.508 3.148-.598 4.832-.598 1.684 0 2.945.09 4.83.597l.678.183v7.173l-.111.204c-.652 1.2-1.257 2.107-2.027 2.927-.765.816-1.663 1.512-2.856 2.32l-.514.348-.514-.348c-1.194-.808-2.091-1.504-2.857-2.32-.77-.82-1.377-1.727-2.028-2.927l-.112-.204v-7.173l.68-.183Z" clip-rule="evenodd"/>
  <path d="M11.869 8.539c.05.047 2.892-1.416 4.525-2.262 1.58.817 4.534 2.333 4.609 2.333.138-.035.27-.09.392-.163a.335.335 0 0 0 0-.503l-4.619-4.255a.404.404 0 0 0-.296-.103.406.406 0 0 0-.323.1l-4.619 4.246a.334.334 0 0 0 0 .504l.33.103Z"/>
</svg>
