<svg xmlns="http://www.w3.org/2000/svg" width="32" height="32" fill="currentColor" viewBox="0 0 32 32">
  <path d="M12.302 8.286c-.324.164-.62-.264-.352-.51l3.804-3.483a.365.365 0 0 1 .492 0l3.804 3.484c.268.245-.028.673-.352.509L16 6.416l-3.698 1.87Zm1.236 12.844-5.696.691h4.811l1.382 2.93 1.963-1.188c-1.361-.59-1.833-1.183-2.46-2.433Zm4.922 0 5.698.691h-4.813l-1.383 2.93-1.964-1.188c1.362-.59 1.835-1.183 2.462-2.433Z"/>
  <path d="M14.28 8.325c.367.083.728.893 1.718.893s1.352-.81 1.719-.893c.367-.083 1.576 1.976 1.699 5.372-1.054.461-1.78.625-3.418.684-1.637-.059-2.363-.223-3.416-.684.122-3.396 1.331-5.455 1.698-5.372Z"/>
  <path fill-rule="evenodd" d="M9.002 13.15c-.734.71 2.858 3.126 3.19 2.977.152 1.756.558 3.189 1.051 4.047.494.859 1.677 2.173 2.755 2.102 1.08.07 2.262-1.243 2.756-2.102.494-.858.9-2.291 1.05-4.047.333.15 3.927-2.268 3.193-2.977-.589-.569-1.698.054-2.586.552-.22.123-.425.239-.606.327-.915.445-2.316.97-3.807.97-1.49 0-2.89-.525-3.805-.97a12.378 12.378 0 0 1-.606-.327c-.888-.498-1.997-1.12-2.585-.552Zm6.996 6.274c-.495 0-1.231.145-1.231.145l.07.09c.428.346.609.39 1.161.39.553 0 .745-.086 1.173-.432l.06-.048s-.737-.145-1.233-.145ZM13.018 15l.044.012c1.07.311 1.725.383 2.936.382 1.229.001 1.886-.073 2.981-.395.136 2.273-.013 3.376-.881 4.426-.657-.617-1.246-.895-1.847-.895l.243-.076c.461-.151.47-.343.36-.343h-1.712c-.094 0 0 .255.4.343l.208.076c-.565 0-1.194.278-1.85.895a3.634 3.634 0 0 1-.695-1.257 4.47 4.47 0 0 1-.172-.814c-.079-.63-.073-1.386-.015-2.355Z" clip-rule="evenodd"/>
  <path d="M14.607 15.745c.42.002.689.49.689.49s-.269-.231-.72-.231c-.452 0-.644.139-.644.139v-.228s.254-.172.675-.17Z"/>
  <path d="M14.87 16.13c0 .096-.126.175-.28.175-.154 0-.279-.079-.279-.175 0-.097.125-.175.28-.175.153 0 .278.078.278.175Zm2.52-.385c-.42.002-.687.49-.687.49s.268-.231.72-.231c.45 0 .642.139.642.139v-.228s-.254-.172-.674-.17Z"/>
  <path d="M17.13 16.13c0 .096.124.175.278.175.154 0 .278-.079.278-.175 0-.097-.124-.175-.278-.175-.154 0-.279.078-.279.175Zm-4.082-.67c.124.249.221.31.429.393-.02-.018-.343-.46-.415-.842L13.018 15c-.058.968-.064 1.724.015 2.354.11.159.26.25.52.3-.192-.095-.505-.64-.56-1.053.151.197.179.354.56.445-.276-.27-.393-.527-.505-.942.13.18.196.334.429.394-.247-.28-.345-.643-.429-1.037Zm.505 2.793c-.21-.148-.392-.514-.503-.78.036.25.087.479.155.694.1.05.211.086.348.086Z"/>
</svg>
