<svg xmlns="http://www.w3.org/2000/svg" width="32" height="32" fill="currentColor" viewBox="0 0 32 32">
  <path d="m13.377 20.893-6.068.736h5.125l1.473 3.123 2.091-1.267c-1.45-.63-1.953-1.26-2.621-2.592Z"/>
  <path d="m18.62 20.893 6.07.736h-5.126l-1.474 3.123-2.092-1.267c1.451-.63 1.954-1.26 2.623-2.592ZM14.168 7.25c.39.089.775.952 1.83.952 1.056 0 1.44-.863 1.831-.951.391-.089 1.68 2.105 1.81 5.723-1.122.491-1.896.666-3.64.728-1.745-.062-2.519-.237-3.641-.728.13-3.618 1.419-5.812 1.81-5.723Z"/>
  <path fill-rule="evenodd" d="M8.544 12.391c-.782.756 3.046 3.33 3.4 3.172.161 1.87.593 3.397 1.12 4.312.525.915 1.785 2.314 2.934 2.239 1.15.075 2.41-1.324 2.936-2.24.526-.914.958-2.44 1.12-4.311.354.159 4.182-2.416 3.4-3.172-.627-.605-1.809.058-2.755.589-.233.13-.452.254-.645.348-.975.474-2.468 1.033-4.056 1.033-1.587 0-3.08-.559-4.054-1.033-.193-.094-.412-.217-.646-.348-.946-.531-2.127-1.194-2.754-.589Zm7.454 6.685c-.528 0-1.312.154-1.312.154l.075.096c.456.368.649.416 1.237.416.589 0 .793-.092 1.25-.46l.063-.052s-.785-.154-1.313-.154Zm-3.175-4.715.047.013c1.139.331 1.837.408 3.128.407 1.309 0 2.009-.078 3.176-.42.145 2.421-.014 3.596-.94 4.715-.7-.658-1.327-.955-1.966-.955l.258-.08c.492-.161.501-.366.384-.366h-1.824c-.1 0 0 .272.426.366l.222.08c-.603 0-1.272.297-1.972.955a3.872 3.872 0 0 1-.74-1.34 4.758 4.758 0 0 1-.183-.867c-.084-.672-.077-1.477-.016-2.508Z" clip-rule="evenodd"/>
  <path d="M14.516 15.155c.448.003.734.522.734.522s-.286-.246-.768-.246c-.48 0-.685.149-.685.149v-.243s.27-.184.719-.182Z"/>
  <path d="M14.795 15.566c0 .103-.133.186-.297.186-.164 0-.297-.083-.297-.186s.133-.187.297-.187c.164 0 .297.084.297.187Zm2.687-.411c-.448.003-.733.522-.733.522s.286-.246.766-.246c.48 0 .685.149.685.149v-.243s-.27-.184-.718-.182Z"/>
  <path d="M17.203 15.566c0 .103.133.186.297.186.164 0 .297-.083.297-.186s-.133-.187-.297-.187c-.164 0-.297.084-.297.187Zm-4.348-.713c.132.264.236.329.457.418-.022-.02-.365-.49-.442-.897l-.047-.013c-.061 1.031-.068 1.836.016 2.508.117.169.277.267.554.32-.205-.101-.538-.682-.597-1.122.162.21.19.377.597.474-.294-.287-.419-.562-.538-1.004.139.191.21.356.457.42-.263-.299-.368-.685-.457-1.104Zm.538 2.975c-.223-.157-.418-.548-.536-.83.039.265.093.51.165.738a.796.796 0 0 0 .37.092ZM2.044 19.624l3.646 5.128h.912l-2.735-5.128 2.735-5.128H5.69l-3.646 5.128Zm27.912 0-3.646-5.128h-.912l2.735 5.128-2.735 5.128h.912l3.646-5.128Z"/>
</svg>
