<svg xmlns="http://www.w3.org/2000/svg" width="32" height="32" fill="currentColor" viewBox="0 0 32 32">
  <path d="m13.377 20.893-6.068.737h5.125l1.473 3.122 2.091-1.267c-1.45-.63-1.953-1.26-2.621-2.592Z"/>
  <path d="m18.62 20.893 6.07.737h-5.126l-1.474 3.122-2.092-1.267c1.451-.63 1.954-1.26 2.623-2.592ZM14.168 7.25c.39.09.775.952 1.83.952 1.056 0 1.44-.863 1.831-.951.391-.088 1.68 2.105 1.81 5.724-1.122.49-1.896.665-3.64.728-1.745-.063-2.519-.237-3.641-.728.13-3.619 1.419-5.812 1.81-5.724Z"/>
  <path fill-rule="evenodd" d="M8.544 12.392c-.782.755 3.046 3.33 3.4 3.171.161 1.87.593 3.397 1.12 4.312.525.915 1.785 2.315 2.934 2.239 1.15.076 2.41-1.324 2.936-2.239.526-.915.958-2.441 1.12-4.312.354.159 4.182-2.416 3.4-3.171-.627-.606-1.809.057-2.755.588-.233.131-.452.254-.645.348-.975.474-2.468 1.033-4.056 1.033-1.587 0-3.08-.559-4.054-1.033a13.184 13.184 0 0 1-.646-.348c-.946-.531-2.127-1.194-2.754-.588Zm7.454 6.684c-.528 0-1.312.154-1.312.154l.075.096c.456.369.649.416 1.237.416.589 0 .793-.092 1.25-.46l.063-.052s-.785-.154-1.313-.154Zm-3.175-4.715.047.013c1.139.332 1.837.408 3.128.407 1.309.001 2.009-.078 3.176-.42.145 2.421-.014 3.596-.94 4.715-.7-.658-1.327-.954-1.966-.954l.258-.08c.492-.162.501-.367.384-.367h-1.824c-.1 0 0 .272.426.367l.222.08c-.603 0-1.272.296-1.972.954a3.87 3.87 0 0 1-.74-1.34 4.757 4.757 0 0 1-.183-.867c-.084-.671-.077-1.477-.016-2.508Z" clip-rule="evenodd"/>
  <path d="M14.516 15.156c.448.002.734.521.734.521s-.286-.245-.768-.245c-.48 0-.685.148-.685.148v-.242s.27-.185.719-.182Z"/>
  <path d="M14.795 15.566c0 .103-.133.186-.297.186-.164 0-.297-.083-.297-.186s.133-.187.297-.187c.164 0 .297.084.297.187Zm2.687-.41c-.448.002-.733.521-.733.521s.286-.245.766-.245c.48 0 .685.148.685.148v-.242s-.27-.185-.718-.182Z"/>
  <path d="M17.203 15.566c0 .103.133.186.297.186.164 0 .297-.083.297-.186s-.133-.187-.297-.187c-.164 0-.297.084-.297.187Zm-4.348-.713c.132.265.236.33.457.418-.022-.02-.365-.49-.442-.897l-.047-.013c-.061 1.031-.068 1.837.016 2.508.117.17.277.267.554.32-.205-.1-.538-.682-.597-1.122.162.21.19.377.597.475-.294-.288-.419-.563-.538-1.005.139.191.21.356.457.42-.263-.299-.368-.684-.457-1.104Zm.538 2.976c-.223-.158-.418-.549-.536-.83.039.264.093.508.165.738a.796.796 0 0 0 .37.092Z"/>
</svg>
