<svg xmlns="http://www.w3.org/2000/svg" width="32" height="32" fill="currentColor" viewBox="0 0 32 32">
  <path d="m12.586 23.32-.337-.192a.778.778 0 0 1-.289-1.061l.452-.791a.2.2 0 0 0-.042-.247 5.47 5.47 0 0 1-.41-.407.2.2 0 0 0-.247-.04l-.787.46a.778.778 0 0 1-1.063-.281l-.196-.336a.778.778 0 0 1 .28-1.063l.786-.458a.2.2 0 0 0 .087-.235 5.41 5.41 0 0 1-.151-.557.2.2 0 0 0-.194-.159l-.91.004a.778.778 0 0 1-.78-.774l-.002-.39a.777.777 0 0 1 .774-.78l.91-.004a.2.2 0 0 0 .193-.16c.039-.19.088-.376.146-.558a.2.2 0 0 0-.089-.234l-.789-.452a.778.778 0 0 1-.289-1.06l.193-.338a.777.777 0 0 1 1.061-.289l.79.452a.2.2 0 0 0 .248-.042c.128-.143.263-.28.406-.41a.2.2 0 0 0 .04-.247l-.459-.787a.777.777 0 0 1 .28-1.063l.336-.196a.777.777 0 0 1 1.063.28l.458.786a.2.2 0 0 0 .236.087c.181-.06.367-.11.556-.151a.2.2 0 0 0 .16-.194l-.005-.91a.778.778 0 0 1 .775-.78l.385-.003c.43-.001.78.347.78.778l-.097 1.924c-.016.303-.301.516-.603.49a4.073 4.073 0 0 0-.337-.013c-2.212 0-3.919 1.816-3.919 4.028a4.007 4.007 0 0 0 3.272 3.94c.298.054.517.335.452.631l-.1.45a.454.454 0 0 1-.474.378c-.241-.021-.394-.07-.65-.15a18.133 18.133 0 0 0-.307-.095l-.532.93a.777.777 0 0 1-1.06.29Zm3.707.817.388-.026a.777.777 0 0 0 .723-.828l-.06-.91a.2.2 0 0 1 .145-.203c.185-.053.367-.115.546-.187a.2.2 0 0 1 .24.072l.508.757a.777.777 0 0 0 1.078.213l.323-.217a.778.778 0 0 0 .213-1.079l-.507-.755a.2.2 0 0 1 .024-.25 5.43 5.43 0 0 0 .38-.434.2.2 0 0 1 .244-.058l.817.4c.385.19.85.03 1.04-.355l.171-.349a.778.778 0 0 0-.355-1.04l-.817-.401a.2.2 0 0 1-.103-.229 5.4 5.4 0 0 0 .112-.566.2.2 0 0 1 .182-.172l.907-.061a.777.777 0 0 0 .724-.828l-.027-.388a.777.777 0 0 0-.828-.723l-.908.061a.2.2 0 0 1-.204-.146 5.49 5.49 0 0 0-.186-.546.2.2 0 0 1 .072-.24l.756-.507a.778.778 0 0 0 .213-1.079l-.19-.282a.777.777 0 0 0-1.117-.184l-1.523 1.21c-.225.179-.244.513-.07.744a4.007 4.007 0 0 1-2.597 6.356c.091.245.118.523.052.821l-.097.44c-.108.526-.525 1.006-1.105 1.125l.008.12c.029.429.4.753.828.724ZM11.402 9.669c.05.048 2.893-1.416 4.525-2.261 1.58.816 4.534 2.332 4.61 2.332.137-.035.27-.09.392-.163a.334.334 0 0 0 0-.503l-4.62-4.255a.406.406 0 0 0-.295-.103.406.406 0 0 0-.323.1l-4.62 4.247a.334.334 0 0 0 0 .503l.331.103Z"/>
</svg>
