<svg xmlns="http://www.w3.org/2000/svg" width="32" height="32" fill="currentColor" viewBox="0 0 32 32">
  <path d="m12.33 22.86-.362-.208a.836.836 0 0 1-.31-1.14l.485-.85a.214.214 0 0 0-.045-.266 5.89 5.89 0 0 1-.44-.437.214.214 0 0 0-.266-.043l-.846.493a.836.836 0 0 1-1.143-.301l-.21-.361a.836.836 0 0 1 .3-1.143l.845-.492a.214.214 0 0 0 .094-.253 5.797 5.797 0 0 1-.163-.599.214.214 0 0 0-.209-.17l-.978.004a.836.836 0 0 1-.839-.833l-.002-.417a.836.836 0 0 1 .833-.84l.978-.004a.214.214 0 0 0 .207-.172c.042-.204.095-.404.158-.6a.214.214 0 0 0-.096-.252l-.848-.485a.836.836 0 0 1-.31-1.14l.207-.363a.835.835 0 0 1 1.14-.311l.85.486c.088.05.198.03.266-.045.137-.155.283-.302.436-.44a.214.214 0 0 0 .043-.266l-.493-.846a.836.836 0 0 1 .301-1.143l.361-.21a.836.836 0 0 1 1.143.3l.493.845c.05.087.156.125.252.094a5.81 5.81 0 0 1 .599-.163.214.214 0 0 0 .17-.209l-.003-.978a.836.836 0 0 1 .832-.84h.414a.836.836 0 0 1 .84.835l-.106 2.069c-.016.325-.324.554-.648.527-.12-.01-.24-.015-.362-.015-2.378 0-4.213 1.952-4.213 4.33a4.308 4.308 0 0 0 3.517 4.235c.32.059.556.361.486.68l-.106.482a.488.488 0 0 1-.51.407c-.26-.023-.425-.075-.7-.162l-.33-.102-.571 1a.836.836 0 0 1-1.14.311Zm3.985.877.417-.028a.836.836 0 0 0 .778-.89l-.066-.977a.214.214 0 0 1 .157-.22 5.93 5.93 0 0 0 .586-.2.214.214 0 0 1 .258.077l.546.814a.836.836 0 0 0 1.16.228l.347-.233a.836.836 0 0 0 .228-1.16l-.544-.811a.214.214 0 0 1 .026-.268c.143-.148.28-.304.408-.468a.214.214 0 0 1 .262-.062l.878.43a.836.836 0 0 0 1.118-.381l.185-.375a.836.836 0 0 0-.382-1.119l-.878-.43a.214.214 0 0 1-.112-.246 5.37 5.37 0 0 0 .12-.609.214.214 0 0 1 .197-.185l.975-.066a.836.836 0 0 0 .778-.89l-.029-.417a.836.836 0 0 0-.89-.777l-.976.066a.214.214 0 0 1-.22-.157 5.928 5.928 0 0 0-.2-.587.214.214 0 0 1 .078-.258l.813-.545a.836.836 0 0 0 .228-1.16l-.203-.303a.836.836 0 0 0-1.201-.198l-1.637 1.3c-.243.193-.262.552-.077.8a4.307 4.307 0 0 1-2.791 6.832c.098.264.127.564.056.883l-.104.473c-.116.566-.564 1.082-1.188 1.21l.009.13c.031.46.43.808.89.777Z"/>
</svg>
