<svg xmlns="http://www.w3.org/2000/svg" width="32" height="32" fill="currentColor" viewBox="0 0 32 32">
  <path d="m12.507 22.53-.345-.198a.796.796 0 0 1-.296-1.086l.463-.809a.204.204 0 0 0-.043-.253 5.63 5.63 0 0 1-.42-.415.204.204 0 0 0-.253-.041l-.805.47a.796.796 0 0 1-1.088-.288l-.2-.343a.796.796 0 0 1 .286-1.088l.804-.469a.204.204 0 0 0 .09-.24 5.554 5.554 0 0 1-.155-.57.204.204 0 0 0-.2-.163l-.93.004a.796.796 0 0 1-.799-.792l-.002-.398a.796.796 0 0 1 .793-.799l.93-.004c.097 0 .179-.07.198-.164.04-.194.09-.385.15-.57a.204.204 0 0 0-.09-.24l-.808-.463a.796.796 0 0 1-.296-1.085l.197-.345a.796.796 0 0 1 1.086-.296l.81.463a.204.204 0 0 0 .252-.044c.131-.146.27-.286.415-.419a.204.204 0 0 0 .042-.253l-.47-.805a.796.796 0 0 1 .287-1.088l.344-.2a.796.796 0 0 1 1.087.286l.47.804c.048.084.148.12.24.09a5.57 5.57 0 0 1 .57-.155.204.204 0 0 0 .162-.2l-.004-.93a.796.796 0 0 1 .792-.8h.395a.796.796 0 0 1 .799.795l-.1 1.97c-.016.308-.309.526-.617.5a4.133 4.133 0 0 0-.345-.014c-2.264 0-4.01 1.859-4.01 4.123a4.1 4.1 0 0 0 3.348 4.03c.304.057.53.345.462.648l-.101.459a.464.464 0 0 1-.486.388c-.247-.022-.404-.072-.666-.155a18.73 18.73 0 0 0-.313-.096l-.545.952a.796.796 0 0 1-1.085.295Zm3.793.835.397-.027a.796.796 0 0 0 .74-.847l-.063-.93a.204.204 0 0 1 .15-.209 5.61 5.61 0 0 0 .558-.19.204.204 0 0 1 .246.073l.52.774a.796.796 0 0 0 1.103.218l.33-.222a.796.796 0 0 0 .218-1.104l-.518-.773a.204.204 0 0 1 .024-.255 5.53 5.53 0 0 0 .389-.445.204.204 0 0 1 .25-.06l.835.411a.796.796 0 0 0 1.065-.364l.175-.357a.796.796 0 0 0-.363-1.064l-.836-.41a.204.204 0 0 1-.106-.235c.049-.192.087-.385.114-.579a.204.204 0 0 1 .187-.176l.928-.062a.796.796 0 0 0 .74-.848l-.026-.397a.796.796 0 0 0-.847-.74l-.93.063a.204.204 0 0 1-.209-.15 5.609 5.609 0 0 0-.19-.558.204.204 0 0 1 .073-.245l.774-.52a.796.796 0 0 0 .218-1.104l-.194-.288a.795.795 0 0 0-1.143-.189l-1.558 1.238c-.231.183-.25.526-.073.762a4.1 4.1 0 0 1-2.657 6.504c.093.25.12.536.053.84l-.099.45c-.11.539-.537 1.03-1.13 1.15l.008.125c.03.438.409.77.847.74ZM12.302 8.12c-.324.165-.62-.264-.352-.509l3.804-3.483a.365.365 0 0 1 .492 0L20.05 7.61c.268.245-.028.673-.352.51L16 6.25l-3.698 1.87Z"/>
</svg>
