<svg xmlns="http://www.w3.org/2000/svg" width="32" height="32" fill="currentColor" viewBox="0 0 32 32">
  <path d="m12.532 22.482-.342-.196a.79.79 0 0 1-.294-1.078l.46-.803a.202.202 0 0 0-.043-.251 5.587 5.587 0 0 1-.416-.413.202.202 0 0 0-.252-.04l-.8.466a.79.79 0 0 1-1.08-.285l-.198-.341a.79.79 0 0 1 .284-1.08l.799-.466a.202.202 0 0 0 .088-.238 5.511 5.511 0 0 1-.153-.566.202.202 0 0 0-.198-.161l-.924.003a.79.79 0 0 1-.793-.786l-.002-.395a.79.79 0 0 1 .787-.793l.924-.004a.201.201 0 0 0 .196-.162 5.5 5.5 0 0 1 .15-.568.202.202 0 0 0-.091-.238l-.802-.458a.79.79 0 0 1-.293-1.078l.196-.342a.79.79 0 0 1 1.077-.294l.803.46a.202.202 0 0 0 .251-.043c.13-.146.268-.285.413-.416a.203.203 0 0 0 .04-.252l-.465-.8a.79.79 0 0 1 .284-1.08l.341-.198a.79.79 0 0 1 1.08.285l.466.798a.202.202 0 0 0 .239.088 5.51 5.51 0 0 1 .565-.153.202.202 0 0 0 .161-.198l-.004-.924a.79.79 0 0 1 .787-.793l.392-.002a.79.79 0 0 1 .793.79l-.1 1.955c-.015.307-.306.523-.612.498a4.114 4.114 0 0 0-.342-.014c-2.248 0-3.981 1.845-3.981 4.092a4.07 4.07 0 0 0 3.323 4.001c.303.056.526.342.46.642l-.101.456a.46.46 0 0 1-.483.385c-.245-.022-.4-.07-.66-.153-.09-.028-.19-.06-.311-.096l-.541.945a.79.79 0 0 1-1.078.294Zm3.766.829.394-.027a.79.79 0 0 0 .735-.84l-.063-.924a.202.202 0 0 1 .148-.207c.189-.053.374-.117.555-.19a.202.202 0 0 1 .244.074l.515.768a.79.79 0 0 0 1.096.216l.328-.22a.79.79 0 0 0 .216-1.096l-.515-.767a.202.202 0 0 1 .025-.253 5.51 5.51 0 0 0 .386-.442.202.202 0 0 1 .248-.059l.83.407a.79.79 0 0 0 1.056-.36l.174-.355a.79.79 0 0 0-.361-1.057l-.83-.407a.202.202 0 0 1-.105-.232c.049-.191.087-.383.114-.575a.203.203 0 0 1 .185-.175l.922-.062a.79.79 0 0 0 .735-.841l-.027-.394a.79.79 0 0 0-.841-.735l-.923.062a.202.202 0 0 1-.207-.148 5.578 5.578 0 0 0-.19-.554.203.203 0 0 1 .074-.244l.768-.516a.79.79 0 0 0 .216-1.096l-.192-.286a.79.79 0 0 0-1.135-.187l-1.547 1.228c-.23.182-.248.522-.072.757a4.07 4.07 0 0 1-2.637 6.456c.092.25.12.532.052.834l-.098.447c-.11.535-.534 1.022-1.123 1.142l.009.123a.79.79 0 0 0 .84.735Z"/>
  <path d="m4.272 16 3.647 5.128h.912L6.096 16l2.735-5.128h-.912L4.272 16Zm23.456 0-3.647-5.128h-.912L25.904 16l-2.735 5.128h.912L27.728 16Z"/>
</svg>
