<svg xmlns="http://www.w3.org/2000/svg" width="32" height="32" fill="currentColor" viewBox="0 0 32 32">
  <path d="m4 16 3.647 5.128h.911L5.823 16l2.735-5.128h-.911L4 16Zm24-.1-3.646-5.129h-.912l2.735 5.128-2.735 5.128h.912L28 15.9Z"/>
  <path fill-rule="evenodd" d="M16 15.747c-.778 0-1.408.65-1.408 1.453 0 .802.63 1.453 1.408 1.453.777 0 1.408-.65 1.408-1.453s-.63-1.453-1.408-1.453ZM12.584 17.2c0-1.947 1.53-3.525 3.416-3.525s3.416 1.578 3.416 3.525c0 1.947-1.53 3.525-3.416 3.525-1.887 0-3.416-1.578-3.416-3.525Z" clip-rule="evenodd"/>
  <path fill-rule="evenodd" d="M16 12.873a9.925 9.925 0 0 0-6.873 2.75 1 1 0 0 1-1.38-1.448A11.925 11.925 0 0 1 16 10.872c3.2 0 6.107 1.257 8.253 3.303a1 1 0 0 1-1.38 1.448A9.925 9.925 0 0 0 16 12.873Z" clip-rule="evenodd"/>
</svg>
