<svg xmlns="http://www.w3.org/2000/svg" width="32" height="32" fill="currentColor" viewBox="0 0 32 32">
  <path d="M12.302 10.01c-.324.164-.62-.264-.352-.51l3.804-3.483a.365.365 0 0 1 .492 0L20.05 9.5c.268.246-.028.674-.352.51L16 8.14l-3.698 1.87Z"/>
  <path fill-rule="evenodd" d="M16 15.747c-.778 0-1.408.65-1.408 1.453 0 .802.63 1.453 1.408 1.453.777 0 1.408-.65 1.408-1.453s-.63-1.453-1.408-1.453ZM12.584 17.2c0-1.947 1.53-3.525 3.416-3.525s3.416 1.578 3.416 3.525c0 1.947-1.53 3.525-3.416 3.525-1.887 0-3.416-1.578-3.416-3.525Z" clip-rule="evenodd"/>
  <path fill-rule="evenodd" d="M16 12.873a9.925 9.925 0 0 0-6.873 2.75 1 1 0 0 1-1.38-1.448A11.925 11.925 0 0 1 16 10.872c3.2 0 6.107 1.257 8.253 3.303a1 1 0 0 1-1.38 1.448A9.925 9.925 0 0 0 16 12.873Z" clip-rule="evenodd"/>
</svg>
