<svg xmlns="http://www.w3.org/2000/svg" width="32" height="32" fill="currentColor" viewBox="0 0 32 32">
  <path fill-rule="evenodd" d="M16 15.944c-.844 0-1.528.706-1.528 1.577 0 .87.684 1.577 1.528 1.577s1.528-.706 1.528-1.577-.684-1.577-1.528-1.577Zm-3.708 1.577c0-2.113 1.66-3.827 3.708-3.827s3.708 1.714 3.708 3.827-1.66 3.826-3.708 3.826-3.708-1.713-3.708-3.826Z" clip-rule="evenodd"/>
  <path fill-rule="evenodd" d="M16 12.824a10.773 10.773 0 0 0-7.46 2.985 1.086 1.086 0 1 1-1.499-1.572A12.945 12.945 0 0 1 16 10.652c3.473 0 6.63 1.365 8.959 3.585a1.086 1.086 0 1 1-1.499 1.572A10.773 10.773 0 0 0 16 12.824Z" clip-rule="evenodd"/>
</svg>
