<svg xmlns="http://www.w3.org/2000/svg" width="32" height="32" fill="currentColor" viewBox="0 0 32 32">
  <path fill-rule="evenodd" d="M9.715 13.22a3.526 3.526 0 0 1 3.526-3.525h3.472a.746.746 0 1 1 0 1.493H13.24a2.033 2.033 0 1 0 0 4.066h5.537a3.526 3.526 0 1 1 0 7.051h-3.309a.746.746 0 1 1 0-1.493h3.31a2.033 2.033 0 1 0 0-4.066H13.24a3.526 3.526 0 0 1-3.526-3.525Z" clip-rule="evenodd"/>
  <path d="M13.477 21.558a2.298 2.298 0 1 1-4.597 0 2.298 2.298 0 0 1 4.597 0Zm9.643-11.117a2.298 2.298 0 1 1-4.597 0 2.298 2.298 0 0 1 4.597 0ZM10.588 7.183c.059.044 3.405-1.28 5.326-2.044 1.861.738 5.337 2.11 5.426 2.11.162-.033.318-.083.462-.149a.325.325 0 0 0 .099-.102.245.245 0 0 0 .035-.125.245.245 0 0 0-.035-.125.325.325 0 0 0-.1-.102l-5.437-3.847a.522.522 0 0 0-.162-.073.612.612 0 0 0-.186-.02.617.617 0 0 0-.203.014.53.53 0 0 0-.177.077l-5.438 3.838a.323.323 0 0 0-.099.103.244.244 0 0 0-.035.125c0 .043.012.085.035.125a.313.313 0 0 0 .1.102l.389.093Z"/>
</svg>
