<svg xmlns="http://www.w3.org/2000/svg" width="32" height="32" fill="currentColor" viewBox="0 0 32 32">
  <path d="m4 16 3.2 4.5H8L5.6 16 8 11.5h-.8L4 16Zm24 0-3.2-4.5H24l2.4 4.5-2.4 4.5h.8L28 16Z"/>
  <path fill-rule="evenodd" d="M9.997 13.346a3.367 3.367 0 0 1 3.368-3.367h3.316a.713.713 0 1 1 0 1.425h-3.316a1.941 1.941 0 1 0 0 3.883h5.287a3.367 3.367 0 0 1 0 6.734h-3.16a.713.713 0 0 1 0-1.425h3.16a1.941 1.941 0 1 0 0-3.883h-5.287a3.367 3.367 0 0 1-3.368-3.367Z" clip-rule="evenodd"/>
  <path d="M13.59 21.308a2.195 2.195 0 1 1-4.39 0 2.195 2.195 0 0 1 4.39 0Zm9.21-10.617a2.195 2.195 0 1 1-4.39 0 2.195 2.195 0 0 1 4.39 0Z"/>
</svg>
