<svg xmlns="http://www.w3.org/2000/svg" width="32" height="32" fill="currentColor" viewBox="0 0 32 32">
  <path fill-rule="evenodd" d="M9.715 13.22a3.526 3.526 0 0 1 3.526-3.525h3.472a.746.746 0 1 1 0 1.493H13.24a2.033 2.033 0 1 0 0 4.066h5.537a3.526 3.526 0 1 1 0 7.051h-3.309a.746.746 0 1 1 0-1.493h3.31a2.033 2.033 0 1 0 0-4.066H13.24a3.526 3.526 0 0 1-3.526-3.525Z" clip-rule="evenodd"/>
  <path d="M13.477 21.558a2.298 2.298 0 1 1-4.597 0 2.298 2.298 0 0 1 4.597 0Zm9.643-11.117a2.298 2.298 0 1 1-4.597 0 2.298 2.298 0 0 1 4.597 0Z"/>
</svg>
