<svg xmlns="http://www.w3.org/2000/svg" width="32" height="32" fill="currentColor" viewBox="0 0 32 32">
  <path d="M9.483 11.405a.85.85 0 0 1 0-1.201l.72-.721a.85.85 0 0 1 1.202 0l3.605 3.605a.85.85 0 0 1 0 1.201l-.721.721a.85.85 0 0 1-1.201 0l-3.605-3.605Zm7.507 7.508a.85.85 0 0 1 0-1.202l.721-.72a.85.85 0 0 1 1.202 0l3.604 3.604a.85.85 0 0 1 0 1.201l-.72.721a.85.85 0 0 1-1.202 0l-3.605-3.604Zm2.074-4.054a.85.85 0 0 1-1.202 0l-.72-.721a.85.85 0 0 1 0-1.202l3.604-3.605a.85.85 0 0 1 1.202 0l.72.721a.85.85 0 0 1 0 1.202l-3.604 3.605Zm-7.81 7.81a.85.85 0 0 1-1.202 0l-.72-.721a.85.85 0 0 1 0-1.202l3.604-3.604a.85.85 0 0 1 1.202 0l.72.72a.85.85 0 0 1 0 1.202l-3.604 3.605Zm1.372-14.383c-.324.164-.62-.264-.352-.51l3.804-3.483a.365.365 0 0 1 .493 0l3.803 3.484c.268.245-.028.673-.352.509l-3.698-1.87-3.698 1.87Z"/>
</svg>
