<svg xmlns="http://www.w3.org/2000/svg" width="32" height="32" fill="currentColor" viewBox="0 0 32 32">
  <path fill-rule="evenodd" d="M21.49 17v.2l-2 .8v-4l2 .8v.2a1 1 0 0 1 0 2Zm-4 1h-6v-4h6v4Zm-5 6h-4l2-4h4l-2 4Zm-4-7v-2a1 1 0 0 1 1-1h1v4h-1a1 1 0 0 1-1-1Zm11 1h-1v-4h1v4Z" clip-rule="evenodd"/>
  <path d="M16.984 8h3.506l-1.102 2.205L16.984 8Zm-5.128 4.314c.04.038 2.286-1.12 3.577-1.787 1.25.645 3.584 1.844 3.643 1.844a1.19 1.19 0 0 0 .31-.13.266.266 0 0 0 .067-.307.265.265 0 0 0-.067-.09L15.735 8.48a.32.32 0 0 0-.234-.082.321.321 0 0 0-.255.08l-3.652 3.356a.264.264 0 0 0 0 .397l.262.082Z"/>
</svg>
