<svg xmlns="http://www.w3.org/2000/svg" width="32" height="32" fill="currentColor" viewBox="0 0 32 32">
  <path d="M9.361 11.32a.865.865 0 0 1 0-1.225l.734-.734a.866.866 0 0 1 1.224 0l3.672 3.672a.865.865 0 0 1 0 1.224l-.734.734a.865.865 0 0 1-1.224 0L9.361 11.32Zm7.648 7.647a.865.865 0 0 1 0-1.224l.734-.734a.866.866 0 0 1 1.224 0l3.672 3.672a.865.865 0 0 1 0 1.224l-.734.734a.865.865 0 0 1-1.224 0l-3.672-3.672Zm2.112-4.13a.865.865 0 0 1-1.224 0l-.734-.734a.865.865 0 0 1 0-1.224l3.672-3.672a.865.865 0 0 1 1.224 0l.734.734a.865.865 0 0 1 0 1.224l-3.672 3.672Zm-7.956 7.956a.866.866 0 0 1-1.224 0l-.734-.734a.865.865 0 0 1 0-1.224l3.672-3.672a.865.865 0 0 1 1.224 0l.734.734a.865.865 0 0 1 0 1.224l-3.672 3.672Zm.447-15.294c.048.045 2.76-1.352 4.318-2.158 1.51.779 4.328 2.226 4.4 2.226.131-.034.257-.086.374-.156a.32.32 0 0 0 0-.48l-4.409-4.06a.386.386 0 0 0-.282-.099.388.388 0 0 0-.308.096L11.296 6.92a.318.318 0 0 0 0 .48l.316.099Z"/>
</svg>
