<svg xmlns="http://www.w3.org/2000/svg" width="32" height="32" fill="currentColor" viewBox="0 0 32 32">
  <path d="M9.361 11.32a.865.865 0 0 1 0-1.225l.734-.734a.866.866 0 0 1 1.224 0l3.672 3.672a.865.865 0 0 1 0 1.224l-.734.734a.865.865 0 0 1-1.224 0L9.361 11.32Zm7.648 7.647a.865.865 0 0 1 0-1.224l.734-.734a.866.866 0 0 1 1.224 0l3.672 3.672a.865.865 0 0 1 0 1.224l-.734.734a.865.865 0 0 1-1.224 0l-3.672-3.672Zm2.112-4.13a.865.865 0 0 1-1.224 0l-.734-.734a.865.865 0 0 1 0-1.224l3.672-3.672a.865.865 0 0 1 1.224 0l.734.734a.865.865 0 0 1 0 1.224l-3.672 3.672Zm-7.956 7.956a.866.866 0 0 1-1.224 0l-.734-.734a.865.865 0 0 1 0-1.224l3.672-3.672a.865.865 0 0 1 1.224 0l.734.734a.865.865 0 0 1 0 1.224l-3.672 3.672Z"/>
</svg>
