<svg xmlns="http://www.w3.org/2000/svg" width="32" height="32" fill="currentColor" viewBox="0 0 32 32">
  <path d="M12.302 8.222c-.324.164-.62-.264-.352-.51l3.804-3.482a.365.365 0 0 1 .492 0l3.804 3.483c.268.245-.028.673-.352.51L16 6.352l-3.698 1.87Z"/>
  <path fill-rule="evenodd" d="M16.702 11.889a.702.702 0 1 0-1.404 0v2.683a1.579 1.579 0 1 0 1.404 0v-2.683Z" clip-rule="evenodd"/>
  <path d="M17.805 19.84a.702.702 0 0 0 1.156-.796l-1.58-2.291a1.58 1.58 0 0 1-1.156.796l1.58 2.291Z"/>
  <path fill-rule="evenodd" d="M14.421 15.986a1.579 1.579 0 0 0 1.804 1.563l1.58 2.291a.702.702 0 0 0 1.156-.796l-1.58-2.291a1.579 1.579 0 0 0-.679-2.18v-2.684a.702.702 0 1 0-1.404 0v2.683c-.52.258-.877.795-.877 1.414Z" clip-rule="evenodd"/>
  <path fill-rule="evenodd" d="M23.016 15.986a7.016 7.016 0 1 1-7.893-6.962s.533-.058.877-.058.877.059.877.059a7.018 7.018 0 0 1 6.14 6.961ZM16 21.6a5.613 5.613 0 1 0 0-11.225A5.613 5.613 0 0 0 16 21.6Z" clip-rule="evenodd"/>
</svg>
