<svg xmlns="http://www.w3.org/2000/svg" width="32" height="32" fill="currentColor" viewBox="0 0 32 32">
  <path d="M11.56 9.297c.048.036 2.793-1.05 4.37-1.677 1.526.605 4.378 1.73 4.451 1.73a1.79 1.79 0 0 0 .38-.12.264.264 0 0 0 .08-.085.2.2 0 0 0 .03-.102.2.2 0 0 0-.03-.103.264.264 0 0 0-.08-.084L16.298 5.7a.43.43 0 0 0-.133-.06.501.501 0 0 0-.153-.016.506.506 0 0 0-.166.011.435.435 0 0 0-.146.063l-4.461 3.15a.265.265 0 0 0-.081.084.2.2 0 0 0-.03.102.2.2 0 0 0 .03.103c.019.032.046.06.081.084l.32.076Z"/>
  <path fill-rule="evenodd" d="M16.702 12.019a.702.702 0 1 0-1.404 0v2.683a1.579 1.579 0 1 0 1.404 0V12.02Z" clip-rule="evenodd"/>
  <path d="M17.805 19.97a.702.702 0 1 0 1.156-.796l-1.58-2.291a1.58 1.58 0 0 1-1.156.797l1.58 2.29Z"/>
  <path fill-rule="evenodd" d="M16 23.133a7.016 7.016 0 1 0-6.982-7.718l-.003.039a7.096 7.096 0 0 0-.031.663A7.016 7.016 0 0 0 16 23.133Zm5.613-7.016a5.613 5.613 0 1 1-11.226 0 5.613 5.613 0 0 1 11.226 0Z" clip-rule="evenodd"/>
  <path fill-rule="evenodd" d="M14.421 16.117a1.579 1.579 0 0 0 1.804 1.563l1.58 2.29a.702.702 0 1 0 1.156-.796l-1.58-2.291a1.579 1.579 0 0 0-.679-2.18v-2.684a.702.702 0 1 0-1.404 0v2.683c-.52.258-.877.795-.877 1.415Z" clip-rule="evenodd"/>
</svg>
