<svg xmlns="http://www.w3.org/2000/svg" width="32" height="32" fill="currentColor" viewBox="0 0 32 32">
  <path fill-rule="evenodd" d="M14.045 6.156a.876.876 0 0 0 0 1.753h1.078v1.246a7.018 7.018 0 1 0 1.754 0V7.909h1.029a.876.876 0 0 0 0-1.753h-3.86ZM16 21.73a5.613 5.613 0 1 0 0-11.226 5.613 5.613 0 0 0 0 11.226Z" clip-rule="evenodd"/>
  <path fill-rule="evenodd" d="M16.702 12.019a.702.702 0 1 0-1.404 0v2.683a1.579 1.579 0 1 0 1.404 0V12.02Z" clip-rule="evenodd"/>
  <path d="M17.805 19.97a.702.702 0 0 0 1.156-.796l-1.58-2.291a1.58 1.58 0 0 1-1.156.796l1.58 2.292ZM4.984 16l3.2 4.5h.8l-2.4-4.5 2.4-4.5h-.8l-3.2 4.5Zm22.032 0-3.2-4.5h-.8l2.4 4.5-2.4 4.5h.8l3.2-4.5Z"/>
</svg>
