<svg xmlns="http://www.w3.org/2000/svg" width="32" height="32" fill="currentColor" viewBox="0 0 32 32">
  <path fill-rule="evenodd" d="M14.045 6.026a.876.876 0 0 0 0 1.753h1.078v1.246A7.018 7.018 0 0 0 16 23.003a7.016 7.016 0 0 0 .877-13.978V7.779h1.029a.876.876 0 0 0 0-1.753h-3.86ZM16 21.6a5.613 5.613 0 1 0 0-11.226A5.613 5.613 0 0 0 16 21.6Z" clip-rule="evenodd"/>
  <path fill-rule="evenodd" d="M16.702 11.889a.702.702 0 1 0-1.404 0v2.683a1.579 1.579 0 1 0 1.404 0v-2.683Z" clip-rule="evenodd"/>
  <path d="M17.805 19.84a.702.702 0 1 0 1.156-.796l-1.58-2.291a1.58 1.58 0 0 1-1.156.796l1.58 2.291Z"/>
</svg>
