<svg xmlns="http://www.w3.org/2000/svg" width="32" height="32" fill="currentColor" viewBox="0 0 32 32">
  <circle cx="8.421" cy="9.136" r="1.616"/>
  <circle cx="8.421" cy="9.136" r="1.616"/>
  <path d="M8.105 17.138a.5.5 0 0 1 0-.707l.424-.424a.5.5 0 0 1 .706 0l2.12 2.12a.5.5 0 0 1 0 .707l-.424.424a.5.5 0 0 1-.706 0l-2.12-2.12Zm4.415 4.414a.5.5 0 0 1 0-.706l.423-.424a.5.5 0 0 1 .707 0l2.12 2.12a.5.5 0 0 1 0 .706l-.424.424a.5.5 0 0 1-.707 0l-2.12-2.12Zm1.219-2.383a.5.5 0 0 1-.707 0l-.424-.425a.5.5 0 0 1 0-.706l2.12-2.12a.5.5 0 0 1 .707 0l.424.424a.5.5 0 0 1 0 .707l-2.12 2.12Zm-4.593 4.592a.5.5 0 0 1-.706 0l-.424-.424a.5.5 0 0 1 0-.706l2.12-2.12a.5.5 0 0 1 .706 0l.424.424a.5.5 0 0 1 0 .706l-2.12 2.12Z"/>
  <path d="M12.06 11.572c.052 1.316-.441 2.331.684 2.817 1.126.486 3.423-3.44 2.726-6.851 1.499 1.01 2.317 2.258 2.755 4.176.302 2.046-.312 4.659-.312 4.659 1.373-.835 1.667-1.908 1.903-4.29 1.535 1.531 1.93 2.584 2.16 4.659-.005 2.805-2.02 6.05-4.355 6.25.541-.654 2.734-2.887 2.168-5.597-.5.637-2.12 1.893-2.725 1.667-.205-.077-.464-.337-.736-.74l.402-.402a1.73 1.73 0 0 0 0-2.448l-.424-.424a1.73 1.73 0 0 0-2.448 0l-1.92 1.92-1.832-1.83-.02-.021c.244-2.06 1.334-2.939 1.975-3.545Z"/>
  <path d="M12.302 8.176c-.324.164-.62-.264-.352-.51l3.804-3.483a.365.365 0 0 1 .492 0l3.804 3.483c.268.246-.028.674-.352.51L16 6.306l-3.698 1.87Z"/>
</svg>
