<svg xmlns="http://www.w3.org/2000/svg" width="32" height="32" fill="currentColor" viewBox="0 0 32 32">
  <path d="M8.736 17.35c.192 4.455 2.937 7.63 5.922 8.065-3.321-4.57-3.256-6.73-.005-10.19.58 2.893 1.9 5.126 2.636 5.401.737.275 2.712-1.254 3.32-2.03.69 3.301-1.981 6.023-2.64 6.82 2.845-.244 5.3-4.198 5.305-7.616-.28-2.528-.76-3.811-2.63-5.677-.288 2.903-.646 4.21-2.32 5.227 0 0 .748-3.184.381-5.677-.535-2.337-1.531-3.856-3.358-5.088.85 4.155-1.949 8.94-3.32 8.348-1.372-.592-.771-1.829-.833-3.433-.924.874-2.615 2.212-2.458 5.85Zm-5.791 1.111 3.647 5.128h.912l-2.735-5.128 2.735-5.128h-.912l-3.647 5.128Zm26.11 0-3.647-5.128h-.912l2.735 5.128-2.735 5.128h.912l3.646-5.128Z"/>
</svg>
