<svg xmlns="http://www.w3.org/2000/svg" width="32" height="32" fill="currentColor" viewBox="0 0 32 32">
  <path d="M8.736 17.35c.192 4.455 2.937 7.63 5.922 8.065-3.321-4.57-3.256-6.73-.005-10.19.58 2.893 1.9 5.126 2.636 5.401.737.275 2.712-1.254 3.32-2.03.69 3.301-1.981 6.023-2.64 6.82 2.845-.244 5.3-4.198 5.305-7.616-.28-2.528-.76-3.811-2.63-5.677-.288 2.903-.646 4.21-2.32 5.227 0 0 .748-3.184.381-5.677-.535-2.337-1.531-3.856-3.358-5.088.85 4.155-1.949 8.94-3.32 8.348-1.372-.592-.771-1.829-.833-3.433-.924.874-2.615 2.212-2.458 5.85Z"/>
  <path d="M10.42 8.02c.06.059 3.51-1.718 5.492-2.744 1.918.99 5.502 2.832 5.594 2.832a1.84 1.84 0 0 0 .476-.199.406.406 0 0 0 0-.61l-5.607-5.164a.492.492 0 0 0-.358-.125.493.493 0 0 0-.393.122l-5.606 5.153a.406.406 0 0 0 0 .61l.402.126Z"/>
</svg>
