<svg xmlns="http://www.w3.org/2000/svg" width="32" height="32" fill="currentColor" viewBox="0 0 32 32">
  <path d="m4 16.052 3.08 4.332h.771l-2.31-4.332 2.31-4.333h-.77L4 16.052Zm24 0-3.08 4.332h-.771l2.31-4.332-2.31-4.333h.77L28 16.052Zm-19.283.51a.534.534 0 0 1 0-.755l.453-.453a.534.534 0 0 1 .755 0l2.264 2.265a.534.534 0 0 1 0 .754l-.453.453a.534.534 0 0 1-.754 0l-2.265-2.264Zm4.716 4.716a.534.534 0 0 1 0-.755l.453-.453a.534.534 0 0 1 .755 0l2.264 2.265a.534.534 0 0 1 0 .754l-.452.453a.534.534 0 0 1-.755 0l-2.265-2.264Zm1.303-2.547a.534.534 0 0 1-.755 0l-.453-.453a.534.534 0 0 1 0-.755l2.265-2.264a.534.534 0 0 1 .755 0l.453.453a.534.534 0 0 1 0 .755l-2.265 2.264ZM9.83 23.637a.534.534 0 0 1-.755 0l-.453-.453a.534.534 0 0 1 0-.754l2.264-2.265a.534.534 0 0 1 .755 0l.453.453a.534.534 0 0 1 0 .755L9.83 23.637Z"/>
  <path d="M12.943 10.615c.054 1.407-.472 2.49.73 3.01 1.203.519 3.656-3.676 2.912-7.319 1.601 1.08 2.475 2.413 2.944 4.461.321 2.186-.334 4.977-.334 4.977 1.467-.892 1.78-2.038 2.033-4.582 1.64 1.635 2.061 2.76 2.306 4.976-.004 2.997-2.157 6.463-4.651 6.677.578-.698 2.92-3.084 2.315-5.979-.533.681-2.265 2.022-2.91 1.78-.22-.081-.496-.36-.787-.79l.43-.43a1.849 1.849 0 0 0 0-2.614l-.453-.453a1.849 1.849 0 0 0-2.615 0l-2.052 2.052-1.956-1.957-.022-.021c.26-2.201 1.426-3.14 2.11-3.788Z"/>
</svg>
