<svg xmlns="http://www.w3.org/2000/svg" width="32" height="32" fill="currentColor" viewBox="0 0 32 32">
  <path d="M7.693 17.724a.609.609 0 0 1 0-.86l.517-.517a.609.609 0 0 1 .86 0l2.583 2.583a.609.609 0 0 1 0 .86l-.516.517a.609.609 0 0 1-.861 0l-2.583-2.582Zm5.379 5.38a.609.609 0 0 1 0-.861l.517-.517a.609.609 0 0 1 .86 0l2.584 2.583a.609.609 0 0 1 0 .861l-.517.517a.609.609 0 0 1-.86 0l-2.584-2.583Zm1.486-2.905a.609.609 0 0 1-.86 0l-.517-.517a.609.609 0 0 1 0-.86l2.583-2.584a.609.609 0 0 1 .86 0l.517.517a.609.609 0 0 1 0 .86L14.558 20.2Zm-5.596 5.596a.609.609 0 0 1-.86 0l-.518-.516a.609.609 0 0 1 0-.861l2.583-2.583a.609.609 0 0 1 .861 0l.517.516a.609.609 0 0 1 0 .861l-2.583 2.583Z"/>
  <path d="M12.513 10.942c.062 1.604-.539 2.84.833 3.432 1.372.592 4.17-4.192 3.321-8.348 1.827 1.232 2.823 2.752 3.358 5.089.367 2.493-.381 5.676-.381 5.676 1.673-1.017 2.031-2.324 2.32-5.226 1.87 1.865 2.35 3.149 2.63 5.676-.005 3.419-2.46 7.372-5.306 7.616.66-.796 3.331-3.518 2.642-6.82-.61.777-2.584 2.306-3.321 2.031-.25-.093-.565-.41-.897-.902l.49-.49a2.109 2.109 0 0 0 0-2.982l-.517-.516a2.109 2.109 0 0 0-2.982 0l-2.34 2.34-2.232-2.232-.025-.025c.298-2.51 1.627-3.58 2.407-4.32Z"/>
  <path d="M11.74 6.905c.06.058 3.51-1.718 5.491-2.744 1.919.99 5.503 2.831 5.594 2.831.168-.043.328-.11.476-.198a.405.405 0 0 0 0-.61L17.695 1.02a.492.492 0 0 0-.359-.126.493.493 0 0 0-.392.123l-5.606 5.152a.406.406 0 0 0 0 .611l.401.125Z"/>
</svg>
