<svg xmlns="http://www.w3.org/2000/svg" width="32" height="32" fill="currentColor" viewBox="0 0 32 32">
  <circle cx="9.449" cy="8.304" r="1.616"/>
  <circle cx="9.449" cy="8.304" r="1.616"/>
  <path d="M7.545 16.562a.534.534 0 0 1 0-.755l.453-.453a.534.534 0 0 1 .755 0l2.264 2.265a.534.534 0 0 1 0 .754l-.453.453a.534.534 0 0 1-.755 0l-2.264-2.264Zm4.716 4.716a.534.534 0 0 1 0-.755l.453-.453a.534.534 0 0 1 .755 0l2.264 2.265a.534.534 0 0 1 0 .754l-.453.453a.534.534 0 0 1-.755 0l-2.264-2.264Zm1.303-2.547a.534.534 0 0 1-.755 0l-.453-.453a.534.534 0 0 1 0-.755l2.265-2.264a.534.534 0 0 1 .754 0l.453.453a.534.534 0 0 1 0 .755l-2.264 2.264Zm-4.906 4.906a.534.534 0 0 1-.755 0l-.453-.453a.534.534 0 0 1 0-.754l2.264-2.265a.534.534 0 0 1 .755 0l.453.453a.534.534 0 0 1 0 .755l-2.264 2.264Z"/>
  <path d="M11.77 10.615c.055 1.407-.471 2.49.731 3.01 1.203.519 3.656-3.676 2.912-7.319 1.6 1.08 2.474 2.413 2.943 4.461.322 2.186-.334 4.977-.334 4.977 1.467-.892 1.781-2.038 2.034-4.582 1.64 1.635 2.061 2.76 2.306 4.976-.004 2.997-2.157 6.463-4.652 6.677.578-.698 2.92-3.084 2.316-5.979-.533.681-2.265 2.022-2.911 1.78-.218-.081-.496-.36-.786-.79l.43-.43a1.849 1.849 0 0 0 0-2.614l-.454-.453a1.849 1.849 0 0 0-2.614 0l-2.052 2.052-1.956-1.957-.023-.021c.262-2.201 1.427-3.14 2.11-3.788Z"/>
</svg>
