<svg xmlns="http://www.w3.org/2000/svg" width="32" height="32" fill="currentColor" viewBox="0 0 32 32">
  <path d="M10.034 16.367c.157 3.66 2.412 6.267 4.864 6.624-2.728-3.753-2.674-5.527-.004-8.37.476 2.377 1.56 4.211 2.165 4.437.605.226 2.227-1.03 2.727-1.668.566 2.712-1.628 4.947-2.17 5.601 2.338-.2 4.354-3.447 4.358-6.254-.229-2.076-.624-3.13-2.16-4.663-.237 2.384-.53 3.457-1.905 4.293 0 0 .614-2.615.313-4.662-.44-1.92-1.258-3.168-2.758-4.18.697 3.413-1.601 7.343-2.728 6.857-1.126-.486-.633-1.502-.684-2.82-.758.719-2.147 1.818-2.018 4.805Z"/>
  <path d="M12.302 8.176c-.324.164-.62-.264-.352-.51l3.804-3.483a.365.365 0 0 1 .492 0l3.804 3.483c.268.246-.028.674-.352.51L16 6.306l-3.698 1.87Z"/>
</svg>
