<svg xmlns="http://www.w3.org/2000/svg" width="32" height="32" fill="currentColor" viewBox="0 0 32 32">
  <path d="m4 16 3.647 5.128h.911L5.823 16l2.735-5.128h-.911L4 16Zm24 0-3.646-5.128h-.912L26.177 16l-2.735 5.128h.912L28 16Zm-18.342-.05c.167 3.89 2.564 6.662 5.17 7.041-2.9-3.99-2.842-5.876-.004-8.897.507 2.527 1.659 4.476 2.302 4.716.643.24 2.367-1.095 2.899-1.772.602 2.882-1.73 5.258-2.306 5.953 2.484-.212 4.627-3.664 4.632-6.648-.244-2.207-.664-3.328-2.297-4.957-.251 2.535-.564 3.676-2.025 4.564 0 0 .653-2.78.333-4.956-.467-2.04-1.337-3.367-2.932-4.443.742 3.628-1.702 7.805-2.9 7.288-1.197-.516-.672-1.596-.726-2.997-.807.764-2.283 1.932-2.146 5.108Z"/>
</svg>
