<svg xmlns="http://www.w3.org/2000/svg" width="32" height="32" fill="currentColor" viewBox="0 0 32 32">
  <path fill-rule="evenodd" d="M22.028 8.931h-5.794a.174.174 0 0 0-.15.088l-7.936 13.9a.173.173 0 0 0 .15.26h5.795c.062 0 .12-.033.15-.087L22.18 9.19a.173.173 0 0 0-.15-.26Zm-8.656 10.343-.458-1.367a.173.173 0 0 0-.329 0l-.458 1.367a.173.173 0 0 1-.163.119l-1.442.013a.173.173 0 0 0-.102.313l1.16.858c.059.044.084.12.062.191l-.434 1.376c-.05.159.131.29.267.193l1.174-.837a.174.174 0 0 1 .201 0l1.175.837a.174.174 0 0 0 .266-.193l-.434-1.376a.173.173 0 0 1 .063-.191l1.159-.859a.173.173 0 0 0-.102-.312l-1.442-.013a.173.173 0 0 1-.163-.119Zm2.414-4.248-.458-1.367a.173.173 0 0 0-.329 0l-.458 1.367a.173.173 0 0 1-.163.119l-1.442.013a.173.173 0 0 0-.102.313l1.16.858c.059.044.084.12.062.191l-.434 1.376c-.05.159.131.29.267.193l1.174-.837a.173.173 0 0 1 .201 0l1.175.837a.173.173 0 0 0 .266-.193l-.433-1.376a.174.174 0 0 1 .062-.191l1.159-.858a.173.173 0 0 0-.102-.313l-1.442-.013a.173.173 0 0 1-.163-.119ZM18.2 10.78l-.459-1.368a.173.173 0 0 0-.328 0l-.459 1.368a.173.173 0 0 1-.162.118l-1.443.013a.173.173 0 0 0-.101.313l1.159.858c.06.044.084.121.062.192l-.433 1.375c-.05.16.13.29.266.194l1.174-.837a.173.173 0 0 1 .202 0l1.174.837a.173.173 0 0 0 .266-.194l-.433-1.375a.174.174 0 0 1 .062-.192l1.16-.858a.173.173 0 0 0-.102-.313l-1.443-.013a.173.173 0 0 1-.162-.118Z" clip-rule="evenodd"/>
  <path d="M19.52 20.826c-1.03 0-1.689-.726-1.689-1.944 0-1.222.664-1.92 1.689-1.92 1.02 0 1.684.694 1.684 1.92 0 1.213-.66 1.944-1.684 1.944Zm0-.904c.279 0 .471-.303.471-1.04 0-.736-.192-1.015-.471-1.015-.284 0-.476.28-.476 1.02 0 .732.192 1.035.476 1.035Zm5.369 4.205c-1.03 0-1.684-.727-1.684-1.944 0-1.222.664-1.92 1.684-1.92s1.684.693 1.684 1.92c0 1.207-.654 1.944-1.684 1.944Zm0-.91c.284 0 .471-.298.471-1.034 0-.741-.187-1.02-.471-1.02s-.471.279-.471 1.02c0 .736.187 1.034.471 1.034Zm-1.302-6.14a.532.532 0 0 1 .922.532l-3.692 6.399a.532.532 0 1 1-.922-.532l3.692-6.4Z"/>
</svg>
