<svg xmlns="http://www.w3.org/2000/svg" width="32" height="32" fill="currentColor" viewBox="0 0 32 32">
  <path d="M19.533 18.205a.495.495 0 0 1 0-.7l.42-.42a.495.495 0 0 1 .7 0l2.098 2.1a.495.495 0 0 1 0 .7l-.42.419a.495.495 0 0 1-.7 0l-2.098-2.099Zm4.371 4.371a.495.495 0 0 1 0-.7l.42-.419a.495.495 0 0 1 .7 0l2.098 2.099a.495.495 0 0 1 0 .7l-.42.42a.495.495 0 0 1-.7 0l-2.098-2.1Zm1.208-2.36a.495.495 0 0 1-.7 0l-.42-.42a.495.495 0 0 1 0-.7l2.1-2.099a.495.495 0 0 1 .699 0l.42.42a.495.495 0 0 1 0 .7l-2.1 2.099Zm-4.548 4.547a.495.495 0 0 1-.7 0l-.42-.42a.495.495 0 0 1 0-.699l2.1-2.099a.495.495 0 0 1 .7 0l.419.42a.495.495 0 0 1 0 .7l-2.099 2.098Z"/>
  <path fill-rule="evenodd" d="M23.125 7.042H16.36a.202.202 0 0 0-.176.102L6.92 23.372a.203.203 0 0 0 .176.303h6.765c.072 0 .14-.039.176-.102L23.3 7.345a.202.202 0 0 0-.176-.303ZM13.019 19.117l-.534-1.597a.203.203 0 0 0-.384 0l-.535 1.597a.203.203 0 0 1-.19.138l-1.684.015a.203.203 0 0 0-.119.365l1.354 1.002a.203.203 0 0 1 .072.224l-.506 1.606a.202.202 0 0 0 .311.225l1.371-.977c.07-.05.165-.05.235 0l1.371.977c.159.113.37-.04.31-.225l-.505-1.606a.202.202 0 0 1 .073-.224l1.353-1.002a.203.203 0 0 0-.119-.365l-1.683-.015a.203.203 0 0 1-.19-.138Zm2.819-4.96-.535-1.596a.202.202 0 0 0-.384 0l-.535 1.597a.203.203 0 0 1-.19.138l-1.684.015a.203.203 0 0 0-.118.365l1.353 1.002c.07.051.098.141.073.224l-.506 1.606a.203.203 0 0 0 .31.225l1.371-.977c.07-.05.165-.05.236 0l1.37.977c.159.113.37-.04.311-.225l-.506-1.606a.203.203 0 0 1 .073-.224l1.353-1.002a.203.203 0 0 0-.118-.365l-1.684-.015a.203.203 0 0 1-.19-.138ZM18.655 9.2l-.535-1.596a.202.202 0 0 0-.384 0L17.201 9.2a.203.203 0 0 1-.19.138l-1.683.015a.202.202 0 0 0-.119.366l1.353 1.002a.2.2 0 0 1 .073.223l-.506 1.606a.202.202 0 0 0 .31.226l1.372-.977c.07-.05.164-.05.235 0l1.37.977c.159.113.37-.04.311-.226l-.505-1.606a.203.203 0 0 1 .072-.223l1.354-1.002a.203.203 0 0 0-.12-.366l-1.683-.015a.203.203 0 0 1-.19-.138Z" clip-rule="evenodd"/>
</svg>
