<svg xmlns="http://www.w3.org/2000/svg" width="32" height="32" fill="currentColor" viewBox="0 0 32 32">
  <path d="M19.157 18.452a.417.417 0 0 1 0-.59l.354-.355a.418.418 0 0 1 .59 0l1.772 1.771a.417.417 0 0 1 0 .59l-.354.355a.417.417 0 0 1-.59 0l-1.772-1.771Zm3.689 3.689a.418.418 0 0 1 0-.59l.355-.355a.417.417 0 0 1 .59 0l1.772 1.772a.417.417 0 0 1 0 .59l-.355.355a.418.418 0 0 1-.59 0l-1.772-1.772Zm1.02-1.992a.417.417 0 0 1-.59 0l-.355-.355a.418.418 0 0 1 0-.59l1.771-1.772a.417.417 0 0 1 .59 0l.355.355a.417.417 0 0 1 0 .59l-1.771 1.772Zm-3.839 3.838a.418.418 0 0 1-.59 0l-.354-.354a.418.418 0 0 1 0-.59l1.771-1.772a.417.417 0 0 1 .59 0l.355.354a.417.417 0 0 1 0 .59l-1.772 1.772Z"/>
  <path fill-rule="evenodd" d="M22.189 9.03h-5.71a.171.171 0 0 0-.148.086L8.512 22.813a.17.17 0 0 0 .149.255h5.709a.17.17 0 0 0 .148-.086l7.82-13.696a.17.17 0 0 0-.15-.256Zm-8.53 10.19-.45-1.347a.171.171 0 0 0-.325 0l-.451 1.348a.17.17 0 0 1-.16.116l-1.421.013a.17.17 0 0 0-.1.308l1.141.846c.059.043.084.12.062.189l-.427 1.355a.17.17 0 0 0 .262.19l1.157-.824a.171.171 0 0 1 .199 0l1.157.825a.17.17 0 0 0 .262-.19l-.427-1.356a.17.17 0 0 1 .061-.189l1.143-.846a.17.17 0 0 0-.1-.308l-1.422-.013a.17.17 0 0 1-.16-.116Zm2.38-4.185-.452-1.347a.171.171 0 0 0-.324 0l-.451 1.347a.17.17 0 0 1-.16.117l-1.422.013a.17.17 0 0 0-.1.308l1.142.846a.169.169 0 0 1 .061.188l-.427 1.356a.17.17 0 0 0 .263.19l1.157-.825a.171.171 0 0 1 .198 0l1.157.825a.17.17 0 0 0 .263-.19l-.427-1.356a.17.17 0 0 1 .061-.188l1.142-.846a.17.17 0 0 0-.1-.308l-1.421-.013a.17.17 0 0 1-.16-.117Zm2.377-4.184-.451-1.347a.17.17 0 0 0-.324 0l-.451 1.347a.171.171 0 0 1-.161.117l-1.421.013a.17.17 0 0 0-.1.308l1.142.846a.17.17 0 0 1 .061.188l-.427 1.356a.171.171 0 0 0 .263.19l1.157-.825a.171.171 0 0 1 .198 0l1.157.825a.17.17 0 0 0 .262-.19l-.427-1.356a.17.17 0 0 1 .062-.188l1.142-.846a.17.17 0 0 0-.1-.308l-1.421-.013a.17.17 0 0 1-.16-.117Z" clip-rule="evenodd"/>
</svg>
