<svg xmlns="http://www.w3.org/2000/svg" width="32" height="32" fill="currentColor" viewBox="0 0 32 32">
  <path d="M20.145 21.794h-2.2V10.206H22.1c.471 0 .893.09 1.265.267.377.178.699.422.966.73.267.31.469.671.605 1.085.141.409.212.843.212 1.304 0 .487-.073.94-.22 1.36a3.406 3.406 0 0 1-.613 1.107 2.917 2.917 0 0 1-.974.746 2.873 2.873 0 0 1-1.273.275h-1.924v4.714Zm0-6.434h1.107c.556 0 .97-.15 1.242-.448.272-.299.408-.726.408-1.28 0-.55-.136-.972-.408-1.265-.273-.299-.686-.448-1.242-.448h-1.107v3.44Zm-8.909-.692h2.906v-4.462h2.192v11.588h-2.191v-5.358h-2.907v5.358h-2.2V10.206h2.2v4.462Z"/>
</svg>
