<svg xmlns="http://www.w3.org/2000/svg" width="32" height="32" fill="currentColor" viewBox="0 0 32 32">
  <path d="m3.427 16 3.2 4.5h.8l-2.4-4.5 2.4-4.5h-.8l-3.2 4.5Zm25.152 0-3.2-4.5h-.8l2.4 4.5-2.4 4.5h.8l3.2-4.5Z"/>
  <path fill-rule="evenodd" d="M17.226 17.608 20.291 16h2.144l2.144 1.072v1.072l-2.59 3.036-4.763-3.572Zm-4.265-3.2.183-.552H8.592v-1.072h4.91l.357-1.072 2.144-1.072 4.288 1.072v2.144l-4.288 2.834-3.042-2.282ZM12.636 16l2.144 1.608-4.544 3.408-2.809-2.872v-1.072L8.592 16h4.044Zm7.148 5.36h-7.562l3.781-2.834 3.78 2.834Z" clip-rule="evenodd"/>
</svg>
