<svg xmlns="http://www.w3.org/2000/svg" width="32" height="32" fill="currentColor" viewBox="0 0 32 32">
  <path d="m12.177 13.236.171-.515H3.983v-1h8.7l.332-1 2-1 4 1v2l-.962 2h2.095a4.402 4.402 0 0 0-2.882 5H9.95l-2.936-3v-1l1.087-1h4.828l-.753-1.485Z"/>
  <path fill-rule="evenodd" d="M21.586 21.624a2.744 2.744 0 1 0 0-5.487 2.744 2.744 0 0 0 0 5.487Zm0 .655a3.4 3.4 0 1 0 0-6.798 3.4 3.4 0 0 0 0 6.798Z" clip-rule="evenodd"/>
  <path d="M21.586 18.475a.2.2 0 0 0 .322.159l1.855-1.424a2.74 2.74 0 0 0-2.177-1.073v2.338ZM11.77 9.676c.041.03 2.33-.875 3.645-1.398 1.273.505 3.652 1.443 3.713 1.443.11-.022.217-.056.316-.101a.223.223 0 0 0 .067-.07.168.168 0 0 0 .024-.086.168.168 0 0 0-.024-.085.223.223 0 0 0-.067-.07l-3.72-2.632a.358.358 0 0 0-.111-.05.418.418 0 0 0-.128-.014.422.422 0 0 0-.139.01.362.362 0 0 0-.121.052l-3.72 2.627a.223.223 0 0 0-.068.07.168.168 0 0 0-.024.085c0 .03.008.059.024.085a.223.223 0 0 0 .067.07l.267.064Z"/>
</svg>
