<svg xmlns="http://www.w3.org/2000/svg" width="32" height="32" fill="currentColor" viewBox="0 0 32 32">
  <path d="M12.302 9.523c-.324.164-.62-.264-.352-.51l3.804-3.483a.365.365 0 0 1 .492 0l3.804 3.483c.268.246-.028.674-.352.51L16 7.653l-3.698 1.87Z"/>
  <path fill-rule="evenodd" d="M23.732 23.303a2.987 2.987 0 1 0 0-5.973 2.987 2.987 0 0 0 0 5.974Zm0 .714a3.7 3.7 0 1 0 0-7.401 3.7 3.7 0 0 0 0 7.401Z" clip-rule="evenodd"/>
  <path d="M23.732 19.911a.2.2 0 0 0 .322.159l2.048-1.572a2.982 2.982 0 0 0-2.37-1.169v2.582ZM13.489 14.17l.186-.56H4.567v-1.088h9.471l.363-1.09 2.177-1.088 4.355 1.089v2.177l-1.047 2.178h2.28a4.793 4.793 0 0 0-3.137 5.444h-7.964l-3.197-3.267v-1.088l1.184-1.09h5.256l-.82-1.616Z"/>
</svg>
