<svg xmlns="http://www.w3.org/2000/svg" width="32" height="32" fill="currentColor" viewBox="0 0 32 32">
  <path fill-rule="evenodd" d="M21.586 21.624a2.744 2.744 0 1 0 0-5.487 2.744 2.744 0 0 0 0 5.487Zm0 .655a3.4 3.4 0 1 0 0-6.798 3.4 3.4 0 0 0 0 6.798Z" clip-rule="evenodd"/>
  <path d="M21.586 18.475a.2.2 0 0 0 .322.159l1.855-1.424a2.74 2.74 0 0 0-2.177-1.073v2.338Zm-9.409-5.239.171-.515H3.983v-1h8.7l.332-1 2-1 4 1v2l-.962 2h2.095a4.402 4.402 0 0 0-2.882 5H9.95l-2.936-3v-1l1.087-1h4.828l-.753-1.485Z"/>
</svg>
