<svg xmlns="http://www.w3.org/2000/svg" width="32" height="32" fill="currentColor" viewBox="0 0 32 32">
  <path d="m1.59 16 3.2 4.5h.8L3.19 16l2.4-4.5h-.8L1.59 16Zm28.6 0-3.2-4.5h-.8l2.4 4.5-2.4 4.5h.8l3.2-4.5Z"/>
  <path fill-rule="evenodd" d="M22.081 23.358a2.987 2.987 0 1 0 0-5.974 2.987 2.987 0 0 0 0 5.974Zm0 .714a3.7 3.7 0 1 0 0-7.402 3.7 3.7 0 0 0 0 7.402Z" clip-rule="evenodd"/>
  <path d="M22.081 19.966a.2.2 0 0 0 .322.158l2.049-1.571a2.982 2.982 0 0 0-2.37-1.169v2.582Zm-10.243-5.74.186-.561H6.218v-1.089h6.17l.362-1.089 2.178-1.088 4.355 1.088v2.178l-1.048 2.177h2.281a4.793 4.793 0 0 0-3.138 5.444H9.414L6.218 18.02v-1.09L7.4 15.842h5.257l-.82-1.616Z"/>
</svg>
