<svg xmlns="http://www.w3.org/2000/svg" width="32" height="32" fill="currentColor" viewBox="0 0 32 32">
  <path d="M15.995 23.797c4.261 0 7.807-3.536 7.807-7.797 0-4.261-3.555-7.797-7.816-7.797-4.252 0-7.788 3.536-7.788 7.797 0 4.261 3.546 7.797 7.797 7.797Zm0-1.468A6.29 6.29 0 0 1 9.685 16c0-3.517 2.793-6.329 6.3-6.329A6.31 6.31 0 0 1 22.325 16a6.301 6.301 0 0 1-6.329 6.329Zm5.208-1.305-.029-.096c-.348-1.13-2.367-2.329-5.179-2.329-2.811 0-4.821 1.198-5.17 2.329l-.028.096c1.382 1.343 3.836 2.107 5.198 2.107 1.372 0 3.826-.764 5.208-2.107Zm-5.208-3.7c1.46.019 2.609-1.227 2.609-2.86 0-1.537-1.15-2.802-2.609-2.802-1.45 0-2.609 1.265-2.599 2.802.01 1.633 1.14 2.84 2.6 2.86Z"/>
</svg>
