<svg xmlns="http://www.w3.org/2000/svg" width="32" height="32" fill="currentColor" viewBox="0 0 32 32">
  <path fill-rule="evenodd" d="M19.337 22.804h4.155V20.46a.4.4 0 0 0-.4-.4h-3.355a.4.4 0 0 0-.4.4v2.343Zm-7.072-1.295a.4.4 0 0 1 .4.4v.895H8.508v-.895c0-.22.18-.4.4-.4h3.357Z" clip-rule="evenodd"/>
  <path d="M13.422 22.804h5.156v-3.805a.4.4 0 0 0-.4-.4h-4.356a.4.4 0 0 0-.4.4v3.805Zm4.099-8.832h1.641l1.054.527v.527l-1.256 1.581h-5.798l-1.378-1.58v-.528l.573-.527h2.413l-.266-.782.09-.272h-2.283v-.527h2.46l.175-.527L16 11.337l2.108.527v1.054l-.587 1.054Z"/>
</svg>
