<svg xmlns="http://www.w3.org/2000/svg" width="32" height="32" fill="currentColor" viewBox="0 0 32 32">
  <path fill-rule="evenodd" d="M19.563 22.218H24v-2.53a.4.4 0 0 0-.4-.4h-3.637a.4.4 0 0 0-.4.4v2.53Zm-7.524-1.382a.4.4 0 0 1 .4.4v.982H8v-.982a.4.4 0 0 1 .4-.4h3.64Z" clip-rule="evenodd"/>
  <path d="M13.247 22.218h5.506v-4.09a.4.4 0 0 0-.4-.4h-4.706a.4.4 0 0 0-.4.4v4.09Zm4.378-8.953h1.752l1.125.563v.563l-1.341 1.688H12.97l-1.472-1.688v-.563l.612-.563h2.577l-.284-.835.096-.29h-2.438v-.563h2.626l.188-.563L16 10.452l2.251.562v1.126l-.626 1.125Zm-5.281-3.349c.04.038 2.3-1.126 3.598-1.798 1.257.648 3.605 1.855 3.665 1.855.11-.028.215-.072.312-.13a.265.265 0 0 0 0-.4L16.246 6.06a.322.322 0 0 0-.235-.082.323.323 0 0 0-.257.08l-3.673 3.376a.265.265 0 0 0 0 .4l.263.082Z"/>
</svg>
