<svg xmlns="http://www.w3.org/2000/svg" width="32" height="32" fill="currentColor" viewBox="0 0 32 32">
  <path d="M12.344 9.054c.04.038 2.3-1.126 3.598-1.798v-.001c1.257.649 3.605 1.856 3.665 1.856.11-.029.215-.072.312-.13a.265.265 0 0 0 0-.4l-3.673-3.383a.322.322 0 0 0-.235-.082.323.323 0 0 0-.257.08l-3.673 3.376a.265.265 0 0 0 0 .4l.263.082Z"/>
  <path fill-rule="evenodd" d="M19.782 22.901h4.71v-2.709a.4.4 0 0 0-.4-.4h-3.91a.4.4 0 0 0-.4.4v2.71Zm-7.962-1.467a.4.4 0 0 1 .4.4v1.067H7.508v-1.067c0-.22.18-.4.4-.4h3.912Z" clip-rule="evenodd"/>
  <path d="M13.078 22.901h5.844v-4.366a.4.4 0 0 0-.4-.4h-5.044a.4.4 0 0 0-.4.4v4.366Zm4.646-10.019h1.86l1.195.597v.597l-1.424 1.792h-6.572l-1.562-1.792v-.597l.65-.597h2.735l-.301-.887.102-.308h-2.588v-.597h2.787l.2-.598L16 9.895l2.39.597v1.195l-.666 1.195Z"/>
</svg>
