<svg xmlns="http://www.w3.org/2000/svg" width="32" height="32" fill="currentColor" viewBox="0 0 32 32">
  <path fill-rule="evenodd" d="M19.563 21.74H24v-2.529a.4.4 0 0 0-.4-.4h-3.637a.4.4 0 0 0-.4.4v2.53Zm-7.524-1.382a.4.4 0 0 1 .4.4v.983H8v-.983c0-.22.18-.4.4-.4h3.64Z" clip-rule="evenodd"/>
  <path d="M13.247 21.74h5.506v-4.09a.4.4 0 0 0-.4-.4h-4.706a.4.4 0 0 0-.4.4v4.09Zm4.378-9.43h1.752l1.125.563v.562l-1.341 1.689H12.97l-1.472-1.689v-.562l.612-.563h2.577l-.284-.836.096-.29h-2.438v-.562h2.626l.188-.563L16 9.496l2.251.563v1.125l-.626 1.126Z"/>
</svg>
