<svg xmlns="http://www.w3.org/2000/svg" width="32" height="32" fill="currentColor" viewBox="0 0 32 32">
  <path d="m5.508 13.613 3.2 4.5h.8l-2.4-4.5 2.4-4.5h-.8l-3.2 4.5Zm16.984 4.5h.8l3.2-4.5-3.2-4.5h-.8l2.4 4.5-2.4 4.5Z"/>
  <path fill-rule="evenodd" d="M19.782 22.878h4.71V20.17a.4.4 0 0 0-.4-.4h-3.91a.4.4 0 0 0-.4.4v2.71Zm-7.962-1.467a.4.4 0 0 1 .4.4v1.067H7.508v-1.067a.4.4 0 0 1 .4-.4h3.912Z" clip-rule="evenodd"/>
  <path d="M13.078 22.878h5.844v-4.366a.4.4 0 0 0-.4-.4h-5.044a.4.4 0 0 0-.4.4v4.366Zm4.646-10.019h1.86l1.195.597v.598l-1.424 1.792h-6.572l-1.562-1.793v-.597l.65-.597h2.735l-.301-.887.102-.308h-2.588v-.597h2.787l.2-.598L16 9.872l2.39.597v1.195l-.666 1.195Z"/>
</svg>
