<svg xmlns="http://www.w3.org/2000/svg" width="32" height="32" fill="currentColor" viewBox="0 0 32 32">
  <path d="m4 16 3.647 5.128h.911L5.823 16l2.735-5.128h-.911L4 16Zm24.061 0-3.646-5.128h-.912L26.238 16l-2.735 5.128h.912L28.061 16Z"/>
  <path d="M8.25 17.488a.547.547 0 0 1 0-.773l.465-.464a.547.547 0 0 1 .773 0l2.32 2.32a.547.547 0 0 1 0 .772l-.465.464a.547.547 0 0 1-.773 0l-2.32-2.32Zm4.831 4.83a.547.547 0 0 1 0-.773l.464-.464a.547.547 0 0 1 .773 0l2.32 2.32a.547.547 0 0 1 0 .773l-.464.464a.547.547 0 0 1-.773 0l-2.32-2.32Zm1.335-2.608a.547.547 0 0 1-.773 0l-.464-.464a.547.547 0 0 1 0-.773l2.32-2.32a.547.547 0 0 1 .772 0l.464.464a.547.547 0 0 1 0 .773l-2.32 2.32ZM9.39 24.735a.547.547 0 0 1-.773 0l-.464-.464a.547.547 0 0 1 0-.773l2.32-2.32a.547.547 0 0 1 .773 0l.464.465a.547.547 0 0 1 0 .773l-2.32 2.32Zm1.406-15.452-1.412 1.413a.5.5 0 0 0 0 .706l4.237 4.238a.498.498 0 0 1 .109.163l.709-.71a2.045 2.045 0 0 1 2.72-.152l-5.657-5.658a.5.5 0 0 0-.706 0Z"/>
  <path d="m17.344 9.283-1.412 1.413a.5.5 0 0 0 0 .706l4.237 4.238a.5.5 0 0 1 0 .706l-4.233 4.234 1.761 1.761c.123.123.226.257.311.4a.51.51 0 0 0 .043-.038l6.356-6.357a.5.5 0 0 0 0-.706L18.05 9.283a.5.5 0 0 0-.706 0Z"/>
  <circle cx="21.421" cy="23.181" r="1.715"/>
  <circle cx="21.421" cy="23.181" r="1.715"/>
</svg>
