<svg xmlns="http://www.w3.org/2000/svg" width="32" height="32" fill="currentColor" viewBox="0 0 32 32">
  <path d="M8.48 11.404a.5.5 0 0 1 0-.707l1.414-1.414a.5.5 0 0 1 .707 0l6.364 6.364a.5.5 0 0 1 0 .707L10.6 22.718a.5.5 0 0 1-.707 0L8.48 21.303a.5.5 0 0 1 0-.707l4.242-4.242a.5.5 0 0 0 0-.707L8.48 11.403Z"/>
  <path d="M15.035 11.404a.5.5 0 0 1 0-.707l1.414-1.414a.5.5 0 0 1 .707 0l6.364 6.364a.5.5 0 0 1 0 .707l-6.363 6.364a.5.5 0 0 1-.707 0l-1.415-1.415a.5.5 0 0 1 0-.707l4.243-4.242a.5.5 0 0 0 0-.707l-4.243-4.243ZM2.238 16l3.646 5.128h.912L4.06 16l2.735-5.128h-.912L2.238 16Zm26.109 0L24.7 10.872h-.911L26.523 16l-2.734 5.128h.911L28.347 16Z"/>
</svg>
