<svg xmlns="http://www.w3.org/2000/svg" width="32" height="32" fill="currentColor" viewBox="0 0 32 32">
  <path d="m4 16 3.647 5.128h.911L5.823 16l2.735-5.128h-.911L4 16Zm24 0-3.646-5.128h-.912L26.177 16l-2.735 5.128h.912L28 16ZM9.366 11.404a.5.5 0 0 1 0-.707l1.414-1.415a.5.5 0 0 1 .707 0l6.364 6.364a.5.5 0 0 1 0 .707l-6.364 6.364a.5.5 0 0 1-.707 0l-1.414-1.414a.5.5 0 0 1 0-.707l4.242-4.242a.5.5 0 0 0 0-.708l-4.242-4.242Z"/>
  <path d="M15.922 11.404a.5.5 0 0 1 0-.707l1.414-1.415a.5.5 0 0 1 .707 0l6.364 6.364a.5.5 0 0 1 0 .707l-6.364 6.364a.5.5 0 0 1-.707 0l-1.414-1.414a.5.5 0 0 1 0-.707l4.242-4.242a.5.5 0 0 0 0-.708l-4.242-4.242Z"/>
</svg>
