<svg xmlns="http://www.w3.org/2000/svg" width="32" height="32" fill="currentColor" viewBox="0 0 32 32">
  <path d="M12.17 8.246c-.336.17-.643-.274-.365-.528l3.94-3.608a.378.378 0 0 1 .51 0l3.94 3.608c.277.254-.029.698-.365.528L16 6.31l-3.83 1.936Zm-2.804 3.158a.5.5 0 0 1 0-.707l1.414-1.415a.5.5 0 0 1 .707 0l6.364 6.364a.5.5 0 0 1 0 .707l-6.364 6.364a.5.5 0 0 1-.707 0l-1.414-1.414a.5.5 0 0 1 0-.707l4.242-4.242a.5.5 0 0 0 0-.708l-4.242-4.242Z"/>
  <path d="M15.922 11.404a.5.5 0 0 1 0-.707l1.414-1.415a.5.5 0 0 1 .707 0l6.364 6.364a.5.5 0 0 1 0 .707l-6.364 6.364a.5.5 0 0 1-.707 0l-1.414-1.414a.5.5 0 0 1 0-.707l4.242-4.242a.5.5 0 0 0 0-.708l-4.242-4.242Z"/>
</svg>
