<svg xmlns="http://www.w3.org/2000/svg" width="32" height="32" fill="currentColor" viewBox="0 0 32 32">
  <path d="M8.48 11.404a.5.5 0 0 1 0-.707l1.414-1.414a.5.5 0 0 1 .707 0l6.364 6.364a.5.5 0 0 1 0 .707L10.6 22.718a.5.5 0 0 1-.707 0L8.48 21.303a.5.5 0 0 1 0-.707l4.242-4.242a.5.5 0 0 0 0-.707L8.48 11.403Z"/>
  <path d="M15.035 11.404a.5.5 0 0 1 0-.707l1.414-1.414a.5.5 0 0 1 .707 0l6.364 6.364a.5.5 0 0 1 0 .707l-6.363 6.364a.5.5 0 0 1-.707 0l-1.415-1.415a.5.5 0 0 1 0-.707l4.243-4.242a.5.5 0 0 0 0-.707l-4.243-4.243ZM9.979 7.978c.052.05 2.959-1.448 4.628-2.312 1.617.834 4.637 2.386 4.714 2.386a1.59 1.59 0 0 0 .402-.167.342.342 0 0 0 0-.515l-4.725-4.351a.414.414 0 0 0-.302-.106.415.415 0 0 0-.33.103L9.64 7.358a.342.342 0 0 0 0 .515l.338.105Z"/>
</svg>
