<svg xmlns="http://www.w3.org/2000/svg" width="32" height="32" fill="currentColor" viewBox="0 0 32 32">
  <path d="M7.345 17.496a.547.547 0 0 1 0-.774l.465-.464a.547.547 0 0 1 .774 0l2.322 2.322a.547.547 0 0 1 0 .774l-.465.465a.547.547 0 0 1-.774 0l-2.322-2.323Zm4.836 4.837a.547.547 0 0 1 0-.774l.465-.465a.547.547 0 0 1 .774 0l2.322 2.322a.547.547 0 0 1 0 .774l-.464.465a.547.547 0 0 1-.774 0l-2.322-2.322Zm1.337-2.612a.547.547 0 0 1-.775 0l-.464-.465a.547.547 0 0 1 0-.773l2.322-2.323a.547.547 0 0 1 .774 0l.465.465a.547.547 0 0 1 0 .774l-2.322 2.322Zm-5.032 5.031a.547.547 0 0 1-.774 0l-.464-.464a.547.547 0 0 1 0-.774l2.322-2.322a.547.547 0 0 1 .774 0l.464.464a.547.547 0 0 1 0 .774l-2.322 2.322Zm1.408-15.47-1.415 1.415a.5.5 0 0 0 0 .707l4.243 4.242a.499.499 0 0 1 .109.163l.71-.71a2.048 2.048 0 0 1 2.724-.152L10.6 9.282a.5.5 0 0 0-.707 0Z"/>
  <path d="m16.45 9.282-1.415 1.415a.5.5 0 0 0 0 .707l4.243 4.242a.5.5 0 0 1 0 .707l-4.239 4.24 1.764 1.763c.122.122.226.257.311.4a.497.497 0 0 0 .043-.039l6.363-6.363a.5.5 0 0 0 0-.708l-6.363-6.364a.5.5 0 0 0-.708 0Z"/>
</svg>
