<svg xmlns="http://www.w3.org/2000/svg" width="32" height="32" fill="currentColor" viewBox="0 0 32 32">
  <path d="M9.361 11.32a.865.865 0 0 1 0-1.225l.734-.734a.865.865 0 0 1 1.224 0l3.672 3.672a.865.865 0 0 1 0 1.224l-.734.734a.865.865 0 0 1-1.224 0L9.361 11.32Zm7.648 7.647a.865.865 0 0 1 0-1.224l.734-.734a.865.865 0 0 1 1.224 0l3.672 3.672a.865.865 0 0 1 0 1.224l-.734.734a.865.865 0 0 1-1.224 0l-3.672-3.672Zm2.112-4.13a.865.865 0 0 1-1.224 0l-.734-.734a.865.865 0 0 1 0-1.224l3.672-3.672a.865.865 0 0 1 1.224 0l.734.734a.865.865 0 0 1 0 1.224l-3.672 3.672Zm-5.018 2.326.734.734a.865.865 0 0 1 0 1.224l-3.423 3.424c.01-.078.016-.157.016-.237v-3.696l1.449-1.45a.865.865 0 0 1 1.224 0ZM9.691 13.45h.148l.59 1.476v.739H7.478v-.739l.59-1.476h.148a.738.738 0 1 1 1.476 0Zm.739 7.382v-4.43H7.477v4.43h2.953Zm-2.215 2.215h1.476a.738.738 0 0 0 .739-.739v-.738H7.477v.738a.738.738 0 0 0 .738.739Z"/>
</svg>
