<svg xmlns="http://www.w3.org/2000/svg" width="32" height="32" fill="currentColor" viewBox="0 0 32 32">
  <path d="m4 16 3.2 4.5H8L5.6 16 8 11.5h-.8L4 16Zm24 0-3.2-4.5H24l2.4 4.5-2.4 4.5h.8L28 16Zm-17.9-4.68a.866.866 0 0 1 0-1.225l.734-.734a.866.866 0 0 1 1.224 0l3.672 3.672a.865.865 0 0 1 0 1.224l-.735.734a.865.865 0 0 1-1.224 0L10.1 11.32Zm7.647 7.647a.865.865 0 0 1 0-1.224l.734-.734a.866.866 0 0 1 1.224 0l3.672 3.672a.865.865 0 0 1 0 1.224l-.734.734a.865.865 0 0 1-1.224 0l-3.672-3.672Zm2.113-4.13a.865.865 0 0 1-1.225 0l-.734-.734a.865.865 0 0 1 0-1.224l3.672-3.672a.865.865 0 0 1 1.224 0l.734.734a.865.865 0 0 1 0 1.224l-3.672 3.672Zm-5.019 2.326.734.734a.865.865 0 0 1 0 1.224l-3.423 3.424c.01-.078.016-.157.016-.237v-3.696l1.449-1.45a.865.865 0 0 1 1.224 0ZM10.43 13.45h.147l.59 1.477v.738H8.216v-.738l.59-1.477h.148a.738.738 0 0 1 1.477 0Zm.738 7.382v-4.429H8.215v4.43h2.953Zm-2.215 2.215h1.477a.739.739 0 0 0 .738-.738v-.739H8.215v.739a.738.738 0 0 0 .738.738Z"/>
</svg>
