<svg xmlns="http://www.w3.org/2000/svg" width="32" height="32" fill="currentColor" viewBox="0 0 32 32">
  <path d="M12.626 8.286c-.324.164-.62-.264-.352-.51l3.804-3.483a.365.365 0 0 1 .493 0l3.803 3.484c.268.245-.028.673-.352.509l-3.698-1.87-3.698 1.87ZM9.608 11.32a.865.865 0 0 1 0-1.225l.735-.734a.865.865 0 0 1 1.224 0l3.672 3.672a.865.865 0 0 1 0 1.224l-.735.734a.865.865 0 0 1-1.224 0L9.608 11.32Zm7.648 7.647a.865.865 0 0 1 0-1.224l.734-.734a.865.865 0 0 1 1.224 0l3.672 3.672a.865.865 0 0 1 0 1.224l-.734.734a.865.865 0 0 1-1.224 0l-3.672-3.672Zm2.112-4.13a.865.865 0 0 1-1.224 0l-.734-.734a.865.865 0 0 1 0-1.224l3.672-3.672a.866.866 0 0 1 1.224 0l.734.734a.865.865 0 0 1 0 1.224l-3.672 3.672Zm-5.018 2.326.734.734a.865.865 0 0 1 0 1.224l-3.423 3.424c.01-.078.016-.157.016-.237v-3.696l1.449-1.45a.865.865 0 0 1 1.224 0ZM9.939 13.45h.147l.59 1.477v.738H7.725v-.738l.59-1.477h.148a.738.738 0 0 1 1.477 0Zm.738 7.382v-4.429H7.724v4.43h2.953Zm-2.215 2.215H9.94a.738.738 0 0 0 .738-.738v-.739H7.724v.739a.738.738 0 0 0 .738.738Z"/>
</svg>
