<svg xmlns="http://www.w3.org/2000/svg" width="32" height="32" fill="currentColor" viewBox="0 0 32 32">
  <path d="M9.075 21.014H21.89a1 1 0 0 0 .664-.252l2.808-2.493a1 1 0 0 0 .336-.748v-.438a1 1 0 0 0-1-1H21.63v-.265a.4.4 0 0 0-.4-.4h-.252a.4.4 0 0 0-.4.4v.265H9.788l-.616-.809H5.86v2.31a1 1 0 0 0 .261.673l2.216 2.43a1 1 0 0 0 .739.327Z"/>
  <path d="m18.368 11.719 1.183 1.136h1.223a.5.5 0 0 1 .452.285h7.245v.912h-7.243a.45.45 0 0 1-.403.25c-.182 0-.358.153-.503.348l-1.413 2.07H12.55s-2.148-1.551-2.148-2.811.83-2.19 1.61-2.19h.916v-.333a.4.4 0 0 1 .4-.4h2.108c.135 0 .263.063.389.183.125.12.634.55.634.55h1.908Z"/>
</svg>
