<svg xmlns="http://www.w3.org/2000/svg" width="32" height="32" fill="currentColor" viewBox="0 0 32 32">
  <path fill-rule="evenodd" d="M19.563 22.617H24v-2.53a.4.4 0 0 0-.4-.4h-3.637a.4.4 0 0 0-.4.4v2.53Zm-7.524-1.382a.4.4 0 0 1 .4.4v.982H8v-.982a.4.4 0 0 1 .4-.4h3.64Z" clip-rule="evenodd"/>
  <path d="M13.247 22.617h5.506v-4.09a.4.4 0 0 0-.4-.4h-4.706a.4.4 0 0 0-.4.4v4.09ZM13.339 16h5.322a.4.4 0 0 0 .4-.4v-.848a.4.4 0 0 0-.4-.4h-1.578V8.06a.4.4 0 0 0-.4-.4h-1.537a.4.4 0 0 0-.228.071l-1.98 1.373v1.828l1.972-1.358h.111v4.78h-1.682a.4.4 0 0 0-.4.4v.847c0 .22.179.4.4.4Z"/>
</svg>
