<svg xmlns="http://www.w3.org/2000/svg" width="32" height="32" fill="currentColor" viewBox="0 0 32 32">
  <path fill-rule="evenodd" d="M19.282 22.904h4.086v-2.298a.4.4 0 0 0-.4-.4h-3.287a.4.4 0 0 0-.4.4v2.298ZM12.32 21.63a.4.4 0 0 1 .4.4v.873H8.632v-.873a.4.4 0 0 1 .4-.4h3.288Z" clip-rule="evenodd"/>
  <path d="M13.464 22.904h5.072v-3.736a.4.4 0 0 0-.4-.4h-4.272a.4.4 0 0 0-.4.4v3.736Zm.116-6.094h4.84a.4.4 0 0 0 .4-.401l-.001-.717a.4.4 0 0 0-.4-.4h-1.422V9.527a.4.4 0 0 0-.4-.4h-1.374a.4.4 0 0 0-.228.071l-1.815 1.26v1.683l1.816-1.252h.102v4.403H13.58a.4.4 0 0 0-.4.4v.717c0 .221.18.4.4.4Zm-6.035 1.288h.8l3.2-4.5-3.2-4.5h-.8l2.4 4.5-2.4 4.5Z"/>
  <path d="M5.14 18.098h.8l3.2-4.5-3.2-4.5h-.8l2.4 4.5-2.4 4.5Z"/>
</svg>
