<svg xmlns="http://www.w3.org/2000/svg" width="32" height="32" fill="currentColor" viewBox="0 0 32 32">
  <path fill-rule="evenodd" d="M19.282 22.872h4.086v-2.297a.4.4 0 0 0-.4-.4h-3.287a.4.4 0 0 0-.4.4v2.297ZM12.32 21.6a.4.4 0 0 1 .4.4v.873H8.632V22a.4.4 0 0 1 .4-.4h3.288Z" clip-rule="evenodd"/>
  <path d="M13.464 22.872h5.072v-3.735a.4.4 0 0 0-.4-.4h-4.272a.4.4 0 0 0-.4.4v3.735Zm.116-6.094h4.84a.4.4 0 0 0 .4-.4l-.001-.717a.4.4 0 0 0-.4-.4h-1.422V9.496a.4.4 0 0 0-.4-.4h-1.374a.4.4 0 0 0-.228.071l-1.815 1.26v1.683l1.816-1.252h.102v4.403H13.58a.4.4 0 0 0-.4.4v.717c0 .221.18.4.4.4Z"/>
</svg>
