<svg xmlns="http://www.w3.org/2000/svg" width="32" height="32" fill="currentColor" viewBox="0 0 32 32">
  <path d="M7.545 18.098h.8l3.2-4.5-3.2-4.5h-.8l2.4 4.5-2.4 4.5Z"/>
  <path d="M5.14 18.098h.8l3.2-4.5-3.2-4.5h-.8l2.4 4.5-2.4 4.5Zm6.798-9.064c.044.043 2.555-1.25 3.997-1.998 1.397.722 4.006 2.062 4.073 2.062.122-.032.239-.08.347-.145a.297.297 0 0 0 0-.444l-4.082-3.76a.357.357 0 0 0-.26-.09.36.36 0 0 0-.286.088L11.645 8.5a.295.295 0 0 0 0 .444l.293.091Z"/>
  <path fill-rule="evenodd" d="M19.282 22.875h4.086v-2.298a.4.4 0 0 0-.4-.4h-3.287a.4.4 0 0 0-.4.4v2.297ZM12.32 21.6a.4.4 0 0 1 .4.4v.873H8.632V22a.4.4 0 0 1 .4-.4h3.288Z" clip-rule="evenodd"/>
  <path d="M13.464 22.875h5.072v-3.736a.4.4 0 0 0-.4-.4h-4.272a.4.4 0 0 0-.4.4v3.736Zm.116-6.095h4.84a.4.4 0 0 0 .4-.4l-.001-.717a.4.4 0 0 0-.4-.4h-1.422V9.498a.4.4 0 0 0-.4-.4h-1.374a.4.4 0 0 0-.228.071l-1.815 1.259v1.683l1.816-1.25h.102v4.402H13.58a.4.4 0 0 0-.4.4v.717c0 .221.18.4.4.4Z"/>
</svg>
