<svg xmlns="http://www.w3.org/2000/svg" width="32" height="32" fill="currentColor" viewBox="0 0 32 32">
  <path fill-rule="evenodd" d="M19.99 24.976h4.438v-2.529a.4.4 0 0 0-.4-.4H20.39a.4.4 0 0 0-.4.4v2.53Zm-7.523-1.382a.4.4 0 0 1 .4.4v.982h-4.44v-.982a.4.4 0 0 1 .4-.4h3.64Z" clip-rule="evenodd"/>
  <path d="M13.675 24.976h5.506v-4.09a.4.4 0 0 0-.4-.4h-4.706a.4.4 0 0 0-.4.4v4.09Zm.091-6.616h5.323a.4.4 0 0 0 .4-.401l-.001-.847a.4.4 0 0 0-.4-.4H17.51v-6.294a.4.4 0 0 0-.4-.4h-1.536a.4.4 0 0 0-.228.071l-1.98 1.373v1.828l1.972-1.358h.11v4.78h-1.682a.4.4 0 0 0-.4.4v.847c0 .221.18.4.4.4Zm-6.934 2.126h.8l3.2-4.5-3.2-4.5h-.8l2.4 4.5-2.4 4.5Z"/>
  <path d="M4.428 20.486h.8l3.2-4.5-3.2-4.5h-.8l2.4 4.5-2.4 4.5Zm7.937-11.442c.045.043 2.556-1.25 3.998-1.998 1.397.722 4.006 2.062 4.073 2.062.122-.032.238-.08.346-.145a.295.295 0 0 0 0-.444l-4.08-3.76a.358.358 0 0 0-.262-.09.358.358 0 0 0-.286.088L12.073 8.51a.297.297 0 0 0 0 .444l.292.091Z"/>
</svg>
